<?xml version="1.0" standalone="no"?>
<!DOCTYPE svg PUBLIC "-//W3C//DTD SVG 1.1//EN" "http://www.w3.org/Graphics/SVG/1.1/DTD/svg11.dtd" >
<svg>
<metadata>
Created by FontForge 20090914 at Wed Feb 22 13:24:31 2017
 By www-data
Design and data by The Monotype Corporation. &#194;&#169; 1993. Microsoft Corporation. All rights reserved.
</metadata>
<defs>
<font id="BernardMT-Condensed" horiz-adv-x="981" >
  <font-face 
    font-family="Bernard MT Condensed"
    font-weight="400"
    font-stretch="condensed"
    units-per-em="2048"
    panose-1="2 5 8 6 6 9 5 2 4 4"
    ascent="1638"
    descent="-410"
    x-height="1366"
    cap-height="1614"
    bbox="-364 -461.999 2234 1976"
    underline-thickness="130"
    underline-position="-95"
    unicode-range="U+0020-U+F002"
  />
<missing-glyph horiz-adv-x="1536" 
d="M256 0v1280h1024v-1280h-1024zM288 32h960v1216h-960v-1216z" />
    <glyph glyph-name=".notdef" horiz-adv-x="1536" 
d="M256 0v1280h1024v-1280h-1024zM288 32h960v1216h-960v-1216z" />
    <glyph glyph-name="space" unicode=" " horiz-adv-x="501" 
 />
    <glyph glyph-name="exclam" unicode="!" horiz-adv-x="533" 
d="M298 508h-65c-13.333 0 -21.5 2 -24.5 6s-4.5 18.333 -4.5 43c0 36.667 -22.667 207 -68 511c-34.667 240 -52 370 -52 390c0 49.333 16.5 91.5 49.5 126.5s79.5 52.5 139.5 52.5c57.333 0 101.166 -18.833 131.499 -56.5s45.5 -81.5 45.5 -131.5
c0 -34.667 -24.333 -210.334 -73 -527.001c-32 -207.333 -48.333 -326.666 -49 -357.999c0 -28.667 -1.66699 -45.167 -5 -49.5s-11.666 -6.5 -24.999 -6.5zM256 395c50 0 91.001 -19.501 123.001 -58.501s48 -86.5 48 -142.5c0 -52.667 -16.333 -100.5 -49 -143.5
s-73.334 -64.5 -122.001 -64.5c-46.667 0 -85 18.833 -115 56.5s-45 84.834 -45 141.501c0 56 14.333 105.167 43 147.5s67.667 63.5 117 63.5z" />
    <glyph glyph-name="quotedbl" unicode="&#x22;" horiz-adv-x="971" 
d="M160 1100l-53 273v248h306v-248l-46 -273h-207zM611 1100l-53 273v248h306v-248l-46 -273h-207z" />
    <glyph glyph-name="numbersign" unicode="#" horiz-adv-x="1365" 
d="M77 1017h308l84 383h189l-84 -383h355l82 383h189l-82 -383h170v-189h-206l-63 -303h269v-189h-305l-82 -380h-190l83 380h-359l-78 -380h-191l81 380h-170v189h209l63 303h-272v189zM538 828l-63 -302h356l62 302h-355z" />
    <glyph glyph-name="dollar" unicode="$" horiz-adv-x="1045" 
d="M440 1641l169.999 -0.00292969v-109c19.333 -4.66699 63 -23 131 -55c10 8.66699 18 19 24 31c10.667 20 24 30 40 30h50l18 1c10 -1.33301 16.333 -10.666 19 -27.999c0 -1.33301 2 -11 6 -29l46 -244c0.666992 -4 2 -10.667 4 -20c11.333 -50.667 17 -82 17 -94
c0 -15.333 -19 -23 -57 -23c-37.333 0 -59.333 1.16699 -66 3.5s-17.667 19.166 -33 50.499c-61.333 122 -127.666 200.333 -198.999 235v-394c167.333 -105.333 277.5 -199.666 330.5 -282.999s79.5 -179 79.5 -287c0 -96.667 -19.333 -174.667 -58 -234
s-84.167 -103.666 -136.5 -132.999s-123.833 -47.333 -214.5 -54v-164h-170v181c-54.667 22.667 -91 40 -109 52c-16 10.667 -28.333 16 -37 16c-14.667 0 -27.667 -14.333 -39 -43c-7.33301 -17.333 -15 -27.833 -23 -31.5s-32.667 -5.5 -74 -5.5
c-12.667 0 -21.667 16 -27 48l-61 354c-3.33301 18.667 -5 29.667 -5 33c0 23.333 22.333 35 67 35c35.333 0 57.833 -4.33301 67.5 -13s28.167 -37.667 55.5 -87c66.667 -120 128.334 -193 185.001 -219v463c-270.667 151.333 -406 332 -406 542c0 72 11 132.167 33 180.5
s61.667 92.833 119 133.5s141.666 62.334 252.999 65.001v96zM438.999 1091v346c-46 0 -82.667 -14.167 -110 -42.5s-41 -58.5 -41 -90.5c0 -73.333 50.333 -144.333 151 -213zM610.999 514.997v-389.001c100 15.333 150 69.333 150 162c0 82.667 -50 158.334 -150 227.001z
" />
    <glyph glyph-name="percent" unicode="%" horiz-adv-x="1536" 
d="M366 1650c86 0 161.169 -36.334 225.502 -109.001s96.5 -173.667 96.5 -303s-31.333 -233 -94 -311s-137.334 -117 -224.001 -117c-90.667 0 -167.334 39 -230.001 117s-94 177 -94 297c0 128.667 33.167 231.834 99.5 309.501s139.833 116.5 220.5 116.5zM432.002 1477
c0 23.333 -6 42.5 -18 57.5s-27 22.5 -45 22.5c-46 0 -69 -33.333 -69 -100v-479c0 -22 6.33301 -40.833 19 -56.5s28 -23.5 46 -23.5c19.333 0 35.333 9.16699 48 27.5s19 40.5 19 66.5v485zM993.002 1650h181l-636 -1705h-179zM1168 787.999
c86.667 0 162.167 -36.501 226.5 -109.501s96.5 -174.167 96.5 -303.5c0 -120.667 -29.667 -222 -89 -304s-135.666 -123 -228.999 -123c-90.667 0 -167.334 38.833 -230.001 116.5s-94 176.834 -94 297.501c0 128 33.167 231 99.5 309s139.5 117 219.5 117zM1235 613.998
c0 22.667 -5.83203 41.667 -17.499 57s-26.834 23 -45.501 23c-46 0 -69 -33 -69 -99v-480c0 -21.333 6.33301 -40 19 -56s28 -24 46 -24s33.667 8.83301 47 26.5s20 40.167 20 67.5v485z" />
    <glyph glyph-name="ampersand" unicode="&#x26;" horiz-adv-x="1323" 
d="M395 1022c-34 118.667 -51.001 203.665 -51.001 254.998c0 104.667 33.333 194.167 100 268.5s147.334 111.5 242.001 111.5c85.333 0 154.833 -27.833 208.5 -83.5s80.5 -121.167 80.5 -196.5c0 -64 -21.667 -126.667 -65 -188s-101.333 -111.333 -174 -150l197 -479
c56.667 75.333 85 143.333 85 204c0 24.667 -13 41.667 -39 51c-14 4.66699 -21 10.334 -21 17.001v58c0 26 12 39 36 39h254c21.333 0 32 -14 32 -42v-55c0 -13.333 -7.33301 -23 -22 -29c-50 -20.667 -107.333 -93 -172 -217c-33.333 -65.333 -62.333 -115 -87 -149
c27.333 -80.667 61.666 -121 102.999 -121c20.667 0 41.667 7.33301 63 22c8.66699 6 15 9 19 9c4.66699 0 19.5 -11 44.5 -33s37.5 -38 37.5 -48c0 -9.33301 -10 -22.666 -30 -39.999c-89.333 -77.333 -165.333 -152 -228 -224c-48 0 -89.5 9.5 -124.5 28.5
s-74.833 57.5 -119.5 115.5c-92.667 -97.333 -191.667 -146 -297 -146c-131.333 -0 -233.166 55.833 -305.499 167.5s-108.5 234.167 -108.5 367.5c0 108 27.5 201.667 82.5 281s141.5 148 259.5 206zM686.999 1182c71.333 39.333 107 98.001 107 176.001
c0 43.333 -9.5 80.666 -28.5 111.999s-42.833 47 -71.5 47c-20 0 -37 -9.16699 -51 -27.5s-21 -39.833 -21 -64.5c0 -60 21.667 -141 65 -243zM682.999 272.999c-76 138.667 -154.667 337.333 -236 596c-56.667 -18 -85 -60.333 -85 -127c0 -64 27 -162 81 -294
s110.667 -198 170 -198c20.667 0 44 7.66699 70 23z" />
    <glyph glyph-name="quotesingle" unicode="'" horiz-adv-x="487" 
d="M144 1100l-53 273v248h306v-248l-46 -273h-207z" />
    <glyph glyph-name="parenleft" unicode="(" horiz-adv-x="576" 
d="M554 -150l0.000976562 -57.9971c0 -26 -6.66699 -39 -20 -39c-17.333 0 -59 22.667 -125 68s-130.833 109.666 -194.5 192.999s-114 182.666 -151 297.999s-55.5 239.333 -55.5 372c0 130.667 15.333 249.834 46 357.501s76 205.5 136 293.5s128.333 159.833 205 215.5
s124.667 83.5 144 83.5c10 0 15 -10.667 15 -32v-85c0 -14 -5.33301 -25.333 -16 -34c-26.667 -23.333 -46.167 -48.333 -58.5 -75s-25.5 -71.334 -39.5 -134.001s-21 -135 -21 -217v-698c0 -35.333 8.33301 -133.333 25 -294
c19.333 -74.667 49.666 -130.334 90.999 -167.001c12.667 -11.333 19 -27.333 19 -48z" />
    <glyph glyph-name="parenright" unicode=")" horiz-adv-x="576" 
d="M23 1536l0.000976562 59.002c0 26 6.33301 39 19 39c15.333 0 57.5 -22.5 126.5 -67.5s136.833 -113.667 203.5 -206s116.167 -194.833 148.5 -307.5s48.5 -229.334 48.5 -350.001c0 -130.667 -15.333 -249.834 -46 -357.501s-76.167 -205.5 -136.5 -293.5
s-128.833 -159.833 -205.5 -215.5s-124.334 -83.5 -143.001 -83.5c-10 0 -15 10.667 -15 32v85c0 13.333 5.33301 24.666 16 33.999c26 22.667 45.333 47.5 58 74.5s26 71.667 40 134s21 134.833 21 217.5v698c0 34.667 -8.33301 132.667 -25 294
c-20 74.667 -50.333 130.334 -91 167.001c-12.667 11.333 -19 27 -19 47z" />
    <glyph glyph-name="asterisk" unicode="*" horiz-adv-x="1024" 
d="M396 1366c21.333 48 40.001 101.001 56.001 159.001c14 49.333 25.167 80.166 33.5 92.499s19.166 18.5 32.499 18.5c12.667 0 22.5 -5.33301 29.5 -16s15.833 -34.667 26.5 -72c19.333 -70.667 40.666 -131.334 63.999 -182.001c32 0 86.667 7.66699 164 23
c42 8.66699 69.667 13 83 13c26 0 39 -10.333 39 -31c0 -18 -18.333 -46.333 -55 -85c-44 -46 -81 -92 -111 -138c32.667 -48.667 67.334 -93 104.001 -133c39.333 -43.333 59 -73.666 59 -90.999c0 -21.333 -14 -32 -42 -32c-16.667 0 -42.334 4.66699 -77.001 14
c-59.333 16.667 -114 26 -164 28c-24 -46.667 -47 -110.334 -69 -191.001c-10.667 -39.333 -19 -63.666 -25 -72.999s-15.667 -14 -29 -14c-16 0 -28.167 6.66699 -36.5 20s-17.833 42 -28.5 86c-16 66 -37 123.333 -63 172c-47.333 0 -110 -10 -188 -30
c-30 -7.33301 -51.333 -11 -64 -11c-23.333 0 -35 10 -35 30c0 14.667 21.333 44.667 64 90c47.333 50.667 82.333 95.667 105 135c-45.333 65.333 -85.666 115.333 -120.999 150c-31.333 30 -47 52.667 -47 68c0 26 14.667 39 44 39c14 0 34.667 -4 62 -12
c59.333 -16.667 122.333 -25.667 189 -27z" />
    <glyph glyph-name="plus" unicode="+" horiz-adv-x="1365" 
d="M125 908h449v451h215v-451h451v-215h-451v-447h-215v447h-449v215z" />
    <glyph glyph-name="comma" unicode="," horiz-adv-x="533" 
d="M95 238c0 40 12.667 76.1641 38 108.497s61.666 48.5 108.999 48.5c55.333 0 101.833 -21.833 139.5 -65.5s56.5 -101.834 56.5 -174.501c0 -104.667 -35 -197.834 -105 -279.501s-119 -122.5 -147 -122.5c-13.333 0 -28.333 8.33301 -45 25s-25 28.334 -25 35.001
c0 8.66699 6.66699 19.667 20 33c61.333 57.333 92 114.333 92 171c0 14.667 -3.16699 28.334 -9.5 41.001s-22.166 29.334 -47.499 50.001s-44.333 40.834 -57 60.501s-19 42.834 -19 69.501z" />
    <glyph glyph-name="hyphen" unicode="-" horiz-adv-x="619" 
d="M484 880l55 -0.00195312c31.333 0 47 -10 47 -30c0 -18.667 -12.167 -70.667 -36.5 -156s-42.666 -136.333 -54.999 -153s-30.5 -25 -54.5 -25c-11.333 0 -33 1 -65 3c-60.667 4.66699 -107.334 7 -140.001 7c-30.667 0 -53.334 -10.667 -68.001 -32
c-7.33301 -9.33301 -13.5 -15.166 -18.5 -17.499s-17.833 -3.5 -38.5 -3.5c-33.333 0 -54.333 2.16699 -63 6.5s-13 14.5 -13 30.5c0 21.333 11.333 75.833 34 163.5s39.167 136.334 49.5 146.001s34.833 14.5 73.5 14.5c18 0 43 -1.33301 75 -4
c32.667 -2 61.334 -3 86.001 -3c28 0 47.333 2 58 6s23.667 14 39 30c10 11.333 21.667 17 35 17z" />
    <glyph glyph-name="period" unicode="." horiz-adv-x="533" 
d="M261 395c49.333 0 90.166 -19.333 122.499 -58s48.5 -86.334 48.5 -143.001c0 -54 -16.667 -102.167 -50 -144.5s-73.666 -63.5 -120.999 -63.5c-46 0 -84.167 18.833 -114.5 56.5s-45.5 84.834 -45.5 141.501c0 56 14.333 105.167 43 147.5s67.667 63.5 117 63.5z" />
    <glyph glyph-name="slash" unicode="/" horiz-adv-x="1045" 
d="M779 1641h232l-744 -1659h-232z" />
    <glyph glyph-name="zero" unicode="0" horiz-adv-x="1003" 
d="M507 1621c85.333 0 164 -34.667 236 -104s126 -163.5 162 -282.5s54 -260.167 54 -423.5c0 -272 -45.167 -478 -135.5 -618s-200.166 -210 -329.499 -210c-122.667 0 -228.334 66.667 -317.001 200s-133 337.333 -133 612c0 273.333 43.833 479.333 131.5 618
s198.167 208 331.5 208zM570 1365c0 47.333 -5.50098 80.167 -16.501 98.5s-29.167 27.5 -54.5 27.5c-49.333 0 -74 -42 -74 -126v-1158c0 -65.333 23.333 -98 70 -98c22.667 0 40.834 9.66699 54.501 29s20.5 42.333 20.5 69v1158z" />
    <glyph glyph-name="one" unicode="1" horiz-adv-x="768" 
d="M209 1184c-60 -20.667 -111 -31 -153 -31c-20.667 0 -31 11.333 -31 34v40c0 15.333 3 26.833 9 34.5s21 16.167 45 25.5c32 13.333 75.667 40.333 131 81s109.333 95 162 163c40.667 52.667 64.667 81.167 72 85.5s20 6.5 38 6.5h83v-1447
c0 -14.667 11.333 -27.667 34 -39c19.333 -9.33301 31.166 -19.166 35.499 -29.499s6.5 -37.5 6.5 -81.5c0 -17.333 -11.667 -26 -35 -26h-458c-19.333 0 -31.166 3 -35.499 9s-6.5 20.667 -6.5 44c0 33.333 1.83301 54 5.5 62s17.5 15.667 41.5 23
c37.333 11.333 56 27.666 56 48.999v997z" />
    <glyph glyph-name="two" unicode="2" horiz-adv-x="1003" 
d="M243 300l501.003 0.00292969c22.667 0 40.5 8.5 53.5 25.5s24.167 48.833 33.5 95.5c4 19.333 10.333 32.166 19 38.499s27 9.5 55 9.5c41.333 0 62 -9 62 -27c0 -6 -1 -13 -3 -21c-3.33301 -18 -10.333 -61 -21 -129c-12 -74 -23.833 -138.5 -35.5 -193.5
s-20.334 -85.167 -26.001 -90.5s-21.167 -8 -46.5 -8h-789v234c0 32.667 28 74 84 124c28 25.333 92.833 101.666 194.5 228.999s167.5 231.333 197.5 312s45 188.334 45 323.001c0 112.667 -10.833 185.167 -32.5 217.5s-52.834 48.5 -93.501 48.5
c-30.667 0 -54.667 -8.66699 -72 -26s-26 -40 -26 -68c0 -16 1.66699 -35.333 5 -58c4 -30 6 -59 6 -87c0 -60.667 -13.833 -107.667 -41.5 -141s-62.834 -50 -105.501 -50c-45.333 0 -81.333 18 -108 54s-40 79.333 -40 130c0 105.333 39.333 194.833 118 268.5
s184 110.5 316 110.5c134 0 244.167 -42.333 330.5 -127s129.5 -194.334 129.5 -329.001c0 -74.667 -15.333 -146.167 -46 -214.5s-72.5 -129 -125.5 -182s-130.5 -119.5 -232.5 -199.5c-140 -108.667 -242 -198.334 -306 -269.001z" />
    <glyph glyph-name="three" unicode="3" horiz-adv-x="1003" 
d="M593 867c238.667 -62 358 -202.001 358 -420.001c0 -92.667 -22 -174 -66 -244s-104.5 -124.167 -181.5 -162.5s-158.833 -57.5 -245.5 -57.5c-116.667 0 -210.167 35.833 -280.5 107.5s-105.5 155.167 -105.5 250.5c0 48 12.333 89 37 123s59.667 51 105 51
c44 0 78 -15 102 -45s36 -67 36 -111c0 -18 -3.66699 -48.333 -11 -91c-4 -18.667 -6 -35.667 -6 -51c0 -28.667 9 -53.167 27 -73.5s43 -30.5 75 -30.5c42 0 73.167 17.5 93.5 52.5s30.5 91.167 30.5 168.5c0 20 -0.666992 40 -2 60l-12 247
c-10 48.667 -26.333 84.334 -49 107.001s-46.5 36.5 -71.5 41.5s-64.833 7.5 -119.5 7.5l-29 -1c-20 0 -30.667 9.66699 -32 29l-2 44c-0.666992 4.66699 -1 9.33398 -1 14.001c0 30 15 45 45 45c76 0 130.5 6.5 163.5 19.5s55.167 32.833 66.5 59.5s17 85 17 175
c0 127.333 -6.66699 212 -20 254s-40.666 63 -81.999 63c-25.333 0 -47.5 -8.33301 -66.5 -25s-28.5 -38 -28.5 -64c0 -17.333 3 -42.333 9 -75c8.66699 -46 13 -80.667 13 -104c0 -38.667 -13 -69.334 -39 -92.001s-57 -34 -93 -34c-44.667 0 -79.5 17.667 -104.5 53
s-37.5 79.333 -37.5 132c0 92 35.667 172.667 107 242s167.666 104 288.999 104c140 0 246.667 -42.667 320 -128s110 -179.333 110 -282c0 -80 -24.667 -151.5 -74 -214.5s-121 -108.167 -215 -135.5z" />
    <glyph glyph-name="four" unicode="4" horiz-adv-x="1003" 
d="M831 578h84.999c21.333 0 35.333 -3.66699 42 -11s10 -22 10 -44v-59c0 -17.333 -2.66699 -29 -8 -35s-18 -9 -38 -9h-91v-188c0 -44.667 19 -77 57 -97c20.667 -10.667 31 -29.334 31 -56.001v-45c0 -14.667 -2.66699 -24 -8 -28s-17.666 -6 -36.999 -6h-421
c-20 0 -32.333 3.5 -37 10.5s-7 30.5 -7 70.5c0 24 10 41.667 30 53c25.333 14.667 38 35 38 61v225h-396c-21.333 0 -34 2.5 -38 7.5s-6 16.5 -6 34.5v116c0 12 1 21.5 3 28.5s16.333 31.833 43 74.5l562 899c10 16 22.167 26.833 36.5 32.5s40.5 8.5 78.5 8.5
c36.667 0 57.667 -2.16699 63 -6.5s8 -16.166 8 -35.499v-1001zM476.999 1068l-307 -490h307v490z" />
    <glyph glyph-name="five" unicode="5" horiz-adv-x="1003" 
d="M178 1597l480.003 -0.00195312c20.667 0 35.667 5 45 15c11.333 12 19.833 19.167 25.5 21.5s17.5 3.5 35.5 3.5c27.333 0 44.666 -2.16699 51.999 -6.5s11 -12.833 11 -25.5c0 -2.66699 -1 -14.667 -3 -36l-18 -214c-2 -20.667 -5.5 -33.667 -10.5 -39
s-17.167 -8 -36.5 -8h-470l-17 -308c65.333 44 138.333 66 219 66c132 0 240 -49.333 324 -148s126 -224.667 126 -378c0 -166 -48.5 -300.333 -145.5 -403s-217.5 -154 -361.5 -154c-119.333 0 -211.333 37.667 -276 113s-97 154 -97 236c0 46.667 12.333 87.5 37 122.5
s60 52.5 106 52.5c40.667 0 73 -13.667 97 -41s36 -64.333 36 -111c0 -21.333 -2.66699 -43.666 -8 -66.999c-8.66699 -39.333 -13 -65 -13 -77c0 -22.667 8.83301 -44.667 26.5 -66s44.5 -32 80.5 -32c31.333 0 57.666 8.16699 78.999 24.5s35.333 39.5 42 69.5
s10 90.333 10 181l-2 179c0 136.667 -10.333 230.334 -31 281.001s-56.334 76 -107.001 76c-71.333 0 -121.333 -45.667 -150 -137c-6.66699 -21.333 -13.5 -35 -20.5 -41s-19.167 -9.33301 -36.5 -10l-45 -2c-24 0 -36 9.66699 -36 29c0 6 0.333008 15 1 27z" />
    <glyph glyph-name="six" unicode="6" horiz-adv-x="1003" 
d="M422 1077c60.667 68.667 125.998 103 195.998 103c94 0 174.833 -47 242.5 -141s101.5 -230.333 101.5 -409c0 -187.333 -42.167 -342 -126.5 -464s-196.5 -183 -336.5 -183c-92.667 0 -172.167 25.167 -238.5 75.5s-119.833 131 -160.5 242s-61 255.167 -61 432.5
c0 214.667 30.333 387.667 91 519s147.834 225.833 261.501 283.5s234.834 86.5 363.501 86.5c34.667 0 58.5 -2.33301 71.5 -7s19.5 -13.667 19.5 -27c0 -50 -2.33301 -79.833 -7 -89.5s-21 -14.5 -49 -14.5c-62 0 -125.833 -14.5 -191.5 -43.5s-111.5 -70 -137.5 -123
s-39 -133.167 -39 -240.5zM574.998 933c0 22 -6 40.5 -18 55.5s-28.333 22.5 -49 22.5c-51.333 0 -77 -38.333 -77 -115v-714c0 -20 7 -36.667 21 -50s30.667 -20 50 -20c23.333 0 41.333 10 54 30s19 61.667 19 125v666z" />
    <glyph glyph-name="seven" unicode="7" horiz-adv-x="1003" 
d="M712 1293l-417.997 -0.00292969c-32.667 0 -58 -22 -76 -66c-9.33301 -22 -17.333 -38.167 -24 -48.5s-39.334 -15.5 -98.001 -15.5c-20.667 0 -31 7.66699 -31 23v11l29 339c2.66699 28 7.66699 45.167 15 51.5s25.666 9.5 54.999 9.5h767c14.667 0 23.5 -1 26.5 -3
s4.5 -8.66699 4.5 -20v-43c0 -18.667 -9.33301 -46 -28 -82c-45.333 -90.667 -99.333 -237.667 -162 -441s-94 -424.333 -94 -663c0 -98.667 3.66699 -157 11 -175s21.666 -33 42.999 -45c14 -7.33301 21 -25.666 21 -54.999c0 -36 -1.5 -56.667 -4.5 -62s-13.5 -8 -31.5 -8
h-425c-17.333 0 -28.333 2.66699 -33 8s-7 22 -7 50c0 29.333 1.83301 47.833 5.5 55.5s14.5 15.834 32.5 24.501c12 6 19.667 14.833 23 26.5s5 31.5 5 59.5c0 86 20.333 202.833 61 350.5s98.667 289.834 174 426.501z" />
    <glyph glyph-name="eight" unicode="8" horiz-adv-x="1003" 
d="M263 815c-126.667 105.333 -190.001 236.332 -190.001 392.999c0 125.333 38.833 225.666 116.5 300.999s181.167 113 310.5 113c132 0 235.667 -36.167 311 -108.5s113 -158.166 113 -257.499c0 -132 -67.333 -239.667 -202 -323c83.333 -66 142.333 -132.667 177 -200
s52 -145.666 52 -234.999c0 -158 -46.167 -283.333 -138.5 -376s-204.166 -139 -335.499 -139c-126.667 0 -231.5 42.833 -314.5 128.5s-124.5 191.167 -124.5 316.5c0 164 75 293 225 387zM615.999 1013c56 51.333 83.999 131.333 83.999 240
c0 158.667 -58.667 238 -176 238c-52.667 0 -95 -17.833 -127 -53.5s-48 -75.5 -48 -119.5c0 -46 19.333 -92 58 -138s108.334 -101.667 209.001 -167zM360.998 730.999c-32 -27.333 -54.5 -60.833 -67.5 -100.5s-19.5 -98.5 -19.5 -176.5c0 -112 16.5 -194.167 49.5 -246.5
s87.167 -78.5 162.5 -78.5c58 0 106.333 17.833 145 53.5s58 85.167 58 148.5c0 58.667 -14 108.167 -42 148.5s-77 87.5 -147 141.5z" />
    <glyph glyph-name="nine" unicode="9" horiz-adv-x="1003" 
d="M569 532c-60 -66.667 -126.333 -100 -199 -100c-89.333 0 -166.833 47.5 -232.5 142.5s-98.5 227.833 -98.5 398.5c0 98.667 15 197.334 45 296.001s78.833 182 146.5 250s157.5 102 269.5 102c142 0 254.167 -57.667 336.5 -173s123.5 -311.333 123.5 -588
c0 -314.667 -66.667 -539.5 -200 -674.5s-308.333 -202.5 -525 -202.5c-39.333 0 -63 2.5 -71 7.5s-12 19.167 -12 42.5c0 36.667 2.16699 59.667 6.5 69s11.833 14.666 22.5 15.999c99.333 11.333 174.833 28 226.5 50s92 57.333 121 106s43.5 112.667 43.5 192
c0 14.667 -1 36.667 -3 66zM569 1411c0 58 -23.999 87 -71.999 87c-47.333 0 -71 -32 -71 -96v-717c0 -26 6.33301 -47.5 19 -64.5s29 -25.5 49 -25.5c23.333 0 41.666 11 54.999 33s20 47 20 75v708z" />
    <glyph glyph-name="colon" unicode=":" horiz-adv-x="533" 
d="M261 1174c50 0 91.001 -19.501 123.001 -58.501s48 -86.5 48 -142.5c0 -52.667 -16.333 -100.5 -49 -143.5s-73.334 -64.5 -122.001 -64.5c-46 0 -84.167 18.833 -114.5 56.5s-45.5 84.834 -45.5 141.501s14.5 106 43.5 148s67.833 63 116.5 63zM261.001 394.999
c49.333 0 90.166 -19.333 122.499 -58s48.5 -86.334 48.5 -143.001c0 -54 -16.667 -102.167 -50 -144.5s-73.666 -63.5 -120.999 -63.5c-46 0 -84.167 18.833 -114.5 56.5s-45.5 84.834 -45.5 141.501c0 56 14.333 105.167 43 147.5s67.667 63.5 117 63.5z" />
    <glyph glyph-name="semicolon" unicode=";" horiz-adv-x="533" 
d="M263 1174c50 0 90.999 -19.501 122.999 -58.501s48 -86.5 48 -142.5c0 -54 -16.667 -102.167 -50 -144.5s-73.666 -63.5 -120.999 -63.5c-46.667 0 -85 18.833 -115 56.5s-45 84.834 -45 141.501c0 56 14.333 105.167 43 147.5s67.667 63.5 117 63.5zM94.999 237.999
c0 40 12.667 76.1641 38 108.497s61.666 48.5 108.999 48.5c55.333 0 101.833 -21.833 139.5 -65.5s56.5 -101.834 56.5 -174.501c0 -104.667 -35 -197.834 -105 -279.501s-119 -122.5 -147 -122.5c-13.333 0 -28.333 8.33301 -45 25s-25 28.334 -25 35.001
c0 8.66699 6.66699 19.667 20 33c61.333 57.333 92 114.333 92 171c0 14.667 -3.16699 28.334 -9.5 41.001s-22.166 29.334 -47.499 50.001s-44.333 40.834 -57 60.501s-19 42.834 -19 69.501z" />
    <glyph glyph-name="less" unicode="&#x3c;" horiz-adv-x="1365" 
d="M1238 240l-1112 464v194l1112 465v-233l-819 -328l819 -329v-233z" />
    <glyph glyph-name="equal" unicode="=" horiz-adv-x="1365" 
d="M126 1149h1112v-215h-1112v215zM126 671h1112v-215h-1112v215z" />
    <glyph glyph-name="greater" unicode="&#x3e;" horiz-adv-x="1365" 
d="M126 1363l1112 -464v-194l-1112 -465v233l819 328l-819 329v233z" />
    <glyph glyph-name="question" unicode="?" horiz-adv-x="853" 
d="M440 509l-70.001 0.000976562c-16 0 -26.833 3.5 -32.5 10.5s-8.5 29.167 -8.5 66.5c0 124.667 17.333 232.334 52 323.001c22 56.667 37.833 100.5 47.5 131.5s14.5 81.167 14.5 150.5l-1 99v58c0 70 -6.66699 113.667 -20 131s-31 26 -53 26
c-25.333 0 -44.833 -10.5 -58.5 -31.5s-20.5 -45.5 -20.5 -73.5c0 -14 3 -39 9 -75c4 -24 6 -42.667 6 -56c0 -82 -44.667 -123 -134 -123c-88.667 0 -133 53 -133 159c0 96 33 175.833 99 239.5s156 95.5 270 95.5c119.333 0 216.833 -37 292.5 -111
s113.5 -166.333 113.5 -277c0 -56.667 -10.667 -111 -32 -163s-75.333 -119.667 -162 -203c-57.333 -55.333 -92.5 -97.833 -105.5 -127.5s-20.5 -73.834 -22.5 -132.501s-5.66699 -92.834 -11 -102.501s-18.666 -14.5 -39.999 -14.5zM405.999 395.001
c50 0 90.999 -19.501 122.999 -58.501s48 -86.5 48 -142.5c0 -54 -16.667 -102.167 -50 -144.5s-73.666 -63.5 -120.999 -63.5c-46 0 -84.167 18.833 -114.5 56.5s-45.5 84.834 -45.5 141.501s14.5 106 43.5 148s67.833 63 116.5 63z" />
    <glyph glyph-name="at" unicode="@" horiz-adv-x="1905" 
d="M1182 1178l243.999 9.99902l-183 -628c-20.667 -68.667 -31 -120 -31 -154c0 -22 7.83301 -40.833 23.5 -56.5s35.167 -23.5 58.5 -23.5c47.333 0 107 27 179 81s131.833 129.167 179.5 225.5s71.5 201.166 71.5 314.499c0 178.667 -58 328.334 -174 449.001
s-273 181 -471 181c-153.333 0 -297.833 -36.667 -433.5 -110s-243.834 -185 -324.501 -335s-121 -309 -121 -477c0 -234.667 74.333 -424.667 223 -570s336.334 -218 563.001 -218c180 0 346 50.333 498 151s258 234.334 318 401.001h61
c-76.667 -195.333 -192.667 -345.333 -348 -450s-333.333 -157 -534 -157c-254 0 -465.167 82.167 -633.5 246.5s-252.5 374.5 -252.5 630.5c0 270 90.667 496.167 272 678.5s413 273.5 695 273.5c223.333 0 399 -64 527 -192s192 -290.333 192 -487
c0 -192 -56.667 -358.167 -170 -498.5s-256.666 -210.5 -429.999 -210.5c-72 0 -123.833 18 -155.5 54s-47.5 77.667 -47.5 125c0 33.333 8 79 24 137c-122 -210.667 -237 -316 -345 -316c-53.333 0 -94.666 21 -123.999 63s-44 96.667 -44 164
c0 102 23.167 207.667 69.5 317s114.666 206.5 204.999 291.5s170.833 127.5 241.5 127.5c80 0 127.667 -52 143 -156zM1102 1009c0 41.333 -6.66602 74.167 -19.999 98.5s-30.333 36.5 -51 36.5c-56.667 0 -118.167 -78.333 -184.5 -235s-99.5 -282.667 -99.5 -378
c0 -26 5.33301 -48.333 16 -67s24.667 -28 42 -28c26.667 0 63.167 26.833 109.5 80.5s89.166 128.5 128.499 224.5s59 185.333 59 268z" />
    <glyph glyph-name="A" unicode="A" 
d="M508 345l-249.999 -0.00488281l-11 -92c0 -2 -0.666992 -5 -2 -9c-5.33301 -19.333 -8 -36.666 -8 -51.999c0 -24 15.667 -44.333 47 -61c16.667 -8.66699 27 -17.667 31 -27s6 -24.666 6 -45.999c0 -27.333 -1.5 -43.833 -4.5 -49.5s-10.167 -8.5 -21.5 -8.5h-264
c-14.667 0 -22 15.333 -22 46c0 36.667 11.667 66.334 35 89.001c22 20.667 34.667 42.667 38 66l185 1177c3.33301 18 5 33.667 5 47c0 20.667 -14.333 39 -43 55c-13.333 8 -20 25.667 -20 53c0 36.667 2 59.334 6 68.001s14.667 13 32 13h382
c23.333 0 39.666 -11 48.999 -33s18.666 -70 27.999 -144l12 -85l164 -1099c8 -53.333 27.667 -94 59 -122c8.66699 -7.33301 14.334 -13.166 17.001 -17.499s4 -17.5 4 -39.5c0 -34 -2.33301 -54.833 -7 -62.5s-14.667 -11.5 -30 -11.5h-445c-13.333 0 -20 12.667 -20 38
c0 32 1.66699 52 5 60s13 17.333 29 28c23.333 14.667 35 33.334 35 56.001c0 23.333 -7 77.666 -21 162.999zM388.001 1237l-111 -777h220z" />
    <glyph glyph-name="B" unicode="B" horiz-adv-x="1110" 
d="M740 920c122 -42.667 206 -95.498 252 -158.498s69 -149.833 69 -260.5c0 -168.667 -42.333 -294.334 -127 -377.001s-215.667 -124 -393 -124h-489c-20 0 -30 10.333 -30 31v60c0 16.667 9 29 27 37c38 18 57 44.333 57 79v1207c0 16.667 -2.66699 28 -8 34
s-21.333 15.333 -48 28c-13.333 6 -21.166 12.667 -23.499 20s-3.5 25.333 -3.5 54c0 25.333 3.5 42.333 10.5 51s19.167 13 36.5 13h548c132 0 233.333 -33.667 304 -101s106 -153 106 -257c0 -86.667 -27.833 -159.334 -83.5 -218.001s-123.834 -98 -204.501 -118z
M478 1501v-525h53c33.333 0 59.5 9.66699 78.5 29s30 51.5 33 96.5s4.5 101.833 4.5 170.5c0 96 -9.16699 158.167 -27.5 186.5s-47.833 42.5 -88.5 42.5h-53zM478 862.002v-746.999c61.333 0 102.5 8.33301 123.5 25s33.333 49.667 37 99s5.5 132.666 5.5 249.999
c0 24 -1 78.5 -3 163.5s-6 136.167 -12 153.5s-16.5 31 -31.5 41s-37.167 15 -66.5 15h-53z" />
    <glyph glyph-name="C" unicode="C" horiz-adv-x="832" 
d="M696 1641h51.999c12 0 21 -4.5 27 -13.5s10.333 -33.167 13 -72.5l23 -322c0.666992 -6.66699 1 -13 1 -19c0 -23.333 -4 -39.666 -12 -48.999s-24 -14 -48 -14c-29.333 0 -49.666 7.66699 -60.999 23s-22.333 51.666 -33 108.999c-27.333 145.333 -66.333 218 -117 218
c-42 0 -63 -52.333 -63 -157v-1125c0 -74.667 22 -112 66 -112c56 0 87.333 62.333 94 187c2 36 9 61 21 75s36.667 21 74 21c28 0 47.5 -5.16699 58.5 -15.5s16.5 -30.5 16.5 -60.5c0 -95.333 -28.667 -174.5 -86 -237.5s-128.666 -94.5 -213.999 -94.5
c-82.667 0 -155.334 26.333 -218.001 79s-116.834 143.5 -162.501 272.5s-68.5 294.167 -68.5 495.5c0 190 19.167 341.833 57.5 455.5s87.333 201.5 147 263.5s129.167 93 208.5 93c48 0 89.667 -13 125 -39c13.333 -9.33301 23.333 -14 30 -14c8 0 19.333 9.33301 34 28
c12.667 16.667 24.334 25 35.001 25z" />
    <glyph glyph-name="D" unicode="D" horiz-adv-x="1109" 
d="M106 222l0.000976562 1211c-2 13.333 -14 23.333 -36 30c-17.333 5.33301 -29 13.166 -35 23.499s-9 32.5 -9 66.5c0 24.667 4.33301 41 13 49s31 12 67 12h479c136.667 0 249.834 -63 339.501 -189s134.5 -335.333 134.5 -628c0 -266.667 -43.333 -466.167 -130 -598.5
s-201.334 -198.5 -344.001 -198.5h-528c-14.667 0 -24.834 3.5 -30.501 10.5s-8.5 22.5 -8.5 46.5c0 28.667 1 46.667 3 54s11.667 15.666 29 24.999c37.333 19.333 56 48 56 86zM478.001 1495v-1385h53c37.333 0 64.666 15.5 81.999 46.5s26 86.167 26 165.5v1022
c0 44.667 -10.667 81 -32 109s-51.666 42 -90.999 42h-38z" />
    <glyph glyph-name="E" unicode="E" horiz-adv-x="853" 
d="M488 1491l0.00195312 -571.001h68c18.667 0 32.334 4 41.001 12s15.334 25.333 20.001 52c8 47.333 14.5 75.666 19.5 84.999s12.833 14 23.5 14c52.667 0 82.5 -2.16699 89.5 -6.5s10.5 -21.166 10.5 -50.499v-333c0 -20.667 -3.33301 -34.167 -10 -40.5
s-27.334 -9.5 -62.001 -9.5c-22.667 0 -37.834 4.16699 -45.501 12.5s-15.167 31.833 -22.5 70.5c-7.33301 35.333 -14.5 57 -21.5 65s-17.833 12 -32.5 12h-78v-689h53c32.667 0 55.167 9.16699 67.5 27.5s32.166 71.166 59.499 158.499c11.333 36.667 23 60.667 35 72
s33 17 63 17c41.333 0 62 -13.333 62 -40c0 -8 -1.33301 -19.667 -4 -35l-37 -227c-6.66699 -41.333 -12.167 -66.166 -16.5 -74.499s-17.833 -12.5 -40.5 -12.5h-667c-16.667 0 -27.334 3.83301 -32.001 11.5s-7 29.834 -7 66.501c0 23.333 12 40.333 36 51
c36.667 15.333 55 36.333 55 63v1247c-0.666992 12.667 -15.667 25.334 -45 38.001c-20 8.66699 -31.833 17 -35.5 25s-5.5 27.333 -5.5 58c0 26 2 41.5 6 46.5s15.667 7.5 35 7.5h638c16 0 27.667 -2.66699 35 -8s13 -18 17 -38l51 -258c2.66699 -13.333 4 -22.333 4 -27
c0 -18 -16 -27 -48 -27c-36 0 -60 4.16699 -72 12.5s-23.667 29.166 -35 62.499c-20.667 60 -38.5 101.667 -53.5 125s-31.833 35 -50.5 35h-68z" />
    <glyph glyph-name="F" unicode="F" horiz-adv-x="832" 
d="M480 812l0.000976562 -607.002c0 -31.333 19.333 -52.666 58 -63.999c19.333 -5.33301 31.5 -11.5 36.5 -18.5s7.5 -22.5 7.5 -46.5c0 -37.333 -2.83301 -59.333 -8.5 -66s-19.5 -10 -41.5 -10h-457c-25.333 0 -41.833 5.16699 -49.5 15.5s-11.5 31.5 -11.5 63.5
c0 21.333 1.83301 34.833 5.5 40.5s14.5 12.5 32.5 20.5c24.667 10.667 40 19.834 46 27.501s9 19.167 9 34.5v1208c0 17.333 -3.5 30.666 -10.5 39.999s-22.167 19 -45.5 29c-16.667 7.33301 -25 23.666 -25 48.999c0 2.66699 0.333008 17.334 1 44.001c4 28 20 42 48 42
h624c18.667 0 31.667 -3 39 -9s13 -20.667 17 -44c0.666992 -4 1.66699 -9.66699 3 -17l45 -222c2.66699 -14 4 -26 4 -36c0 -21.333 -16 -32 -48 -32c-42.667 0 -69.334 8 -80.001 24s-27.334 55.667 -50.001 119c-14 38.667 -27.833 64.667 -41.5 78
s-34.834 20 -63.501 20c-8 0 -22.667 -1 -44 -3v-571h51c26.667 0 45.167 6.16699 55.5 18.5s17.833 33.5 22.5 63.5c6 34 11.667 55.833 17 65.5s27.333 14.5 66 14.5c26.667 0 42.834 -2.66699 48.501 -8s8.5 -15.666 8.5 -30.999v-362c0 -15.333 -2.66699 -25.333 -8 -30
s-22.333 -7 -51 -7c-34.667 0 -56.5 5.66699 -65.5 17s-15.833 39 -20.5 83c-5.33301 44.667 -29.666 67 -72.999 67h-51z" />
    <glyph glyph-name="G" unicode="G" horiz-adv-x="1109" 
d="M745 98c-60 -77.333 -134 -116.002 -222 -116.002c-137.333 0 -249.666 80.667 -336.999 242s-131 352.666 -131 573.999c0 250.667 49.333 453.834 148 609.501s215.334 233.5 350.001 233.5c64.667 0 122 -16.667 172 -50c16 -10 28.333 -15 37 -15
c12 0 22.333 11.333 31 34c8 20.667 22 31 42 31h12l32 -2c21.333 -3.33301 34.666 -18.333 39.999 -45l64 -318c6.66699 -32.667 10 -54.667 10 -66c0 -23.333 -17.667 -35 -53 -35c-34.667 0 -57 5 -67 15s-30 45 -60 105c-40 81.333 -75.167 137.833 -105.5 169.5
s-62.833 47.5 -97.5 47.5c-91.333 0 -137 -72.667 -137 -218v-1074c0 -78.667 25 -118 75 -118c54.667 0 82 39.333 82 118v523c0 34 -11.667 56 -35 66c-25.333 10.667 -38 32.334 -38 65.001c0 35.333 3.33301 56.5 10 63.5s21 10.5 43 10.5h423
c20.667 0 34.5 -3.66699 41.5 -11s10.5 -24 10.5 -50c0 -27.333 -2.16699 -45.666 -6.5 -54.999s-14.833 -17 -31.5 -23c-24 -8.66699 -36 -27 -36 -55v-680c0 -40.667 -2.66699 -66.167 -8 -76.5s-19.333 -15.5 -42 -15.5c-20.667 0 -35.5 1.5 -44.5 4.5
s-21.5 12.167 -37.5 27.5c-44.667 43.333 -89.334 71.333 -134.001 84z" />
    <glyph glyph-name="H" unicode="H" horiz-adv-x="1131" 
d="M486 922l160.001 -0.00390625v503c0 16 -1.5 26.667 -4.5 32s-11.167 12 -24.5 20c-14.667 8 -22 26.667 -22 56c0 37.333 1.66699 60.166 5 68.499s12.666 12.5 27.999 12.5h434c19.333 0 31 -3.5 35 -10.5s6 -29.833 6 -68.5c0 -23.333 -2.16699 -37.166 -6.5 -41.499
s-17.833 -12.166 -40.5 -23.499c-24.667 -13.333 -37 -34 -37 -62v-1197c0 -31.333 14.333 -56.333 43 -75c23.333 -14.667 35 -28 35 -40v-63c0 -13.333 -2 -22.166 -6 -26.499s-15.667 -6.5 -35 -6.5h-436c-14.667 0 -23.667 2.66699 -27 8s-5 30 -5 74
c0 22 9 39.333 27 52c20.667 14.667 31 31.667 31 51v624h-160v-630c0 -21.333 8.66699 -38.333 26 -51c17.333 -14 26 -33.667 26 -59c0 -35.333 -2 -55.666 -6 -60.999s-12 -8 -24 -8h-439c-14 0 -22.667 3 -26 9s-5 29.667 -5 71c0 19.333 1.66699 32 5 38
s12.666 13.333 27.999 22c28 14.667 42 34.334 42 59.001v1209c0 19.333 -12.333 37.666 -37 54.999c-24.667 18 -37 43.667 -37 77c0 35.333 2.83301 56.5 8.5 63.5s18.167 10.5 37.5 10.5h410c18 0 30.333 -3.16699 37 -9.5s10 -21.166 10 -44.499v-47
c-1.33301 -12 -9.66602 -22.667 -24.999 -32c-20.667 -11.333 -31 -30 -31 -56v-503z" />
    <glyph glyph-name="I" unicode="I" horiz-adv-x="598" 
d="M30 1530l0.00292969 52.999c0 20.667 11 31 33 31h479c18 0 29.667 -2.33301 35 -7s8 -18.667 8 -42c0 -35.333 -1.83301 -57.333 -5.5 -66s-11.834 -14 -24.501 -16c-41.333 -7.33301 -62 -33.666 -62 -78.999v-1202c0 -25.333 15 -45.333 45 -60
c19.333 -9.33301 31 -17.666 35 -24.999s6 -20 6 -38v-39c0 -21.333 -2 -33.333 -6 -36s-14.333 -4 -31 -4h-488c-18.667 0 -28 7.33301 -28 22c0 48 1.66699 77.333 5 88s15 19 35 25c36 10 54 29 54 57v1187c0 28 -3.33301 49.167 -10 63.5s-21.334 26.166 -44.001 35.499
c-16.667 7.33301 -26.834 13.833 -30.501 19.5s-5.5 16.5 -5.5 32.5z" />
    <glyph glyph-name="J" unicode="J" horiz-adv-x="619" 
d="M74 1614l477.001 -0.00195312c18.667 0 30.834 -2.66699 36.501 -8s8.5 -20.333 8.5 -45c0 -32 -2.5 -52.167 -7.5 -60.5s-16.167 -15.166 -33.5 -20.499c-20 -6 -32.167 -13 -36.5 -21s-6.5 -25.333 -6.5 -52v-1101c0 -153.333 -41.333 -284.5 -124 -393.5
s-210.334 -163.5 -383.001 -163.5c-32.667 0 -52.334 2.5 -59.001 7.5s-10 15.833 -10 32.5v38c0 15.333 1.5 25.333 4.5 30s12.5 7.66699 28.5 9c113.333 10 170 100.667 170 272v1223c0 48.667 -4.5 79.834 -13.5 93.501s-25.5 24.167 -49.5 31.5s-36 23.333 -36 48
c0 41.333 1.5 65 4.5 71s12.833 9 29.5 9z" />
    <glyph glyph-name="K" unicode="K" horiz-adv-x="1089" 
d="M742 1160l259.002 -954.998c8.66699 -32.667 25.334 -55 50.001 -67c16 -8 24 -26 24 -54c0 -3.33301 -1 -23.333 -3 -60c-2 -16 -16 -24 -42 -24h-398c-14.667 0 -24.334 2.66699 -29.001 8s-7 20 -7 44c0 4 0.666992 21.333 2 52c2 12 10 20.667 24 26
c21.333 7.33301 32 19.666 32 36.999c0 4.66699 -0.666992 10.334 -2 17.001l-140 504l-34 -75v-408c0 -34 15 -60 45 -78c12.667 -7.33301 19 -24 19 -50c0 -30.667 -2.66699 -51.167 -8 -61.5s-18.333 -15.5 -39 -15.5h-419c-15.333 0 -26 3.16699 -32 9.5
s-9 24.166 -9 53.499s2.33301 47.833 7 55.5s13.667 14.5 27 20.5c24.667 10 37 28 37 54v1201c0 30 -12 52.333 -36 67c-16 10 -25.667 18.167 -29 24.5s-5 19.5 -5 39.5c0 45.333 1.66699 71.5 5 78.5s13 10.5 29 10.5h456c21.333 0 32 -8.66699 32 -26
c0 -54 -1 -85.167 -3 -93.5s-11.667 -17.5 -29 -27.5c-32 -16.667 -48 -38 -48 -64v-513l218 495c12 27.333 18 48 18 62c0 8.66699 -8 19 -24 31c-17.333 12 -27.833 22.333 -31.5 31s-5.5 30.667 -5.5 66c0 26 9.66699 39 29 39h265c15.333 0 24.666 -3 27.999 -9
s5 -23.333 5 -52c0 -30.667 -2.16699 -49.334 -6.5 -56.001s-17.833 -14.667 -40.5 -24c-17.333 -6.66699 -28.333 -12 -33 -16s-10.334 -12.667 -17.001 -26z" />
    <glyph glyph-name="L" unicode="L" horiz-adv-x="832" 
d="M484 113l57.002 -0.00390625c29.333 0 51 11.667 65 35s32.333 77.333 55 162c8 32.667 17.667 52.5 29 59.5s30.666 10.5 57.999 10.5c30 0 49.333 -2.5 58 -7.5s13 -14.167 13 -27.5c0 -9.33301 -1.66699 -24.333 -5 -45l-35 -239c-4 -24.667 -9.16699 -41 -15.5 -49
s-19.166 -12 -38.499 -12h-658c-28 0 -42 17.333 -42 52c0 26.667 1.83301 43.834 5.5 51.501s11.5 13.5 23.5 17.5c38 12 57 47 57 105v1188c0 24.667 -12 42.334 -36 53.001c-20.667 8.66699 -33.334 18.334 -38.001 29.001s-7 28.334 -7 53.001c0 29.333 2 47.5 6 54.5
s14.667 10.5 32 10.5h461c17.333 0 29.166 -4.16699 35.499 -12.5s9.5 -30.833 9.5 -67.5c0 -22 -2.16699 -36.833 -6.5 -44.5s-15.5 -14.5 -33.5 -20.5c-33.333 -11.333 -50 -33.333 -50 -66v-1290z" />
    <glyph glyph-name="M" unicode="M" horiz-adv-x="1195" 
d="M766 1614l354 -0.00292969c24 0 39.667 -3.5 47 -10.5s11 -24.833 11 -53.5c0 -26 -2.5 -44.167 -7.5 -54.5s-17.167 -20.166 -36.5 -29.499c-17.333 -8 -28.333 -16.667 -33 -26s-7 -24.666 -7 -45.999v-1187c0 -17.333 2 -30 6 -38s15 -16.333 33 -25
c24.667 -12 37 -28.333 37 -49c0 -52 -1.66699 -80.833 -5 -86.5s-15 -8.5 -35 -8.5h-446c-19.333 0 -29 16.333 -29 49c0 28 1 48.833 3 62.5s14.333 24.834 37 33.501c25.333 10 38 27.667 38 53v842l-180 -680h-110l-177 659v-818c0 -26.667 12 -46.334 36 -59.001
c29.333 -14.667 44 -40.667 44 -78c0 -42.667 -14.667 -64 -44 -64h-217c-24.667 0 -37 20.333 -37 61c0 28.667 10.333 50.667 31 66c15.333 12.667 25 22.834 29 30.501s6 21.167 6 40.5v1155c0 32 -2.83301 56.5 -8.5 73.5s-17.834 30.833 -36.501 41.5
c-20 10.667 -30 21.667 -30 33l1 43c0.666992 31.333 2.83398 50.833 6.50098 58.5s12.5 11.5 26.5 11.5h370l160 -618z" />
    <glyph glyph-name="N" unicode="N" horiz-adv-x="939" 
d="M278 915l-0.000976562 -705.996c0 -29.333 16.667 -51.333 50 -66c28 -12.667 42 -30.667 42 -54c0 -48.667 -1.16699 -75.667 -3.5 -81s-12.166 -8 -29.499 -8h-266c-13.333 0 -21.666 5.16699 -24.999 15.5s-5 35.833 -5 76.5c0 18.667 9 31.667 27 39
c34.667 15.333 52 32.666 52 51.999v1182c0 28.667 -2.66699 50.167 -8 64.5s-17.333 26.166 -36 35.499c-16.667 8 -27.834 16.667 -33.501 26s-8.5 27 -8.5 53c0 46.667 12.333 70 37 70h278l336 -779v574c0 32 -16.333 54.667 -49 68
c-19.333 8.66699 -31.833 18.5 -37.5 29.5s-8.5 32.5 -8.5 64.5c0 20 2 32.167 6 36.5s11.667 6.5 23 6.5h276c15.333 -2 23 -24 23 -66c0 -24.667 -1.5 -40.334 -4.5 -47.001s-9.83301 -12.334 -20.5 -17.001c-23.333 -9.33301 -38 -18.333 -44 -27s-9 -20.667 -9 -36
v-1421h-170z" />
    <glyph glyph-name="O" unicode="O" horiz-adv-x="1109" 
d="M556 1641c98 0 182.834 -32.833 254.501 -98.5s130.167 -159.167 175.5 -280.5s68 -277 68 -467c0 -228 -44.167 -420.5 -132.5 -577.5s-212.833 -235.5 -373.5 -235.5c-152.667 0 -273 76.667 -361 230s-132 351.333 -132 594c0 248.667 45.167 450 135.5 604
s212.166 231 365.499 231zM635.001 1404c0 83.333 -27 125 -81 125c-22.667 0 -42 -10.333 -58 -31s-24 -46 -24 -76v-1207c0 -40.667 8 -71.5 24 -92.5s35 -31.5 57 -31.5c24.667 0 44.5 11.667 59.5 35s22.5 49.333 22.5 78v1200z" />
    <glyph glyph-name="P" unicode="P" horiz-adv-x="1109" 
d="M489 550l0.00390625 -332.998c0 -38.667 16.667 -64 50 -76c16 -6 27.167 -14.167 33.5 -24.5s9.5 -29.5 9.5 -57.5c0 -26.667 -3.66699 -43.167 -11 -49.5s-22 -9.5 -44 -9.5h-453c-24 0 -36 21 -36 63c0 33.333 1.66699 53.833 5 61.5s14.666 14.5 33.999 20.5
c17.333 5.33301 28.166 11.166 32.499 17.499s6.5 17.166 6.5 32.499v1208c0 28.667 -17.667 51.667 -53 69c-18.667 10 -28.334 25.333 -29.001 46l-1 47c0 20 2.5 33.167 7.5 39.5s16.167 9.5 33.5 9.5h512c147.333 0 264.833 -47.167 352.5 -141.5
s131.5 -224.833 131.5 -391.5c0 -94 -13.5 -177.667 -40.5 -251s-61 -127.333 -102 -162s-88.333 -63 -142 -85s-110.834 -33 -171.501 -33h-125zM489.004 1503v-837.999h70c24 0 45.5 13.167 64.5 39.5s28.5 70.166 28.5 131.499v499c0 112 -37.333 168 -112 168h-51z" />
    <glyph glyph-name="Q" unicode="Q" horiz-adv-x="1109" 
d="M733 23c-59.333 -27.333 -119.668 -40.998 -181.001 -40.998c-151.333 0 -272.166 77.333 -362.499 232s-135.5 351 -135.5 589c0 246.667 45 448 135 604s213.333 234 370 234c146 0 265.333 -75 358 -225s139 -359 139 -627c0 -232.667 -47.333 -428.334 -142 -587.001
c38 -44.667 79.667 -74.334 125 -89.001c18 -6 28.5 -13.167 31.5 -21.5s4.5 -53.833 4.5 -136.5c0 -31.333 0.333008 -51 1 -59c0.666992 -10 1 -19.667 1 -29c0 -60.667 -28 -91 -84 -91c-30.667 0 -65.167 12.833 -103.5 38.5s-90.5 95.167 -156.5 208.5z
M632.998 378.002l0.000976562 1042c0 30 -7.66699 55.333 -23 76s-34.333 31 -57 31c-25.333 0 -44.833 -10.667 -58.5 -32s-20.5 -46.333 -20.5 -75v-1219c0 -29.333 7.66699 -54.666 23 -75.999s33.333 -32 54 -32c21.333 0 39.833 9.83301 55.5 29.5
s23.5 38.167 23.5 55.5c0 30.667 -27.333 66.667 -82 108c-15.333 11.333 -23 28 -23 50l-1 27c0 27.333 10 41 30 41c9.33301 0 35.666 -8.66699 78.999 -26z" />
    <glyph glyph-name="R" unicode="R" horiz-adv-x="1109" 
d="M492 710v-495.998c0 -23.333 1.5 -39 4.5 -47s11.5 -16.333 25.5 -25c18 -11.333 27 -30.333 27 -57c0 -38.667 -3.5 -62.5 -10.5 -71.5s-19.833 -13.5 -38.5 -13.5h-423c-24 0 -36 17.333 -36 52c0 33.333 1 54.833 3 64.5s8.66699 16.5 20 20.5
c36.667 14.667 55 43.334 55 86.001v1171c0 43.333 -16 69.666 -48 78.999c-16 5.33301 -26 10.666 -30 15.999s-6 21 -6 47c0 52 14 78 42 78h553c110 0 208.167 -41.333 294.5 -124s129.5 -193.667 129.5 -333c0 -198 -101 -327.333 -303 -388
c184.667 -40.667 277 -157.667 277 -351v-238c0 -20 7.66699 -35 23 -45c18 -12 27 -30.333 27 -55c0 -38.667 -2.33301 -61.667 -7 -69s-17 -11 -37 -11h-268c-32 0 -58.333 18.167 -79 54.5s-31 81.166 -31 134.499v403c0 78.667 -39.667 118 -119 118h-45zM492 1500v-674
h65c66 0 99 66.333 99 199v322c0 56 -10.5 95.5 -31.5 118.5s-53.833 34.5 -98.5 34.5h-34z" />
    <glyph glyph-name="S" unicode="S" horiz-adv-x="768" 
d="M498 1571c4 3.33301 15.333 18.332 34 44.999c12 17.333 28 26 48 26c4.66699 0 23.334 -2.33301 56.001 -7c6.66699 -6.66699 11.667 -20.667 15 -42l54 -339c2.66699 -18 4 -28.667 4 -32c0 -12.667 -3.5 -21 -10.5 -25s-25.5 -6 -55.5 -6c-34 0 -56 4.33301 -66 13
s-29 44.667 -57 108c-59.333 134 -112.333 201 -159 201c-33.333 0 -50 -23.333 -50 -70c0 -58 50.333 -172 151 -342c115.333 -196 190.5 -337.833 225.5 -425.5s52.5 -185.834 52.5 -294.501c0 -128.667 -30.333 -227.334 -91 -296.001s-129 -103 -205 -103
c-48 0 -94.333 13.667 -139 41c-17.333 10.667 -31 16 -41 16c-8.66699 0 -15.667 -6.33301 -21 -19c-10.667 -25.333 -36.667 -38 -78 -38c-16 0 -26.833 2.5 -32.5 7.5s-9.83398 18.167 -12.501 39.5l-50 333c-6.66699 42.667 -10 65.334 -10 68.001
c0 19.333 17.667 29 53 29c48 0 76.333 -6.33301 85 -19s21 -41.667 37 -87c58.667 -162 117.667 -243 177 -243c22 0 39.833 8 53.5 24s20.5 36 20.5 60c0 42 -15.167 91.833 -45.5 149.5s-67.5 121.834 -111.5 192.501c-105.333 169.333 -179.833 304.5 -223.5 405.5
s-65.5 204.167 -65.5 309.5c0 118.667 26 213.334 78 284.001s115.667 106 191 106c52 0 115 -23.333 189 -70z" />
    <glyph glyph-name="T" unicode="T" horiz-adv-x="960" 
d="M297 1502h-44.998c-14.667 0 -26.667 -9.83301 -36 -29.5s-19 -72.834 -29 -159.501c-4.66699 -38 -12 -61.833 -22 -71.5s-30 -14.5 -60 -14.5c-28.667 0 -47.167 3.5 -55.5 10.5s-12.5 20.833 -12.5 41.5c0 12 0.333008 24 1 36l12 233
c1.33301 27.333 6 45.166 14 53.499s28 12.5 60 12.5h733c21.333 0 34.333 -2.66699 39 -8s8.33398 -24.666 11.001 -57.999l17 -206c1.33301 -16 2 -32.333 2 -49c0 -20 -2.5 -35.333 -7.5 -46s-20.833 -16 -47.5 -16c-34 0 -55.833 3.33301 -65.5 10
s-17.5 27.667 -23.5 63c-10.667 58 -22.334 105.5 -35.001 142.5s-28.334 55.5 -47.001 55.5h-30v-1284c0 -36.667 16 -62 48 -76c13.333 -6 22.166 -13.167 26.499 -21.5s6.5 -25.833 6.5 -52.5c0 -34 -3 -53.833 -9 -59.5s-19.667 -8.5 -41 -8.5h-440
c-17.333 0 -28.5 3.33301 -33.5 10s-7.5 25.667 -7.5 57c0 37.333 10.333 60 31 68c20 8 32.667 15.833 38 23.5s8 20.834 8 39.501v1304z" />
    <glyph glyph-name="U" unicode="U" horiz-adv-x="896" 
d="M71 1614l433.002 0.000976562c14.667 0 24 -3.16699 28 -9.5s6 -25.833 6 -58.5s-9.66699 -54.334 -29 -65.001c-14.667 -8 -24.5 -16.333 -29.5 -25s-7.5 -25.334 -7.5 -50.001v-1120c0 -30.667 8.66699 -55.5 26 -74.5s39.333 -28.5 66 -28.5
c24.667 0 45.667 10.667 63 32s26 45 26 71v1120c0 19.333 -1.83301 32.833 -5.5 40.5s-12.834 17.167 -27.501 28.5c-22.667 17.333 -34 44 -34 80c0 28 3.16699 44.833 9.5 50.5s15.5 8.5 27.5 8.5h216c24 0 36 -12 36 -36v-48c0 -21.333 -1.33301 -34.833 -4 -40.5
s-10.334 -10.834 -23.001 -15.501c-31.333 -10.667 -47 -32.334 -47 -65.001v-1091c0 -103.333 -29.667 -185.166 -89 -245.499s-142 -90.5 -248 -90.5c-118.667 0 -209.167 32 -271.5 96s-93.5 156.333 -93.5 277v1054c0 28 -14.667 48.667 -44 62
c-14.667 6.66699 -23.5 12.834 -26.5 18.501s-4.5 17.834 -4.5 36.501c0 38.667 2.33301 63 7 73s18 15 40 15z" />
    <glyph glyph-name="V" unicode="V" 
d="M597 629l153.003 770.997c1.33301 6.66699 2 13.667 2 21c0 26.667 -17 48 -51 64c-21.333 10.667 -32 21 -32 31c0 4.66699 0.333008 9.33398 1 14.001v16c0 30 1.5 48.833 4.5 56.5s11.167 11.5 24.5 11.5h248c11.333 0 18.166 -3.16699 20.499 -9.5
s3.5 -22.833 3.5 -49.5c0 -31.333 -0.666992 -50.666 -2 -57.999s-6 -13.333 -14 -18c-20 -13.333 -32.667 -24.833 -38 -34.5s-12 -34.167 -20 -73.5l-260 -1299l-16 -79c-1.33301 -7.33301 -8.33301 -11 -21 -11h-201c-8.66699 0 -15.334 4 -20.001 12
s-11.334 34 -20.001 78l-261 1328c-6 33.333 -22 57.666 -48 72.999c-13.333 8 -21.5 14.167 -24.5 18.5s-4.5 13.5 -4.5 27.5c0 4.66699 0.333008 9.33398 1 14.001c0.666992 7.33301 1 14.333 1 21c0 4.66699 -0.333008 9 -1 13v14c0 22 8 33 24 33h454
c15.333 0 23 -14 23 -42c0 -0.666992 -0.666992 -20 -2 -58c-1.33301 -8.66699 -8.33301 -16 -21 -22c-29.333 -14 -44 -36.333 -44 -67c0 -7.33301 1 -15.666 3 -24.999z" />
    <glyph glyph-name="W" unicode="W" horiz-adv-x="1451" 
d="M664 1141l-45.998 259.999c-4 24.667 -17 48.334 -39 71.001c-14.667 14.667 -22 28.667 -22 42v70c0 20 9.66699 30 29 30h410c13.333 0 21.833 -3.33301 25.5 -10s5.5 -21.667 5.5 -45c0 -35.333 -1.83301 -56.5 -5.5 -63.5s-12.167 -14.167 -25.5 -21.5
c-20 -10.667 -30 -21.334 -30 -32.001c0 -14 2.66699 -34.667 8 -62l114 -640l119 661c0.666992 6.66699 1 13.667 1 21c0 30.667 -17 54 -51 70c-17.333 8 -26.333 30.667 -27 68c0 10 -0.333008 17 -1 21v9c0 16 12 24 36 24h230c16 0 26.333 -2.83301 31 -8.5
s7 -17.834 7 -36.501c0 -6 -0.333008 -12 -1 -18l-3 -39c-2.66699 -15.333 -13.334 -29 -32.001 -41s-30.667 -32.333 -36 -61l-241 -1320c-9.33301 -52 -17 -83 -23 -93s-17 -15 -33 -15h-168c-18 0 -29.333 19 -34 57c-0.666992 7.33301 -1.33398 13 -2.00098 17l-127 705
l-126 -717c-4.66699 -28.667 -9.66699 -46.167 -15 -52.5s-14 -9.5 -26 -9.5h-175c-20 0 -34.333 35 -43 105c-1.33301 12.667 -2.66602 22.334 -3.99902 29.001l-239 1294c-5.33301 27.333 -19.333 47.333 -42 60c-18.667 10 -28 24.667 -28 44v77
c0 15.333 9.33301 23 28 23h396c13.333 0 22.666 -3.5 27.999 -10.5s8 -23.167 8 -48.5c0 -28.667 -1 -46.667 -3 -54s-8.33301 -15.666 -19 -24.999c-13.333 -12.667 -20 -25.667 -20 -39c0 -15.333 2 -34.333 6 -57l127 -677z" />
    <glyph glyph-name="X" unicode="X" 
d="M546 1138l81.001 170.001c39.333 80.667 59 129 59 145c0 14 -10 25 -30 33c-17.333 7.33301 -26 25.333 -26 54c0 32 1.5 52.333 4.5 61s11.5 13 25.5 13h232c16.667 0 25 -9 25 -27v-71c0 -13.333 -9.33301 -26 -28 -38s-30.334 -23 -35.001 -33l-240 -506l255 -728
c8 -21.333 13.833 -35 17.5 -41s12.167 -12.667 25.5 -20c16 -8.66699 26.333 -16.834 31 -24.501s7 -21.834 7 -42.501c0 -30 -2.5 -51.333 -7.5 -64s-15.5 -19 -31.5 -19h-423c-21.333 0 -32 9.33301 -32 28v64c0 20 9.33301 35.333 28 46c21.333 12.667 32 26.667 32 42
c0 19.333 -4.33301 41 -13 65l-93 254l-121 -254c-16.667 -34 -25 -58.667 -25 -74c0 -12.667 12.333 -26.667 37 -42c5.33301 -3.33301 9.83301 -7.16602 13.5 -11.499s5.5 -23.5 5.5 -57.5c0 -29.333 -1.5 -46.666 -4.5 -51.999s-10.833 -8 -23.5 -8h-241
c-20.667 0 -31 9.33301 -31 28v74c0 11.333 11 23 33 35c18 9.33301 31.5 20.333 40.5 33s22.167 37.667 39.5 75l209 451l-253 727c-8.66699 26 -25.667 49.333 -51 70c-12 9.33301 -18 19 -18 29v61c0 20.667 13 31 39 31h419c16.667 0 25 -9.66699 25 -29v-69
c0 -18 -9.66699 -30.667 -29 -38c-20.667 -8 -31 -18.333 -31 -31c0 -16.667 5.33301 -39.334 16 -68.001z" />
    <glyph glyph-name="Y" unicode="Y" 
d="M683 723l-0.000976562 -523.999c0 -26.667 17 -46 51 -58c14.667 -5.33301 24.834 -10.833 30.501 -16.5s8.5 -29.167 8.5 -70.5c0 -25.333 -2.66699 -40.666 -8 -45.999s-16 -8 -32 -8h-474c-23.333 0 -35 10.333 -35 31v59c0 24.667 15.333 42 46 52
c16 5.33301 26.667 11.833 32 19.5s8 22.167 8 43.5v492l-201 711c-10 35.333 -28.667 58.666 -56 69.999c-14.667 6.66699 -22 17.667 -22 33v76c0 18 9.66699 27 29 27h424c12 0 20 -3.33301 24 -10s6 -24.334 6 -53.001s-1.16699 -46.834 -3.5 -54.501
s-8.83301 -14.5 -19.5 -20.5c-15.333 -10 -23 -22.667 -23 -38c0 -8.66699 1.66699 -18.667 5 -30l131 -446l135 446c0.666992 4 1 10.333 1 19c0 21.333 -13 43.333 -39 66c-12 10.667 -18 20.334 -18 29.001v59c0 22 9.66699 33 29 33h219c20 0 30 -11 30 -33v-63
c0 -11.333 -7.33301 -22.333 -22 -33c-25.333 -18 -43 -43.667 -53 -77z" />
    <glyph glyph-name="Z" unicode="Z" horiz-adv-x="789" 
d="M110 1614h629.002c14 0 21 -4.33301 21 -13c0 -3.33301 -0.333008 -7 -1 -11c-0.666992 -2 -2.33398 -8 -5.00098 -18l-325 -1455h61c34 0 59 12.167 75 36.5s30.667 68.5 44 132.5c6.66699 34.667 15 56.667 25 66s28.333 14 55 14c34.667 0 55.167 -1.5 61.5 -4.5
s9.5 -9.5 9.5 -19.5c0 -2.66699 -2 -15.667 -6 -39l-46 -303h-650c-13.333 -0 -20 3.33301 -20 10c0 10 2.66699 25 8 45l342 1447h-69c-42.667 0 -76.334 -52.667 -101.001 -158c-9.33301 -40 -20 -64.5 -32 -73.5s-33.667 -13.5 -65 -13.5
c-25.333 0 -41.5 1.16699 -48.5 3.5s-10.5 8.83301 -10.5 19.5c0 5.33301 1.33301 17 4 35z" />
    <glyph glyph-name="bracketleft" unicode="[" horiz-adv-x="533" 
d="M472 -230l-338.998 0.00292969c-19.333 0 -31.666 3.33301 -36.999 10s-8 20.667 -8 42v1730c0 27.333 3.16699 44.5 9.5 51.5s18.166 10.5 35.499 10.5h327c23.333 0 37.666 -3.5 42.999 -10.5s8 -27.833 8 -62.5c0 -20.667 -2.33301 -33.334 -7 -38.001
s-16.334 -8 -35.001 -10c-17.333 -2.66699 -28.333 -6.66699 -33 -12s-7 -19 -7 -41v-1501c0 -16.667 2.16699 -27.834 6.5 -33.501s14.833 -9.83398 31.5 -12.501c26 -4.66699 39 -16 39 -34c0 -46.667 -1.5 -73.167 -4.5 -79.5s-12.833 -9.5 -29.5 -9.5z" />
    <glyph glyph-name="backslash" unicode="\" horiz-adv-x="1045" 
d="M31 1641h232l752 -1659h-232z" />
    <glyph glyph-name="bracketright" unicode="]" horiz-adv-x="533" 
d="M61 1614l339.998 -0.000976562c19.333 0 31.666 -3.33301 36.999 -10s8 -20.667 8 -42v-1731c0 -26.667 -3.16699 -43.5 -9.5 -50.5s-18.166 -10.5 -35.499 -10.5h-328c-23.333 0 -37.5 3.5 -42.5 10.5s-7.5 27.833 -7.5 62.5c0 20.667 2.16699 33.167 6.5 37.5
s15.833 7.83301 34.5 10.5c18 2.66699 29.333 6.66699 34 12s7 19 7 41v1500c0 17.333 -2.16699 28.833 -6.5 34.5s-15.166 9.83398 -32.499 12.501c-25.333 4 -38 15.333 -38 34c0 46.667 1.33301 73.167 4 79.5s12.334 9.5 29.001 9.5z" />
    <glyph glyph-name="asciicircum" unicode="^" horiz-adv-x="1003" 
d="M260 813h-185l353 801h145l355 -801h-181l-247 597z" />
    <glyph glyph-name="underscore" unicode="_" horiz-adv-x="1024" 
d="M-12 -154h1048v-102h-1048v102z" />
    <glyph glyph-name="grave" unicode="`" horiz-adv-x="683" 
d="M417 1492l-287 163.998c-36.667 20.667 -55 38.334 -55 53.001c0 16.667 31.333 25 94 25c10 0 20.333 -0.333008 31 -1h47c41.333 0 68.833 -2.16699 82.5 -6.5s27.167 -17.166 40.5 -38.499l131 -196h-84z" />
    <glyph glyph-name="a" unicode="a" 
d="M563 969l-0.00292969 193.001c0 53.333 -21.667 80 -65 80c-59.333 0 -89 -40.333 -89 -121c0 -45.333 -5.16699 -77.666 -15.5 -96.999s-33.666 -35.833 -69.999 -49.5s-75.166 -20.5 -116.499 -20.5c-84.667 0 -127 45.333 -127 136c0 85.333 36.833 155 110.5 209
s169.834 81 288.501 81c78 0 148.167 -10.667 210.5 -32s112.166 -57.333 149.499 -108s56 -106.334 56 -167.001v-913c1.33301 -4.66699 11.333 -14.667 30 -30c13.333 -10 20 -24.667 20 -44c0 -26.667 -3.66699 -45.5 -11 -56.5s-25.166 -21.167 -53.499 -30.5
s-63.833 -14 -106.5 -14c-52 0 -95.333 9.5 -130 28.5s-61.667 56.167 -81 111.5c-58 -60 -105 -98.333 -141 -115s-73 -25 -111 -25c-84.667 0 -150.167 33.167 -196.5 99.5s-69.5 174.833 -69.5 325.5s21.667 255.167 65 313.5s128 112.166 254 161.499
c80 30.667 146.333 58.667 199 84zM562.997 839.001c-75.333 -33.333 -120.333 -70.834 -135 -112.501s-22 -135.5 -22 -281.5c0 -107.333 6 -175.166 18 -203.499s32.667 -42.5 62 -42.5c51.333 0 77 42.667 77 128v512z" />
    <glyph glyph-name="b" unicode="b" horiz-adv-x="1003" 
d="M439 92l-0.000976562 -54.001c0 -25.333 -11.667 -38 -35 -38h-335c-15.333 0 -23 8.33301 -23 25v67c0 8.66699 7.33301 16.334 22 23.001c26.667 12.667 40 34 40 64v1262c0 34 -14 54 -42 60c-13.333 2.66699 -20 12 -20 28v51c0 14 2 23.167 6 27.5
s13.667 6.5 29 6.5h323c23.333 0 35 -11.333 35 -34v-303c66 68.667 136 103 210 103c86.667 0 159.5 -47.833 218.5 -143.5s88.5 -285.5 88.5 -569.5c0 -268.667 -29.667 -449.5 -89 -542.5s-131.666 -139.5 -216.999 -139.5c-68 0 -138.333 35.667 -211 107zM586.999 1065
c0 83.333 -22.334 125 -67.001 125c-24 0 -43.5 -6 -58.5 -18s-22.5 -26.333 -22.5 -43v-900c0 -15.333 6.83301 -28.333 20.5 -39s30.167 -16 49.5 -16c24.667 0 43.834 12.5 57.501 37.5s20.5 55.5 20.5 91.5v762z" />
    <glyph glyph-name="c" unicode="c" horiz-adv-x="789" 
d="M423 1184l0.00292969 -969.003c0 -23.333 6.83301 -44.166 20.5 -62.499s32.834 -27.5 57.501 -27.5c33.333 0 59.166 20.5 77.499 61.5s27.5 94.167 27.5 159.5l-1 28c0 35.333 6.5 56.333 19.5 63s35.167 10 66.5 10c27.333 0 46 -5 56 -15s15 -31 15 -63
c0 -103.333 -27 -193.166 -81 -269.499s-130.667 -114.5 -230 -114.5c-116.667 0 -212.334 58.667 -287.001 176s-112 283.666 -112 498.999c0 161.333 19 295.5 57 402.5s84.167 186.667 138.5 239s122.166 78.5 203.499 78.5c96.667 0 173.167 -32.167 229.5 -96.5
s84.5 -138.833 84.5 -223.5c0 -44 -9.33301 -81.333 -28 -112s-47 -46 -85 -46c-39.333 0 -69.5 14.667 -90.5 44s-31.5 66 -31.5 110c0 18.667 2 40.334 6 65.001c5.33301 28.667 8 51.334 8 68.001c0 17.333 -6.33301 32 -19 44s-27.334 18 -44.001 18
c-16 0 -29.667 -7 -41 -21s-17 -29.333 -17 -46z" />
    <glyph glyph-name="d" unicode="d" horiz-adv-x="1003" 
d="M572 1275v174.999c0 29.333 -12 45 -36 47c-12.667 0.666992 -21 3.83398 -25 9.50098s-6 17.167 -6 34.5v39c0 15.333 2.16699 24.833 6.5 28.5s14.5 5.5 30.5 5.5h319c18 0 29.5 -3 34.5 -9s7.5 -19.667 7.5 -41v-1390c0 -29.333 15.333 -49 46 -59
c16 -4.66699 24 -15 24 -31v-51c0 -22 -9.66699 -33 -29 -33h-349c-11.333 0 -18.166 2.16699 -20.499 6.5s-3.5 22.166 -3.5 53.499c0 6 0.333008 15 1 27c-72.667 -67.333 -140.334 -101 -203.001 -101c-211.333 0 -317 215.667 -317 647
c0 306.667 28.167 507.834 84.5 603.501s129.833 143.5 220.5 143.5c69.333 0 141 -35 215 -105zM572 1162c-30.667 18.667 -55.667 28 -75 28c-22 0 -39.833 -10.5 -53.5 -31.5s-20.5 -44.5 -20.5 -70.5v-826c0 -24.667 6.33301 -45.5 19 -62.5s28.667 -25.5 48 -25.5
c18 0 36.167 7.83301 54.5 23.5s27.5 30.5 27.5 44.5v920z" />
    <glyph glyph-name="e" unicode="e" horiz-adv-x="917" 
d="M421 703v-409.001c0 -54 10.5 -96.333 31.5 -127s47.833 -46 80.5 -46c50.667 0 91.167 21.5 121.5 64.5s46.5 101.833 48.5 176.5c0.666992 40 4.5 64 11.5 72s31.167 12 72.5 12c36 0 58.833 -3.66699 68.5 -11s14.5 -25.666 14.5 -54.999
c0 -102.667 -33.333 -194 -100 -274s-155 -120 -265 -120c-126 0 -233 57.167 -321 171.5s-132 286.5 -132 516.5s40.667 405.167 122 525.5s188 180.5 320 180.5c113.333 0 204.333 -50.667 273 -152s103 -245.333 103 -432v-93h-449zM556 827.999v331
c0 62.667 -22.333 94 -67 94c-45.333 0 -68 -31.333 -68 -94v-331h135z" />
    <glyph glyph-name="f" unicode="f" horiz-adv-x="555" 
d="M111 1366v63.9961c0 60.667 21.667 112.5 65 155.5s105.666 64.5 186.999 64.5c110 0 165 -38.333 165 -115c0 -37.333 -10.333 -63.666 -31 -78.999s-40.667 -23 -60 -23c-21.333 0 -47.666 10 -78.999 30c-30.667 18.667 -52.667 28 -66 28
c-15.333 0 -28 -6.16699 -38 -18.5s-15 -25.166 -15 -38.499c0 -18.667 7.33301 -34.667 22 -48s28.667 -20 42 -20h170c22.667 0 34 -11.333 34 -34v-59c0 -18 -7.66699 -31.333 -23 -40c-27.333 -16 -41 -45 -41 -87v-980c0 -14 11.333 -27 34 -39
c10.667 -6 17 -12.167 19 -18.5s3 -20.166 3 -41.499c0 -32 -0.833008 -51.167 -2.5 -57.5s-9.5 -9.5 -23.5 -9.5h-395c-17.333 0 -26 9 -26 27v67c0 19.333 8 32 24 38c23.333 8.66699 35 32.334 35 71.001v962c0 25.333 -12 46.666 -36 63.999
c-15.333 10.667 -23 25.334 -23 44.001v59c0 22.667 8.66699 34 26 34h33z" />
    <glyph glyph-name="g" unicode="g" 
d="M617 1366c22 22 33 39.334 33 52.001c0 18 -13.333 34.667 -40 50c-36 21.333 -54 47.333 -54 78c0 62 42.667 93 128 93c52 0 90 -10.667 114 -32s36 -47.333 36 -78c0 -58.667 -43.333 -127.667 -130 -207c147.333 -104.667 221 -247.667 221 -429
c0 -155.333 -42.5 -278.333 -127.5 -369s-183.167 -136 -294.5 -136c-34.667 0 -72.667 5.66699 -114 17c-22.667 5.33301 -39.667 8 -51 8c-21.333 0 -43.833 -8 -67.5 -24s-35.5 -33.333 -35.5 -52c0 -32.667 36.333 -49 109 -49h273c97.333 0 177 -20 239 -60
s93 -104.333 93 -193c0 -188 -160 -282 -480 -282c-123.333 0 -222.5 12.333 -297.5 37s-112.5 63.667 -112.5 117c0 28.667 7.66699 51.167 23 67.5s42.333 34.166 81 53.499l24 12c-91.333 40 -137 106.333 -137 199c0 104.667 65.333 183 196 235
c-123.333 97.333 -185 229.333 -185 396c0 148.667 41.833 271.167 125.5 367.5s185.167 144.5 304.5 144.5c34 0 76 -5.33301 126 -16zM566 1115c0 86.667 -24 129.998 -72 129.998c-24 0 -43 -13.833 -57 -41.5s-21 -57.167 -21 -88.5v-497
c0 -27.333 6.83301 -50.166 20.5 -68.499s31.167 -27.5 52.5 -27.5c22.667 0 41.167 9.83301 55.5 29.5s21.5 44.834 21.5 75.501v488zM318 4.99902c-43.333 -17.333 -65 -38.667 -65 -64s15.5 -44.333 46.5 -57s95.167 -19 192.5 -19c168 0 252 29.333 252 88
c0 33.333 -28.333 50 -85 50h-277c-22 0 -43.333 0.666992 -64 2z" />
    <glyph glyph-name="h" unicode="h" horiz-adv-x="1003" 
d="M438 1238c102 94.667 191.667 142.002 269 142.002c57.333 0 107.333 -21.333 150 -64s64 -99 64 -169v-954c0 -24.667 7 -42.334 21 -53.001c20 -15.333 30 -37.333 30 -66c0 -32 -2.33301 -52.333 -7 -61s-15.334 -13 -32.001 -13h-255c-22 0 -42.333 16 -61 48
s-28 70 -28 114v931c0 17.333 -5.83301 33.166 -17.5 47.499s-25.5 21.5 -41.5 21.5c-25.333 0 -56 -15.333 -92 -46v-923c0 -22 9 -41.667 27 -59c18 -18 27 -33.333 27 -46c0 -46 -1.33301 -72.167 -4 -78.5s-15.667 -9.5 -39 -9.5h-362
c-15.333 0 -25.666 3.16699 -30.999 9.5s-8 21.166 -8 44.499c0 28.667 1.5 46.834 4.5 54.501s11.167 16.5 24.5 26.5c19.333 14 29 33.333 29 58v1227c0 44.667 -14.333 69.667 -43 75c-15.333 3.33301 -23 12.333 -23 27v71c0 14 8.33301 21 25 21h336
c24.667 0 37 -12 37 -36v-340z" />
    <glyph glyph-name="i" unicode="i" horiz-adv-x="533" 
d="M327 1650c75.333 0 113 -25.333 113 -76c0 -40 -25.167 -73.833 -75.5 -101.5s-107.5 -41.5 -171.5 -41.5c-82.667 0 -124 27.667 -124 83c0 44 29 77.667 87 101s115 35 171 35zM47 1267v66.001c0 22 13.333 33 40 33h319c22.667 0 34 -11 34 -33v-1150
c0 -16 1 -26.333 3 -31s8 -9 18 -13c24 -9.33301 36 -30 36 -62c0 -36.667 -1.66699 -58.667 -5 -66s-14 -11 -32 -11h-388c-9.33301 1.33301 -15.333 5.5 -18 12.5s-4 25.5 -4 55.5c0 36 8.66699 57 26 63c21.333 7.33301 32 20.666 32 39.999v997
c0 38.667 -14.333 62 -43 70c-12 3.33301 -18 13 -18 29z" />
    <glyph glyph-name="j" unicode="j" horiz-adv-x="533" 
d="M310 1650c38.667 0 72.667 -7.33398 102 -22.001s44 -34.667 44 -60c0 -35.333 -23.833 -66.666 -71.5 -93.999s-100.5 -41 -158.5 -41c-100 0 -150 31 -150 93c0 33.333 24 62.333 72 87s102 37 162 37zM-19 -247.001l-0.000976562 87c0 10.667 1.5 18 4.5 22
s11.833 8 26.5 12c40.667 11.333 67 32.333 79 63s18 55.667 18 75v1144c0 39.333 -11 66 -33 80c-13.333 9.33301 -21.166 16.333 -23.499 21s-3.5 14 -3.5 28v59c1.33301 14.667 11 22 29 22h323c26 0 39 -13.667 39 -41v-1108c0 -97.333 -18.667 -181.333 -56 -252
s-89.5 -124.167 -156.5 -160.5s-149.167 -53.5 -246.5 -51.5z" />
    <glyph glyph-name="k" unicode="k" horiz-adv-x="1024" 
d="M437 439l-0.000976562 -267.999c0 -18 8.66699 -32 26 -42c13.333 -7.33301 20 -20.333 20 -39v-53c0 -24.667 -12.667 -37 -38 -37h-362c-24 0 -36 15 -36 45v47c0 11.333 9.66699 24.333 29 39c16 12.667 24.833 21.667 26.5 27s2.5 13.666 2.5 24.999v1197
c0 42.667 -13 73.334 -39 92.001c-8.66699 6.66699 -13.5 12.667 -14.5 18s-1.5 18.333 -1.5 39c0 43.333 0.833008 68.333 2.5 75s11.834 10 30.501 10h317c16.667 0 27 -2.5 31 -7.5s6 -17.167 6 -36.5v-867l184 421c12 26.667 18 44.667 18 54
c0 22 -15.667 39.333 -47 52c-14 5.33301 -23.333 12 -28 20s-7 24.333 -7 49c0 30.667 3 49.5 9 56.5s17.333 10.5 34 10.5h276c15.333 -2 23 -19.667 23 -53c0 -30 -2.83301 -50.333 -8.5 -61s-18.167 -21 -37.5 -31c-30 -14.667 -51 -34.334 -63 -59.001l-70 -148
l213 -822c6 -24.667 20 -44.334 42 -59.001c14.667 -9.33301 22 -23.666 22 -42.999v-53c0 -24.667 -13.667 -37 -41 -37h-269c-34 0 -56 22 -66 66l-114 512z" />
    <glyph glyph-name="l" unicode="l" horiz-adv-x="533" 
d="M45 1532l0.000976562 50c0 21.333 14 32 42 32h309c16.667 0 27.667 -1.33301 33 -4s8 -14 8 -34v-1397c0 -30.667 10 -49.667 30 -57c14 -5.33301 21 -16.666 21 -33.999v-57c0 -20.667 -15 -31 -45 -31h-367c-20.667 0 -31 10.333 -31 31v57
c0 23.333 10.333 40.666 31 51.999c13.333 6.66699 21.666 12.834 24.999 18.501s5 16.5 5 32.5v1239c0 23.333 -9 39 -27 47c-22.667 11.333 -34 29.666 -34 54.999z" />
    <glyph glyph-name="m" unicode="m" horiz-adv-x="1493" 
d="M915 1224c95.333 104 185 156.001 269 156.001c36.667 0 71.5 -7.66699 104.5 -23s59.833 -43.5 80.5 -84.5s31 -85.833 31 -134.5v-947c0 -17.333 7.33301 -34.333 22 -51c16.667 -18.667 25 -37.334 25 -56.001v-48c0 -24 -11 -36 -33 -36h-285
c-40 31.333 -60 80 -60 146v942c0 46 -22.333 69 -67 69c-28 0 -49.5 -7.16699 -64.5 -21.5s-22.5 -32.166 -22.5 -53.499v-903c0 -18.667 10 -36 30 -52c12 -10 18 -20.333 18 -31v-60c0 -24 -11.333 -36 -34 -36h-291c-36.667 36 -55 84.667 -55 146v942
c0 44 -18 66 -54 66c-14.667 0 -40 -9.66699 -76 -29c-3.33301 -2 -8.33301 -4.66699 -15 -8v-938c0 -18 10.333 -35 31 -51c13.333 -10 20 -22.667 20 -38v-54c0 -24 -12 -36 -36 -36h-376c-18 0 -27 8 -27 24v66c0 10 9 24.333 27 43c19.333 19.333 29 34.666 29 45.999
v1010c0 26.667 -11.667 45 -35 55c-14 6 -21 19 -21 39v51c0 21.333 13 32 39 32h314c23.333 0 35 -10.667 35 -32v-101c88 98 176.667 147 266 147c90 0 160.333 -52 211 -156z" />
    <glyph glyph-name="n" unicode="n" horiz-adv-x="1003" 
d="M431 1230c79.333 100 170 149.999 272 149.999c70 0 123.333 -22.5 160 -67.5s55 -101.5 55 -169.5v-958c0 -21.333 8.33301 -37.666 25 -48.999c15.333 -9.33301 23 -33.333 23 -72c0 -30.667 -2.5 -49 -7.5 -55s-15.5 -9 -31.5 -9h-281c-40 34 -60 78.333 -60 133v951
c0 52 -21.333 78 -64 78c-28 0 -58.333 -14.667 -91 -44v-933c0 -24 11.667 -42.667 35 -56c14 -8 21 -22.667 21 -44v-51c0 -22.667 -16.333 -34 -49 -34h-355c-17.333 0 -28.333 2.5 -33 7.5s-7 17.5 -7 37.5v37c0 19.333 6 33 18 41c16 11.333 26.333 22 31 32s7 32 7 66
v978c0 23.333 -11.333 40.333 -34 51c-12.667 6 -19 16.667 -19 32v53c0 20.667 9.33301 31 28 31h326c14 0 22.667 -2 26 -6s5 -12.333 5 -25v-105z" />
    <glyph glyph-name="o" unicode="o" 
d="M490 1380c125.333 0 230 -56.168 314 -168.501s126 -279.166 126 -500.499c0 -238.667 -42.667 -419.167 -128 -541.5s-191.666 -183.5 -318.999 -183.5c-88 0 -164.333 28 -229 84s-114.5 130.667 -149.5 224s-52.5 221 -52.5 383c0 231.333 40.167 406.333 120.5 525
s186.166 178 317.499 178zM562 1129c0 82.667 -24 124 -72 124c-52 0 -78 -50.667 -78 -152v-831c0 -100.667 23.667 -151 71 -151c52.667 0 79 50.333 79 151v859z" />
    <glyph glyph-name="p" unicode="p" horiz-adv-x="1003" 
d="M432 1268c39.333 37.333 75.3291 65.3301 107.996 83.9971s71.334 28 116.001 28c102.667 0 177.834 -53.167 225.501 -159.5s71.5 -276.5 71.5 -510.5c0 -152 -7.66699 -277 -23 -375s-49.666 -178.333 -102.999 -241s-114.666 -94 -183.999 -94
c-83.333 0 -153.666 46 -210.999 138v-223c0 -22.667 12.667 -38.334 38 -47.001c24.667 -8.66699 37 -25 37 -49v-36c0 -14 -1.66699 -22.5 -5 -25.5s-12.333 -4.5 -27 -4.5h-385c-26.667 0 -40 6.66699 -40 20v37c0 24.667 11.333 43.667 34 57
c11.333 6.66699 17 17.334 17 32.001v1294c0 24.667 -8.66699 43.334 -26 56.001c-12 8.66699 -19.167 15.334 -21.5 20.001s-3.5 14.334 -3.5 29.001v31c0 18 1.83301 28.667 5.5 32s13.5 5 29.5 5h305c19.333 0 31.166 -2.33301 35.499 -7s6.5 -16.667 6.5 -36v-55z
M585.996 1079c0 41.333 -8.33398 72.167 -25.001 92.5s-35 30.5 -55 30.5c-14.667 0 -30.667 -8.66699 -48 -26s-26 -37 -26 -59v-840c0 -18 9.33301 -37 28 -57s40.334 -30 65.001 -30c40.667 0 61 31.667 61 95v794z" />
    <glyph glyph-name="q" unicode="q" horiz-adv-x="1003" 
d="M571 111c-76.667 -74 -146.999 -111 -210.999 -111c-102.667 -0 -179.667 50.333 -231 151s-77 284 -77 550c0 167.333 12.833 297.5 38.5 390.5s70.834 164.333 135.501 214s136 74.5 214 74.5c109.333 0 197.666 -46.333 264.999 -139
c22 14.667 46.667 43.334 74 86.001c18 28 31.5 43.833 40.5 47.5s31.167 5.5 66.5 5.5c10 0 15.667 -3 17 -9v-1438c0 -20 2.16699 -33.333 6.5 -40s13.833 -15.334 28.5 -26.001c16.667 -12 25 -24.667 25 -38v-51c0 -10 -1.83301 -16.667 -5.5 -20s-12.834 -5 -27.501 -5
h-403c-14 0 -22.333 1.83301 -25 5.5s-4 12.167 -4 25.5v36c0 16 1.66699 27 5 33s12 11.333 26 16c28 8.66699 42 30 42 64v178zM571.001 1112c0 73.333 -25.333 110 -76 110c-24 0 -42.333 -11.5 -55 -34.5s-19 -48.167 -19 -75.5v-807c0 -36.667 7.33301 -65.667 22 -87
s32.667 -32 54 -32c16.667 0 33.167 8.66699 49.5 26s24.5 41 24.5 71v829z" />
    <glyph glyph-name="r" unicode="r" horiz-adv-x="725" 
d="M401 1100c8 16 17.6689 43.999 29.002 83.999c25.333 86.667 50.166 141 74.499 163s51.166 33 80.499 33c40 0 70.167 -19 90.5 -57s30.5 -85.667 30.5 -143c0 -123.333 -34.667 -185 -104 -185c-34.667 0 -61.334 20.333 -80.001 61c-11.333 23.333 -23 35 -35 35
c-30 0 -45 -33 -45 -99v-799c0 -25.333 11.667 -44 35 -56c23.333 -11.333 35 -29.666 35 -54.999v-45c0 -16 -1.83301 -26.167 -5.5 -30.5s-14.167 -6.5 -31.5 -6.5h-377c-26 -0 -39 12.333 -39 37v55c0 18.667 5.66699 31 17 37c22.667 11.333 34 28.666 34 51.999v1007
c0 22.667 -8 39 -24 49c-17.333 10 -27.333 17.833 -30 23.5s-4 22.834 -4 51.501c0 24 3.5 39 10.5 45s18.833 9 35.5 9h270c12.667 0 21.334 -3.5 26.001 -10.5s7 -23.833 7 -50.5v-205z" />
    <glyph glyph-name="s" unicode="s" horiz-adv-x="683" 
d="M572 1343l55 -276.998c1.33301 -8.66699 2 -16.334 2 -23.001c0 -18.667 -18 -28 -54 -28c-24 0 -41.5 3 -52.5 9s-23.5 22 -37.5 48c-16 30.667 -40.333 67 -73 109s-62 63 -88 63c-10 0 -18.833 -4.66699 -26.5 -14s-11.5 -20.333 -11.5 -33
c0 -34 48.667 -130.333 146 -289c84 -138 141 -246.333 171 -325s45 -167.334 45 -266.001c0 -104.667 -22.667 -186.167 -68 -244.5s-98.666 -87.5 -159.999 -87.5c-38.667 0 -79.334 14 -122.001 42c-23.333 15.333 -39 23 -47 23
c-9.33301 0 -14.666 -7.66699 -15.999 -23c-2.66699 -18 -6.66699 -29.5 -12 -34.5s-22.666 -7.5 -51.999 -7.5c-22.667 0 -37.334 3.33301 -44.001 10s-11.334 18.334 -14.001 35.001l-50 279c-2 13.333 -3 21.666 -3 24.999c0 18.667 22.333 28 67 28
c23.333 0 39.5 -3 48.5 -9s20.5 -23.333 34.5 -52c52 -108.667 101.333 -163 148 -163c30 0 45 18 45 54c0 32 -11.167 71.667 -33.5 119s-65.833 125 -130.5 233c-68 114.667 -117.167 210.667 -147.5 288s-45.5 155 -45.5 233c0 106 22.667 185 68 237s100.333 78 165 78
c34 0 72.667 -11.667 116 -35c22 -12 37 -18 45 -18c10.667 0 17 7 19 21c2.66699 14.667 8 23.667 16 27s25 5 51 5c16.667 0 27.5 -1.83301 32.5 -5.5s9.5 -14.167 13.5 -31.5z" />
    <glyph glyph-name="t" unicode="t" horiz-adv-x="555" 
d="M96 1229l-39 -0.000976562c-11.333 0 -18.5 1.33301 -21.5 4s-4.5 10 -4.5 22v72c0 13.333 1.5 22 4.5 26s11.833 7 26.5 9c48 7.33301 96.333 34 145 80s77.667 95.333 87 148c3.33301 18.667 7.5 30.167 12.5 34.5s15.167 6.5 30.5 6.5h65c17.333 0 26 -11.667 26 -35
v-230h62c23.333 0 35 -11 35 -33v-72c0 -21.333 -11.667 -32 -35 -32h-62v-1036c0 -35.333 15.667 -60.666 47 -75.999c15.333 -7.33301 25.333 -16.333 30 -27s7 -30 7 -58c0 -17.333 -1.16699 -27 -3.5 -29s-10.5 -3 -24.5 -3h-316c-48 42.667 -72 107 -72 193v1036z" />
    <glyph glyph-name="u" unicode="u" horiz-adv-x="1003" 
d="M96 1213l-20.001 8.99902c-16.667 7.33301 -27.167 14.5 -31.5 21.5s-6.5 21.5 -6.5 43.5c0 12 -0.333008 22 -1 30c0 20 2.83301 33.167 8.5 39.5s18.167 9.5 37.5 9.5h311c15.333 0 24.666 -2.33301 27.999 -7s5 -16 5 -34v-985c0 -86 23.667 -129 71 -129
c36 0 63.333 15.333 82 46v925c0 24 -11.667 42.667 -35 56c-11.333 6.66699 -18.166 13.834 -20.499 21.501s-3.5 33.5 -3.5 77.5c0 19.333 11.333 29 34 29h327c14 0 22.5 -2 25.5 -6s4.5 -14.667 4.5 -32v-1146c0 -22 9 -37.333 27 -46c22 -12 33 -32 33 -60
c0 -40 -1.5 -62.667 -4.5 -68s-13.5 -8 -31.5 -8h-304c-19.333 0 -32.666 3.5 -39.999 10.5s-11 22.167 -11 45.5v25c0 26.667 -0.333008 41.667 -1 45c-106 -93.333 -195.667 -140 -269 -140c-63.333 0 -115 21 -155 63s-60 123 -60 243v921z" />
    <glyph glyph-name="v" unicode="v" horiz-adv-x="853" 
d="M519 600l112.002 548.999c2 11.333 3 22.333 3 33c0 28 -11 49 -33 63c-13.333 8 -20 22.667 -20 44v54c0 15.333 7.66699 23 23 23h192c15.333 0 24.833 -1.83301 28.5 -5.5s5.5 -13.5 5.5 -29.5v-48c0 -13.333 -0.5 -21.666 -1.5 -24.999s-9.16699 -10 -24.5 -20
c-21.333 -14.667 -36.333 -44.334 -45 -89.001l-209 -1058c-11.333 -59.333 -18.5 -91.666 -21.5 -96.999s-12.167 -8 -27.5 -8h-172c-9.33301 1.33301 -19.333 28 -30 80l-220 1106c-6.66699 32 -17.334 54 -32.001 66c-18 15.333 -27 29 -27 41c0 46 2 72 6 78
s16.333 9 37 9h351c19.333 0 32.166 -4.16699 38.499 -12.5s9.5 -28.5 9.5 -60.5c0 -18.667 -1.5 -30.667 -4.5 -36s-11.833 -12 -26.5 -20c-18 -10 -27 -24 -27 -42c0 -12.667 2 -28 6 -46z" />
    <glyph glyph-name="w" unicode="w" horiz-adv-x="1323" 
d="M520 576l69.999 380.998l-47 228c-4.66699 24.667 -15.667 42.667 -33 54c-16.667 11.333 -25 24 -25 38v53c0 24 11.667 36 35 36h365c22 0 35 -3.16699 39 -9.5s6 -15.166 6 -26.499v-53c0 -20 -10.333 -33.333 -31 -40c-21.333 -6.66699 -32 -16.667 -32 -30
c0 -3.33301 1.33301 -12.333 4 -27l113 -587l105 578c1.33301 6 2 12 2 18c0 20.667 -10 38 -30 52c-20.667 14.667 -31 36.334 -31 65.001c0 34 1.33301 52.5 4 55.5s13.334 4.5 32.001 4.5h182c16.667 0 27.5 -2.16699 32.5 -6.5s7.5 -14.166 7.5 -29.499v-43
c0 -18.667 -7.66699 -33.334 -23 -44.001c-22.667 -16 -36.334 -35.333 -41.001 -58l-206 -1128c-7.33301 -37.333 -12.833 -58.5 -16.5 -63.5s-13.5 -7.5 -29.5 -7.5h-156c-20 0 -32.667 2.66699 -38 8s-10.666 22.333 -15.999 51l-109 580l-110 -568
c0 -0.666992 -1 -7.33398 -3 -20.001c-4 -27.333 -8 -42.666 -12 -45.999s-16.667 -5 -38 -5h-149c-20.667 0 -32.5 3.66699 -35.5 11s-13.833 62.666 -32.5 165.999l-198 1022c-4 22 -16 41.667 -36 59c-10 8.66699 -15 19.667 -15 33v47c0 16.667 2.33301 27.834 7 33.501
s15 8.5 31 8.5h335c18.667 0 30.667 -2.83301 36 -8.5s8 -16.834 8 -33.501v-49c0 -13.333 -7.33301 -25 -22 -35c-13.333 -9.33301 -20 -19.666 -20 -30.999c0 -7.33301 2 -21 6 -41z" />
    <glyph glyph-name="x" unicode="x" horiz-adv-x="875" 
d="M510 979l60.002 130.998c0.666992 1.33301 4 7.66602 10 18.999c25.333 47.333 38 79.666 38 96.999c0 9.33301 -8 18.333 -24 27c-8.66699 4.66699 -14.334 10.334 -17.001 17.001s-4 25.334 -4 56.001c0 19.333 1.66699 30.833 5 34.5s13.666 5.5 30.999 5.5h195
c10 -1.33301 16 -4.83301 18 -10.5s3 -21.167 3 -46.5c0 -28.667 -0.833008 -45.334 -2.5 -50.001s-8.83398 -9.66699 -21.501 -15c-15.333 -7.33301 -28 -21.333 -38 -42l-193 -397l209 -633c4.66699 -13.333 16 -28 34 -44c14 -12 21 -26.333 21 -43v-52
c0 -15.333 -1.83301 -24.666 -5.5 -27.999s-14.167 -5 -31.5 -5h-359c-17.333 0 -28.833 2.83301 -34.5 8.5s-8.5 20.5 -8.5 44.5c0 26.667 1.83301 44.334 5.5 53.001s12.834 16.667 27.501 24c12 5.33301 18 13.333 18 24c0 7.33301 -1.66699 15.666 -5 24.999l-75 212
l-68 -131c-28.667 -54.667 -43 -90 -43 -106c0 -14 8.33301 -23.667 25 -29c14.667 -6 22 -17.667 22 -35l1 -32c0 -29.333 -1.5 -46.333 -4.5 -51s-12.167 -7 -27.5 -7h-194c-12.667 0 -20.5 1.66699 -23.5 5s-4.5 12.666 -4.5 27.999v61c1.33301 10 8.33301 19 21 27
c23.333 13.333 40 30.333 50 51l188 394l-204 618c-7.33301 22.667 -20 40.334 -38 53.001c-10.667 8 -18 15 -22 21s-6 31 -6 75c0 14.667 2 23.834 6 27.501s13 5.5 27 5.5h369c16.667 0 26.667 -1.66699 30 -5s5 -14.333 5 -33v-37c0 -18 -6 -31.333 -18 -40
c-16 -11.333 -24 -25.666 -24 -42.999c0 -4 0.666992 -8 2 -12z" />
    <glyph glyph-name="y" unicode="y" horiz-adv-x="853" 
d="M524 598l101.003 526.996c2 8 3.33301 14 4 18c4.66699 20 7 33 7 39c0 17.333 -12 35.333 -36 54c-11.333 8.66699 -18.333 18.667 -21 30s-4 34 -4 68c0 21.333 9.33301 32 28 32h172c19.333 0 32.5 -4 39.5 -12s10.5 -29 10.5 -63c0 -20 -1.16699 -31.667 -3.5 -35
s-9.83301 -9.66602 -22.5 -18.999c-18.667 -12.667 -32.334 -42 -41.001 -88l-167 -880c-29.333 -153.333 -51.166 -251.833 -65.499 -295.5s-36.666 -82.667 -66.999 -117s-66 -60.166 -107 -77.499s-88.5 -26 -142.5 -26c-58.667 0 -103.834 13.833 -135.501 41.5
s-47.5 63.834 -47.5 108.501c0 32.667 10.667 58.667 32 78s47.666 29 78.999 29c46.667 0 79.667 -27.333 99 -82c9.33301 -26.667 23 -40 41 -40c34 0 51 17.667 51 53c0 11.333 -6.66699 48.666 -20 111.999l-214 1037c-10 50 -18.5 84.5 -25.5 103.5
s-16.833 31.5 -29.5 37.5c-12 6 -18 18.333 -18 37v56c0 18.667 2.66699 30.334 8 35.001s15.666 7 30.999 7h352c18.667 0 31 -2.16699 37 -6.5s9 -14.166 9 -29.499c0 -32.667 -1.33301 -54 -4 -64s-10.334 -17.667 -23.001 -23c-20 -8 -30 -24.667 -30 -50
c0 -14.667 2.33301 -33.667 7 -57z" />
    <glyph glyph-name="z" unicode="z" horiz-adv-x="747" 
d="M406 130l37.999 -0.00292969c34 0 57.333 7.33301 70 22s27 50.334 43 107.001c11.333 42 22 70.5 32 85.5s38.667 22.5 86 22.5c20.667 0 31 -7.33301 31 -22c0 -4 -2.66699 -24 -8 -60l-33 -216c-6 -40 -10.167 -61.5 -12.5 -64.5s-14.833 -4.5 -37.5 -4.5h-526l-29 -1
c-8.66699 0 -13 3 -13 9c0 2.66699 0.333008 5.66699 1 9l7 26l291 1190h-49c-20 0 -35.5 -6.16699 -46.5 -18.5s-25.833 -46.166 -44.5 -101.499c-18 -54.667 -33 -87.667 -45 -99s-35 -17 -69 -17c-26.667 0 -40 7.33301 -40 22c0 4.66699 0.666992 11.667 2 21l44 281
c3.33301 22 7.83301 35 13.5 39s18.834 6 39.501 6h543c9.33301 -0.666992 14 -4.66699 14 -12c0 -3.33301 -2.33301 -13.666 -7 -30.999l-3 -15z" />
    <glyph glyph-name="braceleft" unicode="{" horiz-adv-x="797" 
d="M64 560l-0.00292969 240.001c60.667 2.66699 106.334 15.667 137.001 39s52 58.333 64 105s18 123.667 18 231c0 113.333 5.5 195.333 16.5 246s31.833 92.167 62.5 124.5s71.834 56.333 123.501 72s121.5 23.5 209.5 23.5h53v-240c-89.333 0 -145.666 -9 -168.999 -27
s-35 -57.333 -35 -118c0 -186 -11.333 -316.5 -34 -391.5s-74 -136.5 -154 -184.5c61.333 -33.333 107.833 -83.166 139.5 -149.499s47.5 -208.833 47.5 -427.5c0 -52 7.66699 -85.667 23 -101s31.5 -26.5 48.5 -33.5s61.5 -10.5 133.5 -10.5v-239h-53
c-134.667 0 -226 16.5 -274 49.5s-83 71.167 -105 114.5s-33 143.666 -33 300.999c0 106.667 -5.66699 183 -17 229s-32.5 81.167 -63.5 105.5s-77.167 38.166 -138.5 41.499z" />
    <glyph glyph-name="bar" unicode="|" horiz-adv-x="798" 
d="M291 1641h217v-1898h-217v1898z" />
    <glyph glyph-name="braceright" unicode="}" horiz-adv-x="797" 
d="M733 560c-60.667 -3.33301 -106.332 -16.667 -136.999 -40s-52 -58.333 -64 -105s-18 -123.667 -18 -231c0 -155.333 -11.167 -256.333 -33.5 -303s-59.333 -85.334 -111 -116.001s-140.834 -46 -267.501 -46h-53v239c84 0 139.167 9.5 165.5 28.5
s39.5 57.833 39.5 116.5c0 191.333 12.333 324.5 37 399.5s74.667 134.167 150 177.5c-82 48.667 -133.833 111.667 -155.5 189s-32.5 206.333 -32.5 387c0 62.667 -12.333 102.5 -37 119.5s-80.334 25.5 -167.001 25.5v240h53c116 0 203.333 -14.833 262 -44.5
s98.334 -73 119.001 -130s31 -154.167 31 -291.5c0 -106 5.66699 -182.167 17 -228.5s32.5 -81.666 63.5 -105.999s77.167 -37.833 138.5 -40.5v-240z" />
    <glyph glyph-name="asciitilde" unicode="~" horiz-adv-x="1365" 
d="M1238 753c-111.333 -92.667 -211.668 -139 -301.001 -139c-43.333 0 -84 5.83301 -122 17.5s-100 38.5 -186 80.5s-152 63 -198 63c-96 0 -197 -49 -303 -147v223c106 91.333 211.667 137 317 137c64 0 154 -28 270 -84c104.667 -50.667 181.334 -76 230.001 -76
c87.333 0 185 49.333 293 148v-223z" />
    <glyph glyph-name="nonbreakingspace" unicode="&#xa0;" horiz-adv-x="501" 
 />
    <glyph glyph-name="exclamdown" unicode="&#xa1;" horiz-adv-x="533" 
d="M279 995c-50.667 0 -92 19.5 -124 58.5s-48 86.5 -48 142.5c0 52.667 16.333 100.667 49 144s73.667 65 123 65c45.333 0 83.166 -19 113.499 -57s45.5 -85.333 45.5 -142c0 -56 -14.167 -105.167 -42.5 -147.5s-67.166 -63.5 -116.499 -63.5zM236 882h66
c12.667 0 20.5 -2 23.5 -6s4.5 -18.333 4.5 -43c0 -36.667 22.667 -207 68 -511c34.667 -240 52 -370 52 -390c0 -50.667 -17 -93.167 -51 -127.5s-79.667 -51.5 -137 -51.5c-55.333 0 -98.833 18.167 -130.5 54.5s-47.5 80.833 -47.5 133.5
c0 34.667 24.667 210.334 74 527.001c32 207.333 48 326.666 48 357.999c0.666992 28.667 2.5 45.167 5.5 49.5s11.167 6.5 24.5 6.5z" />
    <glyph glyph-name="cent" unicode="&#xa2;" horiz-adv-x="789" 
d="M405 1468l132.001 -0.000976562v-96c66.667 -16 121 -54.167 163 -114.5s63 -125.5 63 -195.5c0 -46.667 -9.66699 -84.834 -29 -114.501s-47 -44.5 -83 -44.5s-65.5 14.667 -88.5 44s-34.5 65.666 -34.5 108.999c0 20.667 2.66699 45 8 73c4 23.333 6 41.666 6 54.999
c0 16.667 -5.83301 31.834 -17.5 45.501s-26.5 20.5 -44.5 20.5c-37.333 0 -56 -29.333 -56 -88v-949c0 -22 7.5 -42.167 22.5 -60.5s33.5 -27.5 55.5 -27.5c70 0 105 80.333 105 241c0 32.667 5 54.334 15 65.001s33.667 16 71 16c27.333 0 45.833 -5.16699 55.5 -15.5
s14.5 -34.5 14.5 -72.5c0 -181.333 -76 -301.333 -228 -360v-128h-134v119c-120 31.333 -208.167 107.5 -264.5 228.5s-84.5 267.167 -84.5 438.5c0 101.333 8.16699 196.833 24.5 286.5s42.666 168.334 78.999 236.001s75 116.334 116 146.001s85.5 47.167 133.5 52.5v90z
" />
    <glyph glyph-name="sterling" unicode="&#xa3;" horiz-adv-x="1067" 
d="M165 862c-40.667 99.333 -61.001 195 -61.001 287c0 134 41.333 246.167 124 336.5s200.334 135.5 353.001 135.5c90.667 0 164 -11.667 220 -35s104.667 -62.5 146 -117.5s62 -117.5 62 -187.5c0 -58.667 -14.333 -107 -43 -145s-66 -57 -112 -57
c-45.333 0 -83.166 16.167 -113.499 48.5s-45.5 84.166 -45.5 155.499v22c3.33301 48.667 5 75 5 79c0 26 -8.66699 51 -26 75s-41 36 -71 36c-78.667 0 -118 -68.333 -118 -205c0 -97.333 18.333 -240 55 -428h225c22 0 33 -11.667 33 -35v-113
c0 -15.333 -2 -25.166 -6 -29.499s-15 -6.5 -33 -6.5h-196c2.66699 -30 4 -53 4 -69c0 -82 -15.667 -168.667 -47 -260c95.333 -19.333 179.333 -29 252 -29c75.333 0 117 25.667 125 77c3.33301 19.333 7.16602 30.166 11.499 32.499s22.166 3.83301 53.499 4.5
c7.33301 0 14 0.333008 20 1h12c28.667 0 43 -23 43 -69c0 -77.333 -12.333 -144.5 -37 -201.5s-59 -101.5 -103 -133.5s-92 -48 -144 -48c-34 0 -68.833 6.33301 -104.5 19s-84.5 45.667 -146.5 99c-23.333 20.667 -41.666 36 -54.999 46
c-67.333 -109.333 -143 -164 -227 -164c-54 0 -96.833 17.667 -128.5 53s-47.5 83 -47.5 143c0 70 21 122 63 156s94 51 156 51c22 0 50.667 -2.66699 86 -8c-2.66699 94.667 -35 194.667 -97 300h-173c-16.667 0 -26.667 2.33301 -30 7s-5 15.334 -5 32.001v106
c0 16 2.16699 26.5 6.5 31.5s13.833 7.5 28.5 7.5h86z" />
    <glyph glyph-name="currency" unicode="&#xa4;" horiz-adv-x="1365" 
d="M936 1196l131.999 133.001l140 -143l-131 -132c48.667 -78 73 -162 73 -252c0 -88.667 -24.333 -172.334 -73 -251.001l131 -130l-140 -142l-132 130c-79.333 -49.333 -163.666 -74 -252.999 -74c-91.333 0 -175.333 24.667 -252 74l-130 -130l-143 142l131 130
c-48.667 77.333 -73 161 -73 251c0 88 24.667 172 74 252l-132 132l140 143l133 -133c80 48.667 164 73 252 73c88.667 0 173 -24.333 253 -73zM950.999 802.001c0 74 -26.167 137.168 -78.5 189.501s-115.5 78.5 -189.5 78.5s-137 -26.167 -189 -78.5
s-78 -115.5 -78 -189.5s26 -137 78 -189s115 -78 189 -78c73.333 0 136.333 26.167 189 78.5s79 115.166 79 188.499z" />
    <glyph glyph-name="yen" unicode="&#xa5;" 
d="M683 623l-0.000976562 -174.999h278v-130h-278v-119c0 -26.667 17 -46 51 -58c14.667 -5.33301 24.834 -10.833 30.501 -16.5s8.5 -29.167 8.5 -70.5c0 -25.333 -2.66699 -40.666 -8 -45.999s-16 -8 -32 -8h-474c-23.333 0 -35 10.333 -35 31v59
c0 24.667 15.333 42 46 52c16 5.33301 26.667 11.833 32 19.5s8 22.167 8 43.5v113h-279v130h279v176h-279v130h263l-185 654c-10 35.333 -28.667 58.666 -56 69.999c-14.667 6.66699 -22 17.667 -22 33v76c0 18 9.66699 27 29 27h424c12 0 20 -3.33301 24 -10
s6 -24.334 6 -53.001s-1.16699 -46.834 -3.5 -54.501s-8.83301 -14.5 -19.5 -20.5c-15.333 -10 -23 -22.667 -23 -38c0 -8.66699 1.66699 -18.667 5 -30l131 -446l135 446c0.666992 4 1 10.333 1 19c0 21.333 -13 43.333 -39 66c-12 10.667 -18 20.334 -18 29.001v59
c0 22 9.66699 33 29 33h219c20 0 30 -11 30 -33v-63c0 -11.333 -7.33301 -22.333 -22 -33c-25.333 -18 -43 -43.667 -53 -77l-194 -654h269v-131h-278z" />
    <glyph glyph-name="brokenbar" unicode="&#xa6;" horiz-adv-x="798" 
d="M291 1641h217v-731h-217v731zM291 474h217v-731h-217v731z" />
    <glyph glyph-name="section" unicode="&#xa7;" 
d="M222 1089c-64 74 -95.998 153.001 -95.998 237.001c0 89.333 32 163.5 96 222.5s156 88.5 276 88.5c126 0 224.667 -25.333 296 -76s107 -118.667 107 -204c0 -41.333 -12.833 -74 -38.5 -98s-54.5 -36 -86.5 -36c-42 0 -74.167 15.833 -96.5 47.5
s-33.833 76.834 -34.5 135.501c0 38.667 -9.16699 68.667 -27.5 90s-51.5 32 -99.5 32c-40.667 0 -73 -9.33301 -97 -28s-36 -41.667 -36 -69c0 -30 15.5 -63.333 46.5 -100s97.5 -92.334 199.5 -167.001c77.333 -56.667 137 -105.834 179 -147.501
s74.833 -89.667 98.5 -144s35.5 -115.166 35.5 -182.499c0 -78 -17.167 -148.333 -51.5 -211s-79.5 -106.334 -135.5 -131.001c67.333 -79.333 101 -160.666 101 -243.999c0 -92 -32.833 -173.5 -98.5 -244.5s-165.834 -106.5 -300.501 -106.5c-128 0 -224 28.167 -288 84.5
s-96 119.166 -96 188.499c0 34 12.5 64.833 37.5 92.5s55.833 41.5 92.5 41.5c76.667 0 118 -48 124 -144c4 -60 17.5 -99.5 40.5 -118.5s52.5 -28.5 88.5 -28.5c44 0 77.5 9.83301 100.5 29.5s34.5 44.834 34.5 75.501c0 33.333 -12.833 67.666 -38.5 102.999
s-79.167 85 -160.5 149c-136.667 108 -230.334 194.667 -281.001 260s-76 143.666 -76 234.999c0 150.667 61.667 273.334 185 368.001zM321.002 998.001c-46.667 -24.667 -70 -61.668 -70 -111.001c0 -38 13.833 -76 41.5 -114s95.167 -100.667 202.5 -188
c78 -63.333 139.333 -116.666 184 -159.999c44 40 66 81.333 66 124c0 65.333 -44.167 135.5 -132.5 210.5z" />
    <glyph glyph-name="dieresis" unicode="&#xa8;" horiz-adv-x="683" 
d="M123 1696c49.333 0 89.001 -9.16895 119.001 -27.502s45 -44.166 45 -77.499c0 -31.333 -15.5 -55.666 -46.5 -72.999s-70.167 -26 -117.5 -26c-48.667 0 -88.334 9.33301 -119.001 28s-46 45 -46 79c0 64.667 55 97 165 97zM551.001 1693c116 0 174 -34.667 174 -104
c0 -63.333 -52 -95 -156 -95c-117.333 0 -176 33.667 -176 101c0 65.333 52.667 98 158 98z" />
    <glyph glyph-name="copyright" unicode="&#xa9;" horiz-adv-x="1530" 
d="M765 1641c122.667 0 239.332 -30.667 349.999 -92s198.334 -147.833 263.001 -259.5s97 -231.167 97 -358.5c0 -194.667 -69.5 -361.5 -208.5 -500.5s-306.167 -208.5 -501.5 -208.5c-196 0 -363.167 69.333 -501.5 208s-207.5 305.667 -207.5 501
c0 196.667 69.5 364.167 208.5 502.5s305.833 207.5 500.5 207.5zM764.998 1551c-103.333 0 -204 -26.3311 -302 -78.998s-175.5 -128.334 -232.5 -227.001s-85.5 -203.334 -85.5 -314.001c0 -170 60.833 -315.833 182.5 -437.5s267.5 -182.5 437.5 -182.5
c171.333 0 317.5 60.667 438.5 182s181.5 267.333 181.5 438c0 171.333 -60.667 317.5 -182 438.5s-267.333 181.5 -438 181.5zM1100 1359v-264h-38c-11.333 67.333 -40.166 120.166 -86.499 158.499s-99.5 57.5 -159.5 57.5c-78 0 -140.5 -30.333 -187.5 -91
s-70.5 -151.667 -70.5 -273c0 -135.333 24.333 -231.5 73 -288.5s108.667 -85.5 180 -85.5c98.667 0 185.667 46 261 138v-70c-80.667 -84.667 -186.667 -127 -318 -127c-120 0 -220.167 36.833 -300.5 110.5s-120.5 172.834 -120.5 297.501c0 128.667 42.333 234 127 316
s189 123 313 123c57.333 0 123 -13.667 197 -41c21.333 -7.33301 36.666 -11 45.999 -11c26 0 41.333 16.667 46 50h38z" />
    <glyph glyph-name="ordfeminine" unicode="&#xaa;" horiz-adv-x="576" 
d="M342 1400v102c0 38 -14.333 57 -43 57c-32 0 -48 -27 -48 -81c0 -57.333 -38.333 -86 -115 -86c-51.333 0 -77 26 -77 78c0 53.333 22.167 95 66.5 125s102.833 45 175.5 45c76.667 0 135.5 -17.833 176.5 -53.5s61.5 -81.167 61.5 -136.5v-499
c0 -19.333 4.33301 -32.333 13 -39c8.66699 -8 13 -18.333 13 -31c0 -36 -30 -54 -90 -54c-72 0 -116 26.667 -132 80c-51.333 -53.333 -101 -80 -149 -80c-104 0 -156 81.667 -156 245c0 86.667 13 147.834 39 183.501s83.333 70.5 172 104.5
c39.333 15.333 70.333 28.666 93 39.999zM340 1325c-44.667 -19.333 -71 -41.667 -79 -67s-12 -90.333 -12 -195c0 -76 15.333 -114 46 -114c30 0 45 29.333 45 88v288z" />
    <glyph glyph-name="guillemotleft" unicode="&#xab;" 
d="M273 1322h214l-172 -626l172 -630h-214l-286 630zM742 1322h215l-172 -626l172 -630h-215l-289 630z" />
    <glyph glyph-name="logicalnot" unicode="&#xac;" horiz-adv-x="1365" 
d="M125 1153h1114v-702h-214v487h-900v215z" />
    <glyph glyph-name="sfthyphen" unicode="&#xad;" horiz-adv-x="1217" 
d="M231 827h922l-131 -245h-924z" />
    <glyph glyph-name="registered" unicode="&#xae;" horiz-adv-x="1530" 
d="M765 1641c122.667 0 239.332 -30.667 349.999 -92s198.334 -147.833 263.001 -259.5s97 -231.167 97 -358.5c0 -194.667 -69.5 -361.5 -208.5 -500.5s-306.167 -208.5 -501.5 -208.5c-196 0 -363.167 69.333 -501.5 208s-207.5 305.667 -207.5 501
c0 196.667 69.5 364.167 208.5 502.5s305.833 207.5 500.5 207.5zM764.998 1551c-103.333 0 -204 -26.3311 -302 -78.998s-175.5 -128.334 -232.5 -227.001s-85.5 -203.334 -85.5 -314.001c0 -170 60.833 -315.833 182.5 -437.5s267.5 -182.5 437.5 -182.5
c171.333 0 317.5 60.667 438.5 182s181.5 267.333 181.5 438c0 171.333 -60.667 317.5 -182 438.5s-267.333 181.5 -438 181.5zM385.998 1344l362 0.00195312c90 0 157 -6.66699 201 -20s80.667 -38.333 110 -75s44 -78.334 44 -125.001
c0 -104.667 -59.667 -173.667 -179 -207l137 -249c34.667 -64 69.667 -97.333 105 -100v-33h-242l-205 368h-46v-199c0 -56 7.5 -92.167 22.5 -108.5s47.5 -25.5 97.5 -27.5v-33h-423v33c38 0 65 7.33301 81 22s24 52.667 24 114v472c0 54.667 -5.83301 89.667 -17.5 105
s-35.5 24.666 -71.5 27.999v35zM672.998 953.004c22.667 -2.66699 41.332 -4 55.999 -4c42.667 0 79.834 16 111.501 48s47.5 75.667 47.5 131c0 114.667 -59 172 -177 172h-38v-347z" />
    <glyph glyph-name="macron" unicode="&#xaf;" horiz-adv-x="1024" 
d="M-12 1870h1048v-102h-1048v102z" />
    <glyph glyph-name="degree" unicode="&#xb0;" horiz-adv-x="819" 
d="M90 1302c0 85.333 30.333 159.833 91 223.5s136.667 95.5 228 95.5c88 0 163.167 -31.167 225.5 -93.5s93.5 -137.5 93.5 -225.5c0 -87.333 -31.333 -162.333 -94 -225s-137.667 -94 -225 -94s-162.333 31.167 -225 93.5s-94 137.5 -94 225.5zM256 1302
c0 -40.667 14.668 -76.168 44.001 -106.501s65.666 -45.5 108.999 -45.5c42 0 78 14.833 108 44.5s45 65.5 45 107.5c0 42.667 -15 78.834 -45 108.501s-66 44.5 -108 44.5s-78 -15 -108 -45s-45 -66 -45 -108z" />
    <glyph glyph-name="plusminus" unicode="&#xb1;" horiz-adv-x="1365" 
d="M125 1023h449v450h215v-450h451v-215h-451v-449h-215v449h-449v215zM125 215h1115v-215h-1115v215z" />
    <glyph glyph-name="twosuperior" unicode="&#xb2;" horiz-adv-x="725" 
d="M207 995l316.002 0.00195312c37.333 0 61.666 18.333 72.999 55c6.66699 21.333 17 32 31 32h35c18 0 27 -4.33301 27 -13c0 -6 -2 -18.333 -6 -37l-33 -167c-4 -22 -8.16699 -35.167 -12.5 -39.5s-16.166 -6.5 -35.499 -6.5h-533v137c0 8 1.66699 14 5 18
s19.666 18.333 48.999 43l208 191c34.667 32.667 58.5 66.834 71.5 102.501s19.5 73.5 19.5 113.5c0 47.333 -6.83301 81.666 -20.5 102.999s-37.834 32 -72.501 32c-54 0 -81 -24 -81 -72c0 -2.66699 0.666992 -11.667 2 -27c1.33301 -14.667 2 -22.667 2 -24
c0 -19.333 -7.33301 -37 -22 -53s-35.667 -24 -63 -24c-56 0 -84 31 -84 93c0 55.333 27.667 101.333 83 138s130 55 224 55c89.333 0 159.833 -20.833 211.5 -62.5s77.5 -97.834 77.5 -168.501c0 -53.333 -18.167 -104.333 -54.5 -153s-126.833 -109.334 -271.5 -182.001
c-71.333 -35.333 -120 -63.333 -146 -84z" />
    <glyph glyph-name="threesuperior" unicode="&#xb3;" horiz-adv-x="725" 
d="M445 1251c149.333 -21.333 224.001 -90.333 224.001 -207c0 -71.333 -29 -128.166 -87 -170.499s-135 -63.5 -231 -63.5c-82 0 -148.167 14.833 -198.5 44.5s-75.5 71.834 -75.5 126.501c0 28.667 8.16699 52.834 24.5 72.501s38.166 29.5 65.499 29.5
c24 0 42.833 -8 56.5 -24s20.5 -31.667 20.5 -47c0 -1.33301 -0.666992 -9.33301 -2 -24c-2 -14 -3 -22 -3 -24c0 -17.333 7.16699 -33 21.5 -47s34.166 -21 59.499 -21c60 0 90 51.333 90 154c0 58.667 -10.5 99.834 -31.5 123.501s-59.833 35.5 -116.5 35.5
c-9.33301 0 -23.666 -0.666992 -42.999 -2c-18.667 0 -28 9.33301 -28 28c0 25.333 1 40.666 3 45.999s8 8 18 8c0.666992 0 7 -0.333008 19 -1c15.333 -0.666992 25 -1 29 -1c55.333 0 93.833 9.66699 115.5 29s32.5 50 32.5 92c0 53.333 -5.16699 90.166 -15.5 110.499
s-31.833 30.5 -64.5 30.5c-58 0 -87 -19 -87 -57c0 -6 1.33301 -14.333 4 -25c3.33301 -13.333 5 -24.333 5 -33c0 -16 -6.16699 -31 -18.5 -45s-30.833 -21 -55.5 -21c-26 0 -47.167 8.66699 -63.5 26s-24.5 40 -24.5 68c0 55.333 26.333 99.666 79 132.999
s122.667 50 210 50c74 0 137.167 -17.5 189.5 -52.5s78.5 -83.167 78.5 -144.5c0 -92.667 -66.667 -158.334 -200 -197.001z" />
    <glyph glyph-name="acute" unicode="&#xb4;" horiz-adv-x="683" 
d="M208 1492l116 179c20 30.667 37.5 48.667 52.5 54s58.833 8 131.5 8c59.333 0 95 -1.66699 107 -5s18 -10.333 18 -21c0 -14.667 -9 -27 -27 -37l-320 -178h-78z" />
    <glyph glyph-name="mu" unicode="&#xb5;" horiz-adv-x="1180" 
d="M152 935h278.005v-694c0.666992 -60 10 -97 28 -111s36.667 -21 56 -21c63.333 0 118.666 40.333 165.999 121v705h277v-625l1 -53c0 -60 8.16699 -97.333 24.5 -112s30.833 -22 43.5 -22c41.333 0 66.666 48 75.999 144h43
c-0.666992 -97.333 -27.334 -170.833 -80.001 -220.5s-112 -74.5 -178 -74.5c-104.667 0 -171.334 52.333 -200.001 157c-90.667 -104.667 -187.667 -157 -291 -157c-46.667 0 -96.334 18.667 -149.001 56c0 -61.333 11.667 -134.333 35 -219c16 -56 24 -95 24 -117
c0 -40.667 -10.667 -73 -32 -97s-50 -36 -86 -36c-72.667 0 -109 39 -109 117c0 29.333 8 75.333 24 138c21.333 83.333 34.833 149.333 40.5 198s8.5 131 8.5 247v676z" />
    <glyph glyph-name="paragraph" unicode="&#xb6;" horiz-adv-x="1139" 
d="M639 -255l-243.001 0.000976562v1047c-129.333 9.33301 -227.333 51 -294 125s-100 167.333 -100 280c0 73.333 14.333 139.833 43 199.5s66.334 105.667 113.001 138s94 53.666 142 63.999s126.667 15.5 236 15.5h597v-260h-113v-1609h-237v1609h-144v-1609z" />
    <glyph glyph-name="cedilla" unicode="&#xb8;" horiz-adv-x="683" 
d="M347 -25c37.333 0 66.167 -10.001 86.5 -30.001s30.5 -45.333 30.5 -76c0 -38.667 -17.333 -70.834 -52 -96.501s-79.667 -38.5 -135 -38.5c-38 0 -57 8.66699 -57 26c0 13.333 12 22.333 36 27c41.333 6.66699 62 23.334 62 50.001c0 10.667 -8.33301 21.334 -25 32.001
c-20 12 -30 26.667 -30 44c0 41.333 28 62 84 62z" />
    <glyph glyph-name="onesuperior" unicode="&#xb9;" horiz-adv-x="725" 
d="M250 1396c-38.667 -5.33301 -60.666 -8 -65.999 -8c-14.667 0 -23.167 1.66699 -25.5 5s-3.5 12 -3.5 26v22c0 12.667 1.66699 21.334 5 26.001s14 10 32 16c50 15.333 106 52 168 110c28.667 26 46.167 41.167 52.5 45.5s15.166 6.5 26.499 6.5h31
c11.333 0 18.166 -1.33301 20.499 -4s3.5 -9.33398 3.5 -20.001v-680c0 -18 6.33301 -31.333 19 -40c18 -12.667 27 -23.667 27 -33v-25c0 -11.333 -1.66699 -18.166 -5 -20.499s-11.666 -3.5 -24.999 -3.5h-281c-18.667 0 -28 8 -28 24v25c0 10 8.66699 20 26 30
c11.333 6.66699 18 11.667 20 15s3 12.666 3 27.999v455z" />
    <glyph glyph-name="ordmasculine" unicode="&#xba;" horiz-adv-x="576" 
d="M285 1640c77.333 0 139.833 -33.999 187.5 -101.999s71.5 -165 71.5 -291c0 -140.667 -25.833 -246.167 -77.5 -316.5s-113.834 -105.5 -186.501 -105.5c-77.333 0 -138.166 36.667 -182.499 110s-66.5 168.666 -66.5 285.999c0 142.667 23.833 248.167 71.5 316.5
s108.5 102.5 182.5 102.5zM330 1496c0 47.333 -14.333 71 -43 71c-30.667 0 -46 -31 -46 -93v-476c0 -63.333 14 -95 42 -95c31.333 0 47 29.667 47 89v504z" />
    <glyph glyph-name="guillemotright" unicode="&#xbb;" 
d="M708 66h-214l172 626l-172 630h214l286 -630zM239 66h-215l172 626l-172 630h215l289 -630z" />
    <glyph glyph-name="onequarter" unicode="&#xbc;" horiz-adv-x="1536" 
d="M998 1645h181l-636 -1701h-181zM250 1394c-38.667 -4 -60 -5.99805 -64 -5.99805c-19.333 0 -29 5 -29 15v57c0 8 12.333 16 37 24c40 14 79.167 35.5 117.5 64.5s64.5 52.5 78.5 70.5c12.667 16 29 24 49 24h49l6 -4v-715c0 -6.66699 6.66699 -15.334 20 -26.001
c17.333 -14 26 -26.333 26 -37v-34l-8 -6h-324l-8 6v41c0 11.333 8.66699 21.666 26 30.999c16 8 24 16.667 24 26v469zM846 270.002l403 482c17.333 20 37.333 30 60 30h86v-523h84l6 -7v-90l-3 -9h-89v-82c0 -8 7.66699 -18.333 23 -31c16.667 -13.333 25 -25.333 25 -36
v-37l-5 -9h-308l-1 1c-2 7.33301 -3 16 -3 26c0 21.333 5.66699 38 17 50c15.333 15.333 23 32.333 23 51v67h-305l-13 7v110zM1167 515.002l-214 -257h214v257z" />
    <glyph glyph-name="onehalf" unicode="&#xbd;" horiz-adv-x="1536" 
d="M993 1648h182l-626 -1704h-181zM248 1396c-3.33301 -0.666992 -9.33203 -1.66602 -17.999 -2.99902c-24.667 -3.33301 -40.334 -5 -47.001 -5c-20 0 -30 4.33301 -30 13v58c0 6.66699 12 14.667 36 24c64 23.333 129.333 68 196 134c18 18.667 35.333 28 52 28h49l6 -6
v-714c0 -5.33301 6.33301 -13 19 -23c18 -14.667 27 -28 27 -40v-37l-12 -6h-318l-9 5v44c0 11.333 8.66699 21 26 29c15.333 7.33301 23 15.666 23 24.999v474zM1106 329.001c46 46.667 75.167 86.333 87.5 119s18.5 71 18.5 115c0 88.667 -30.667 133 -92 133
c-52.667 0 -79 -26.667 -79 -80v-21c0.666992 -9.33301 1 -15.333 1 -18c0 -22.667 -7.5 -41.834 -22.5 -57.501s-35.5 -23.5 -61.5 -23.5c-56 0 -84 31 -84 93c0 56 27.5 102.5 82.5 139.5s129.5 55.5 223.5 55.5c93.333 0 165 -21.667 215 -65s75 -98.666 75 -165.999
c0 -51.333 -17.833 -101.833 -53.5 -151.5s-126.5 -111.167 -272.5 -184.5c-71.333 -36 -120 -64 -146 -84h315c43.333 0 69 22.333 77 67c2 8.66699 6 13.834 12 15.501s20.333 2.5 43 2.5c5.33301 0 10 0.333008 14 1c14 0 21 -4.33301 21 -13
c0 -3.33301 -1.33301 -12 -4 -26l-43 -217h-573v146c58.667 49.333 140.667 122.666 246 219.999z" />
    <glyph glyph-name="threequarters" unicode="&#xbe;" horiz-adv-x="1536" 
d="M996 1646h181l-631 -1702h-179zM186 1288h92.001c46 0 77.833 10.833 95.5 32.5s26.5 55.5 26.5 101.5c0 84 -26.333 126 -79 126c-25.333 0 -46.333 -6.16699 -63 -18.5s-25 -25.5 -25 -39.5c0 -4 1.33301 -10.333 4 -19c4.66699 -13.333 7 -25.333 7 -36
c0 -46.667 -25.333 -70 -76 -70c-26.667 0 -47.167 9.66699 -61.5 29s-21.5 42 -21.5 68c0 53.333 24.5 96.666 73.5 129.999s118.167 50 207.5 50c79.333 0 144.166 -17.833 194.499 -53.5s75.5 -83.834 75.5 -144.501c0 -91.333 -67.333 -155 -202 -191
c150 -21.333 225 -91.666 225 -210.999c0 -77.333 -30.5 -135.833 -91.5 -175.5s-135.167 -59.5 -222.5 -59.5c-86.667 0 -153.5 16.5 -200.5 49.5s-70.5 74.5 -70.5 124.5c0 26 7.66699 49.167 23 69.5s38 30.5 68 30.5c50 0 75 -27.333 75 -82
c0 -36 4.83301 -62.167 14.5 -78.5s29.167 -24.5 58.5 -24.5c62.667 0 94 49.667 94 149c0 62.667 -11.667 105.334 -35 128.001s-51.333 34 -84 34h-102v81zM848.001 269l404.001 481.999c17.333 20.667 37.333 31 60 31h86v-524h84l6 -6v-90l-3 -8h-89v-81
c0 -7.33301 7 -16.666 21 -27.999c18.667 -16 28 -31.333 28 -46v-30l-4 -11h-311c-3.33301 5.33301 -5 15.333 -5 30c0 22 4.66699 36.667 14 44c2 2 3.66699 3.33301 5 4c1.33301 2 3.66602 4.33301 6.99902 7c9.33301 8 14.333 22.333 15 43v67h-306l-12 7v109z
M1168 514.999l-214 -257h214v257z" />
    <glyph glyph-name="questiondown" unicode="&#xbf;" horiz-adv-x="853" 
d="M447 997c-49.333 0 -90.166 19.332 -122.499 57.999s-48.5 86.334 -48.5 143.001c0 54 16.667 102.333 50 145s73.666 64 120.999 64c46 0 84.167 -19 114.5 -57s45.5 -85.333 45.5 -142c0 -55.333 -14.333 -104.333 -43 -147s-67.667 -64 -117 -64zM414 883.999
l69 -0.00195312c16 0 26.833 -3.66699 32.5 -11s8.5 -29.666 8.5 -66.999c0 -124.667 -17.333 -232 -52 -322c-22 -57.333 -37.667 -101.5 -47 -132.5s-14 -81.167 -14 -150.5v-156c0 -59.333 5 -100.333 15 -123s29.333 -34 58 -34c24 0 43.167 10 57.5 30
s21.5 44.667 21.5 74c0 14.667 -3 39.667 -9 75c-3.33301 24 -5 42.667 -5 56c0 82 44.333 123 133 123s133 -53 133 -159c0 -96 -33 -175.667 -99 -239s-156 -95 -270 -95c-118 0 -215.167 36.833 -291.5 110.5s-114.5 165.834 -114.5 276.501c0 56.667 10.667 111 32 163
s75.333 119.667 162 203c57.333 55.333 92.5 97.833 105.5 127.5s20.5 74.167 22.5 133.5c2 58 5.83301 92 11.5 102s19.167 15 40.5 15z" />
    <glyph glyph-name="Agrave" unicode="&#xc0;" 
d="M508 345l-249.999 -0.00488281l-11 -92c0 -2 -0.666992 -5 -2 -9c-5.33301 -19.333 -8 -36.666 -8 -51.999c0 -24 15.667 -44.333 47 -61c16.667 -8.66699 27 -17.667 31 -27s6 -24.666 6 -45.999c0 -27.333 -1.5 -43.833 -4.5 -49.5s-10.167 -8.5 -21.5 -8.5h-264
c-14.667 0 -22 15.333 -22 46c0 36.667 11.667 66.334 35 89.001c22 20.667 34.667 42.667 38 66l185 1177c3.33301 18 5 33.667 5 47c0 20.667 -14.333 39 -43 55c-13.333 8 -20 25.667 -20 53c0 36.667 2 59.334 6 68.001s14.667 13 32 13h382
c23.333 0 39.666 -11 48.999 -33s18.666 -70 27.999 -144l12 -85l164 -1099c8 -53.333 27.667 -94 59 -122c8.66699 -7.33301 14.334 -13.166 17.001 -17.499s4 -17.5 4 -39.5c0 -34 -2.33301 -54.833 -7 -62.5s-14.667 -11.5 -30 -11.5h-445c-13.333 0 -20 12.667 -20 38
c0 32 1.66699 52 5 60s13 17.333 29 28c23.333 14.667 35 33.334 35 56.001c0 23.333 -7 77.666 -21 162.999zM388.001 1237l-111 -777h220zM592.001 1716l-287 163.998c-36.667 20.667 -55 38.334 -55 53.001c0 16.667 31.333 25 94 25c10 0 20.333 -0.333008 31 -1h47
c41.333 0 68.833 -2.16699 82.5 -6.5s27.167 -17.166 40.5 -38.499l131 -196h-84z" />
    <glyph glyph-name="Aacute" unicode="&#xc1;" 
d="M508 345l-249.999 -0.00488281l-11 -92c0 -2 -0.666992 -5 -2 -9c-5.33301 -19.333 -8 -36.666 -8 -51.999c0 -24 15.667 -44.333 47 -61c16.667 -8.66699 27 -17.667 31 -27s6 -24.666 6 -45.999c0 -27.333 -1.5 -43.833 -4.5 -49.5s-10.167 -8.5 -21.5 -8.5h-264
c-14.667 0 -22 15.333 -22 46c0 36.667 11.667 66.334 35 89.001c22 20.667 34.667 42.667 38 66l185 1177c3.33301 18 5 33.667 5 47c0 20.667 -14.333 39 -43 55c-13.333 8 -20 25.667 -20 53c0 36.667 2 59.334 6 68.001s14.667 13 32 13h382
c23.333 0 39.666 -11 48.999 -33s18.666 -70 27.999 -144l12 -85l164 -1099c8 -53.333 27.667 -94 59 -122c8.66699 -7.33301 14.334 -13.166 17.001 -17.499s4 -17.5 4 -39.5c0 -34 -2.33301 -54.833 -7 -62.5s-14.667 -11.5 -30 -11.5h-445c-13.333 0 -20 12.667 -20 38
c0 32 1.66699 52 5 60s13 17.333 29 28c23.333 14.667 35 33.334 35 56.001c0 23.333 -7 77.666 -21 162.999zM388.001 1237l-111 -777h220zM350.001 1716l116 179c20 30.667 37.5 48.667 52.5 54s58.833 8 131.5 8c59.333 0 95 -1.66699 107 -5s18 -10.333 18 -21
c0 -14.667 -9 -27 -27 -37l-320 -178h-78z" />
    <glyph glyph-name="Acircumflex" unicode="&#xc2;" 
d="M508 345l-249.999 -0.00488281l-11 -92c0 -2 -0.666992 -5 -2 -9c-5.33301 -19.333 -8 -36.666 -8 -51.999c0 -24 15.667 -44.333 47 -61c16.667 -8.66699 27 -17.667 31 -27s6 -24.666 6 -45.999c0 -27.333 -1.5 -43.833 -4.5 -49.5s-10.167 -8.5 -21.5 -8.5h-264
c-14.667 0 -22 15.333 -22 46c0 36.667 11.667 66.334 35 89.001c22 20.667 34.667 42.667 38 66l185 1177c3.33301 18 5 33.667 5 47c0 20.667 -14.333 39 -43 55c-13.333 8 -20 25.667 -20 53c0 36.667 2 59.334 6 68.001s14.667 13 32 13h382
c23.333 0 39.666 -11 48.999 -33s18.666 -70 27.999 -144l12 -85l164 -1099c8 -53.333 27.667 -94 59 -122c8.66699 -7.33301 14.334 -13.166 17.001 -17.499s4 -17.5 4 -39.5c0 -34 -2.33301 -54.833 -7 -62.5s-14.667 -11.5 -30 -11.5h-445c-13.333 0 -20 12.667 -20 38
c0 32 1.66699 52 5 60s13 17.333 29 28c23.333 14.667 35 33.334 35 56.001c0 23.333 -7 77.666 -21 162.999zM388.001 1237l-111 -777h220zM324.001 1962l329 0.000976562l156 -186c18.667 -27.333 28 -43 28 -47c0 -8.66699 -8 -13 -24 -13h-50l-271 149l-278 -149h-50
c-12 0 -18 5.33301 -18 16c0 9.33301 4.66699 19.666 14 30.999z" />
    <glyph glyph-name="Atilde" unicode="&#xc3;" 
d="M508 345l-249.999 -0.00488281l-11 -92c0 -2 -0.666992 -5 -2 -9c-5.33301 -19.333 -8 -36.666 -8 -51.999c0 -24 15.667 -44.333 47 -61c16.667 -8.66699 27 -17.667 31 -27s6 -24.666 6 -45.999c0 -27.333 -1.5 -43.833 -4.5 -49.5s-10.167 -8.5 -21.5 -8.5h-264
c-14.667 0 -22 15.333 -22 46c0 36.667 11.667 66.334 35 89.001c22 20.667 34.667 42.667 38 66l185 1177c3.33301 18 5 33.667 5 47c0 20.667 -14.333 39 -43 55c-13.333 8 -20 25.667 -20 53c0 36.667 2 59.334 6 68.001s14.667 13 32 13h382
c23.333 0 39.666 -11 48.999 -33s18.666 -70 27.999 -144l12 -85l164 -1099c8 -53.333 27.667 -94 59 -122c8.66699 -7.33301 14.334 -13.166 17.001 -17.499s4 -17.5 4 -39.5c0 -34 -2.33301 -54.833 -7 -62.5s-14.667 -11.5 -30 -11.5h-445c-13.333 0 -20 12.667 -20 38
c0 32 1.66699 52 5 60s13 17.333 29 28c23.333 14.667 35 33.334 35 56.001c0 23.333 -7 77.666 -21 162.999zM388.001 1237l-111 -777h220zM165.001 1721c0 75.333 18.666 136.667 55.999 184s79.333 71 126 71c42 0 101 -21 177 -63c56 -30.667 96 -46 120 -46
c26 0 44.5 7.33301 55.5 22s21.167 42 30.5 82h60c-6 -84.667 -27.333 -148.5 -64 -191.5s-79 -64.5 -127 -64.5c-38 0 -94.667 20.667 -170 62c-60.667 33.333 -103 50 -127 50c-18.667 0 -35.167 -6.33301 -49.5 -19s-25.166 -41.667 -32.499 -87h-55z" />
    <glyph glyph-name="Adieresis" unicode="&#xc4;" 
d="M508 345l-249.999 -0.00488281l-11 -92c0 -2 -0.666992 -5 -2 -9c-5.33301 -19.333 -8 -36.666 -8 -51.999c0 -24 15.667 -44.333 47 -61c16.667 -8.66699 27 -17.667 31 -27s6 -24.666 6 -45.999c0 -27.333 -1.5 -43.833 -4.5 -49.5s-10.167 -8.5 -21.5 -8.5h-264
c-14.667 0 -22 15.333 -22 46c0 36.667 11.667 66.334 35 89.001c22 20.667 34.667 42.667 38 66l185 1177c3.33301 18 5 33.667 5 47c0 20.667 -14.333 39 -43 55c-13.333 8 -20 25.667 -20 53c0 36.667 2 59.334 6 68.001s14.667 13 32 13h382
c23.333 0 39.666 -11 48.999 -33s18.666 -70 27.999 -144l12 -85l164 -1099c8 -53.333 27.667 -94 59 -122c8.66699 -7.33301 14.334 -13.166 17.001 -17.499s4 -17.5 4 -39.5c0 -34 -2.33301 -54.833 -7 -62.5s-14.667 -11.5 -30 -11.5h-445c-13.333 0 -20 12.667 -20 38
c0 32 1.66699 52 5 60s13 17.333 29 28c23.333 14.667 35 33.334 35 56.001c0 23.333 -7 77.666 -21 162.999zM388.001 1237l-111 -777h220zM260.001 1920c49.333 0 89.001 -9.16895 119.001 -27.502s45 -44.166 45 -77.499c0 -31.333 -15.5 -55.666 -46.5 -72.999
s-70.167 -26 -117.5 -26c-48.667 0 -88.334 9.33301 -119.001 28s-46 45 -46 79c0 64.667 55 97 165 97zM688.002 1916.99c116 0 174 -34.667 174 -104c0 -63.333 -52 -95 -156 -95c-117.333 0 -176 33.667 -176 101c0 65.333 52.667 98 158 98z" />
    <glyph glyph-name="Aring" unicode="&#xc5;" 
d="M290 1614c-18 31.333 -27.002 64.3281 -27.002 98.9951c0 53.333 18.833 98.833 56.5 136.5s83.167 56.5 136.5 56.5c52.667 0 98 -18.667 136 -56s57 -83 57 -137c0 -32 -9 -65 -27 -99c24 0 41.333 -8.5 52 -25.5s21.334 -67.5 32.001 -151.5l12 -85l164 -1099
c8 -53.333 27.667 -94 59 -122c8.66699 -7.33301 14.334 -13.166 17.001 -17.499s4 -17.5 4 -39.5c0 -34 -2.33301 -54.833 -7 -62.5s-14.667 -11.5 -30 -11.5h-445c-13.333 0 -20 12.667 -20 38c0 32 1.66699 52 5 60s13 17.333 29 28c23.333 14.667 35 33.334 35 56.001
c0 23.333 -7 77.666 -21 162.999h-250l-11 -92c0 -2 -0.666992 -5 -2 -9c-5.33301 -19.333 -8 -36.666 -8 -51.999c0 -24 15.667 -44.333 47 -61c16.667 -8.66699 27 -17.667 31 -27s6 -24.666 6 -45.999c0 -27.333 -1.5 -43.833 -4.5 -49.5s-10.167 -8.5 -21.5 -8.5h-264
c-14.667 0 -22 15.333 -22 46c0 36.667 11.667 66.334 35 89.001c22 20.667 34.667 42.667 38 66l185 1177c3.33301 18 5 33.667 5 47c0 20.667 -14.333 39 -43 55c-13.333 8 -20 25.667 -20 53c0 36.667 2 59.334 6 68.001s14.667 13 32 13h43zM455.998 1812
c-26.667 0 -49.834 -9.66602 -69.501 -28.999s-29.5 -42.666 -29.5 -69.999c0 -28 9.83301 -51.5 29.5 -70.5s42.834 -28.5 69.501 -28.5c27.333 0 50.666 9.66699 69.999 29s29 42.666 29 69.999s-9.66699 50.666 -29 69.999s-42.666 29 -69.999 29zM387.998 1237
l-111 -777h220z" />
    <glyph glyph-name="AE" unicode="&#xc6;" horiz-adv-x="1216" 
d="M845 1499l0.000976562 -575h59c20.667 0 36.334 7.33301 47.001 22s20.334 41.667 29.001 81c6 24 12.833 39.833 20.5 47.5s20.5 11.5 38.5 11.5c3.33301 0 6.66602 -0.333008 9.99902 -1l38 -1c11.333 -3.33301 17 -8.66602 17 -15.999
c0 -0.666992 -0.333008 -5.33398 -1 -14.001v-366c0 -20 -2.66699 -32.333 -8 -37s-18.666 -7 -39.999 -7c-28 0 -45.5 2.33301 -52.5 7s-13.167 17.667 -18.5 39c-20.667 82.667 -45.334 124 -74.001 124h-65v-707h25c43.333 0 72.166 7.66699 86.499 23
s27.5 45.666 39.5 90.999c22 83.333 39 132.5 51 147.5s31.667 22.5 59 22.5c30.667 0 49.5 -1.83301 56.5 -5.5s10.5 -11.167 10.5 -22.5c0 -4 -1 -12 -3 -24l-41 -293c-2.66699 -20 -6.16699 -32.667 -10.5 -38s-15.5 -8 -33.5 -8h-662c-20.667 0 -31 10.333 -31 31v44
c0 30.667 9.66699 50 29 58c34 14.667 51 34 51 58v148h-192l-21 -94c-0.666992 -5.33301 -2 -10.666 -4 -15.999c-6 -20.667 -9 -37.334 -9 -50.001c0 -14 10 -27.333 30 -40c22.667 -15.333 34 -30 34 -44v-81c0 -9.33301 -6.66699 -14 -20 -14h-241
c-14.667 0 -22 9.66699 -22 29c0 2.66699 0.666992 28 2 76c3.33301 12.667 14.333 24 33 34c15.333 8 26.166 18 32.499 30s12.833 34 19.5 66l229 1139c3.33301 15.333 5 30 5 44c0 24.667 -9.66699 44.334 -29 59.001c-20.667 16 -31 50.667 -31 104
c0 15.333 1.83301 24.666 5.5 27.999s11.167 5 22.5 5h769c12.667 0 21.667 -14.333 27 -43l46 -258c2.66699 -12.667 4 -23 4 -31c0 -14.667 -15 -22 -45 -22c-36.667 0 -59.5 3.83301 -68.5 11.5s-22.5 35.834 -40.5 84.501c-23.333 62.667 -42.5 102.167 -57.5 118.5
s-30.5 24.5 -46.5 24.5h-59zM472.001 1338l-172 -884h172v884z" />
    <glyph glyph-name="Ccedilla" unicode="&#xc7;" horiz-adv-x="832" 
d="M520 -18c50.667 -15.333 75.998 -49 75.998 -101c0 -42.667 -18.5 -75.834 -55.5 -99.501s-80.833 -35.5 -131.5 -35.5c-38 0 -57 8.66699 -57 26c0 13.333 12 22.333 36 27c41.333 6.66699 62 23.334 62 50.001c0 10.667 -8 21.334 -24 32.001
c-20.667 12 -31 26.667 -31 44c0 31.333 21.333 51.333 64 60c-126.667 16.667 -225 101.667 -295 255s-105 349.666 -105 588.999c0 190 19.167 341.833 57.5 455.5s87.333 201.5 147 263.5s129.167 93 208.5 93c48 0 89.667 -13 125 -39
c13.333 -9.33301 23.333 -14 30 -14c8 0 19.333 9.33301 34 28c12.667 16.667 24.334 25 35.001 25h52c12 0 21 -4.5 27 -13.5s10.333 -33.167 13 -72.5l23 -322c0.666992 -6.66699 1 -13 1 -19c0 -23.333 -4 -39.666 -12 -48.999s-24 -14 -48 -14
c-29.333 0 -49.666 7.66699 -60.999 23s-22.333 51.666 -33 108.999c-27.333 145.333 -66.333 218 -117 218c-42 0 -63 -52.333 -63 -157v-1125c0 -74.667 22 -112 66 -112c56 0 87.333 62.333 94 187c2 36 9 61 21 75s36.667 21 74 21c28 0 47.5 -5.16699 58.5 -15.5
s16.5 -30.5 16.5 -60.5c0 -88.667 -26 -165.167 -78 -229.5s-122 -98.5 -210 -102.5z" />
    <glyph glyph-name="Egrave" unicode="&#xc8;" horiz-adv-x="853" 
d="M488 1491l0.00195312 -571.001h68c18.667 0 32.334 4 41.001 12s15.334 25.333 20.001 52c8 47.333 14.5 75.666 19.5 84.999s12.833 14 23.5 14c52.667 0 82.5 -2.16699 89.5 -6.5s10.5 -21.166 10.5 -50.499v-333c0 -20.667 -3.33301 -34.167 -10 -40.5
s-27.334 -9.5 -62.001 -9.5c-22.667 0 -37.834 4.16699 -45.501 12.5s-15.167 31.833 -22.5 70.5c-7.33301 35.333 -14.5 57 -21.5 65s-17.833 12 -32.5 12h-78v-689h53c32.667 0 55.167 9.16699 67.5 27.5s32.166 71.166 59.499 158.499c11.333 36.667 23 60.667 35 72
s33 17 63 17c41.333 0 62 -13.333 62 -40c0 -8 -1.33301 -19.667 -4 -35l-37 -227c-6.66699 -41.333 -12.167 -66.166 -16.5 -74.499s-17.833 -12.5 -40.5 -12.5h-667c-16.667 0 -27.334 3.83301 -32.001 11.5s-7 29.834 -7 66.501c0 23.333 12 40.333 36 51
c36.667 15.333 55 36.333 55 63v1247c-0.666992 12.667 -15.667 25.334 -45 38.001c-20 8.66699 -31.833 17 -35.5 25s-5.5 27.333 -5.5 58c0 26 2 41.5 6 46.5s15.667 7.5 35 7.5h638c16 0 27.667 -2.66699 35 -8s13 -18 17 -38l51 -258c2.66699 -13.333 4 -22.333 4 -27
c0 -18 -16 -27 -48 -27c-36 0 -60 4.16699 -72 12.5s-23.667 29.166 -35 62.499c-20.667 60 -38.5 101.667 -53.5 125s-31.833 35 -50.5 35h-68zM493.002 1716l-287 163.998c-36.667 20.667 -55 38.334 -55 53.001c0 16.667 31.333 25 94 25c10 0 20.333 -0.333008 31 -1h47
c41.333 0 68.833 -2.16699 82.5 -6.5s27.167 -17.166 40.5 -38.499l131 -196h-84z" />
    <glyph glyph-name="Eacute" unicode="&#xc9;" horiz-adv-x="853" 
d="M488 1491l0.00195312 -571.001h68c18.667 0 32.334 4 41.001 12s15.334 25.333 20.001 52c8 47.333 14.5 75.666 19.5 84.999s12.833 14 23.5 14c52.667 0 82.5 -2.16699 89.5 -6.5s10.5 -21.166 10.5 -50.499v-333c0 -20.667 -3.33301 -34.167 -10 -40.5
s-27.334 -9.5 -62.001 -9.5c-22.667 0 -37.834 4.16699 -45.501 12.5s-15.167 31.833 -22.5 70.5c-7.33301 35.333 -14.5 57 -21.5 65s-17.833 12 -32.5 12h-78v-689h53c32.667 0 55.167 9.16699 67.5 27.5s32.166 71.166 59.499 158.499c11.333 36.667 23 60.667 35 72
s33 17 63 17c41.333 0 62 -13.333 62 -40c0 -8 -1.33301 -19.667 -4 -35l-37 -227c-6.66699 -41.333 -12.167 -66.166 -16.5 -74.499s-17.833 -12.5 -40.5 -12.5h-667c-16.667 0 -27.334 3.83301 -32.001 11.5s-7 29.834 -7 66.501c0 23.333 12 40.333 36 51
c36.667 15.333 55 36.333 55 63v1247c-0.666992 12.667 -15.667 25.334 -45 38.001c-20 8.66699 -31.833 17 -35.5 25s-5.5 27.333 -5.5 58c0 26 2 41.5 6 46.5s15.667 7.5 35 7.5h638c16 0 27.667 -2.66699 35 -8s13 -18 17 -38l51 -258c2.66699 -13.333 4 -22.333 4 -27
c0 -18 -16 -27 -48 -27c-36 0 -60 4.16699 -72 12.5s-23.667 29.166 -35 62.499c-20.667 60 -38.5 101.667 -53.5 125s-31.833 35 -50.5 35h-68zM285.002 1716l116 179c20 30.667 37.5 48.667 52.5 54s58.833 8 131.5 8c59.333 0 95 -1.66699 107 -5s18 -10.333 18 -21
c0 -14.667 -9 -27 -27 -37l-320 -178h-78z" />
    <glyph glyph-name="Ecircumflex" unicode="&#xca;" horiz-adv-x="853" 
d="M488 1491l0.00195312 -571.001h68c18.667 0 32.334 4 41.001 12s15.334 25.333 20.001 52c8 47.333 14.5 75.666 19.5 84.999s12.833 14 23.5 14c52.667 0 82.5 -2.16699 89.5 -6.5s10.5 -21.166 10.5 -50.499v-333c0 -20.667 -3.33301 -34.167 -10 -40.5
s-27.334 -9.5 -62.001 -9.5c-22.667 0 -37.834 4.16699 -45.501 12.5s-15.167 31.833 -22.5 70.5c-7.33301 35.333 -14.5 57 -21.5 65s-17.833 12 -32.5 12h-78v-689h53c32.667 0 55.167 9.16699 67.5 27.5s32.166 71.166 59.499 158.499c11.333 36.667 23 60.667 35 72
s33 17 63 17c41.333 0 62 -13.333 62 -40c0 -8 -1.33301 -19.667 -4 -35l-37 -227c-6.66699 -41.333 -12.167 -66.166 -16.5 -74.499s-17.833 -12.5 -40.5 -12.5h-667c-16.667 0 -27.334 3.83301 -32.001 11.5s-7 29.834 -7 66.501c0 23.333 12 40.333 36 51
c36.667 15.333 55 36.333 55 63v1247c-0.666992 12.667 -15.667 25.334 -45 38.001c-20 8.66699 -31.833 17 -35.5 25s-5.5 27.333 -5.5 58c0 26 2 41.5 6 46.5s15.667 7.5 35 7.5h638c16 0 27.667 -2.66699 35 -8s13 -18 17 -38l51 -258c2.66699 -13.333 4 -22.333 4 -27
c0 -18 -16 -27 -48 -27c-36 0 -60 4.16699 -72 12.5s-23.667 29.166 -35 62.499c-20.667 60 -38.5 101.667 -53.5 125s-31.833 35 -50.5 35h-68zM259.002 1962l329 0.000976562l156 -186c18.667 -27.333 28 -43 28 -47c0 -8.66699 -8 -13 -24 -13h-50l-271 149l-278 -149
h-50c-12 0 -18 5.33301 -18 16c0 9.33301 4.66699 19.666 14 30.999z" />
    <glyph glyph-name="Edieresis" unicode="&#xcb;" horiz-adv-x="853" 
d="M488 1491l0.00195312 -571.001h68c18.667 0 32.334 4 41.001 12s15.334 25.333 20.001 52c8 47.333 14.5 75.666 19.5 84.999s12.833 14 23.5 14c52.667 0 82.5 -2.16699 89.5 -6.5s10.5 -21.166 10.5 -50.499v-333c0 -20.667 -3.33301 -34.167 -10 -40.5
s-27.334 -9.5 -62.001 -9.5c-22.667 0 -37.834 4.16699 -45.501 12.5s-15.167 31.833 -22.5 70.5c-7.33301 35.333 -14.5 57 -21.5 65s-17.833 12 -32.5 12h-78v-689h53c32.667 0 55.167 9.16699 67.5 27.5s32.166 71.166 59.499 158.499c11.333 36.667 23 60.667 35 72
s33 17 63 17c41.333 0 62 -13.333 62 -40c0 -8 -1.33301 -19.667 -4 -35l-37 -227c-6.66699 -41.333 -12.167 -66.166 -16.5 -74.499s-17.833 -12.5 -40.5 -12.5h-667c-16.667 0 -27.334 3.83301 -32.001 11.5s-7 29.834 -7 66.501c0 23.333 12 40.333 36 51
c36.667 15.333 55 36.333 55 63v1247c-0.666992 12.667 -15.667 25.334 -45 38.001c-20 8.66699 -31.833 17 -35.5 25s-5.5 27.333 -5.5 58c0 26 2 41.5 6 46.5s15.667 7.5 35 7.5h638c16 0 27.667 -2.66699 35 -8s13 -18 17 -38l51 -258c2.66699 -13.333 4 -22.333 4 -27
c0 -18 -16 -27 -48 -27c-36 0 -60 4.16699 -72 12.5s-23.667 29.166 -35 62.499c-20.667 60 -38.5 101.667 -53.5 125s-31.833 35 -50.5 35h-68zM206.002 1920c49.333 0 89.001 -9.16895 119.001 -27.502s45 -44.166 45 -77.499c0 -31.333 -15.5 -55.666 -46.5 -72.999
s-70.167 -26 -117.5 -26c-48.667 0 -88.334 9.33301 -119.001 28s-46 45 -46 79c0 64.667 55 97 165 97zM634.003 1917c116 0 174 -34.667 174 -104c0 -63.333 -52 -95 -156 -95c-117.333 0 -176 33.667 -176 101c0 65.333 52.667 98 158 98z" />
    <glyph glyph-name="Igrave" unicode="&#xcc;" horiz-adv-x="598" 
d="M30 1530l0.00292969 52.999c0 20.667 11 31 33 31h479c18 0 29.667 -2.33301 35 -7s8 -18.667 8 -42c0 -35.333 -1.83301 -57.333 -5.5 -66s-11.834 -14 -24.501 -16c-41.333 -7.33301 -62 -33.666 -62 -78.999v-1202c0 -25.333 15 -45.333 45 -60
c19.333 -9.33301 31 -17.666 35 -24.999s6 -20 6 -38v-39c0 -21.333 -2 -33.333 -6 -36s-14.333 -4 -31 -4h-488c-18.667 0 -28 7.33301 -28 22c0 48 1.66699 77.333 5 88s15 19 35 25c36 10 54 29 54 57v1187c0 28 -3.33301 49.167 -10 63.5s-21.334 26.166 -44.001 35.499
c-16.667 7.33301 -26.834 13.833 -30.501 19.5s-5.5 16.5 -5.5 32.5zM366.003 1716l-287 163.998c-36.667 20.667 -55 38.334 -55 53.001c0 16.667 31.333 25 94 25c10 0 20.333 -0.333008 31 -1h47c41.333 0 68.833 -2.16699 82.5 -6.5s27.167 -17.166 40.5 -38.499
l131 -196h-84z" />
    <glyph glyph-name="Iacute" unicode="&#xcd;" horiz-adv-x="598" 
d="M30 1530l0.00292969 52.999c0 20.667 11 31 33 31h479c18 0 29.667 -2.33301 35 -7s8 -18.667 8 -42c0 -35.333 -1.83301 -57.333 -5.5 -66s-11.834 -14 -24.501 -16c-41.333 -7.33301 -62 -33.666 -62 -78.999v-1202c0 -25.333 15 -45.333 45 -60
c19.333 -9.33301 31 -17.666 35 -24.999s6 -20 6 -38v-39c0 -21.333 -2 -33.333 -6 -36s-14.333 -4 -31 -4h-488c-18.667 0 -28 7.33301 -28 22c0 48 1.66699 77.333 5 88s15 19 35 25c36 10 54 29 54 57v1187c0 28 -3.33301 49.167 -10 63.5s-21.334 26.166 -44.001 35.499
c-16.667 7.33301 -26.834 13.833 -30.501 19.5s-5.5 16.5 -5.5 32.5zM157.003 1716l116 179c20 30.667 37.5 48.667 52.5 54s58.833 8 131.5 8c59.333 0 95 -1.66699 107 -5s18 -10.333 18 -21c0 -14.667 -9 -27 -27 -37l-320 -178h-78z" />
    <glyph glyph-name="Icircumflex" unicode="&#xce;" horiz-adv-x="598" 
d="M30 1530l0.00292969 52.999c0 20.667 11 31 33 31h479c18 0 29.667 -2.33301 35 -7s8 -18.667 8 -42c0 -35.333 -1.83301 -57.333 -5.5 -66s-11.834 -14 -24.501 -16c-41.333 -7.33301 -62 -33.666 -62 -78.999v-1202c0 -25.333 15 -45.333 45 -60
c19.333 -9.33301 31 -17.666 35 -24.999s6 -20 6 -38v-39c0 -21.333 -2 -33.333 -6 -36s-14.333 -4 -31 -4h-488c-18.667 0 -28 7.33301 -28 22c0 48 1.66699 77.333 5 88s15 19 35 25c36 10 54 29 54 57v1187c0 28 -3.33301 49.167 -10 63.5s-21.334 26.166 -44.001 35.499
c-16.667 7.33301 -26.834 13.833 -30.501 19.5s-5.5 16.5 -5.5 32.5zM137.003 1962l329 0.000976562l156 -186c18.667 -27.333 28 -43 28 -47c0 -8.66699 -8 -13 -24 -13h-50l-271 149l-278 -149h-50c-12 0 -18 5.33301 -18 16c0 9.33301 4.66699 19.666 14 30.999z" />
    <glyph glyph-name="Idieresis" unicode="&#xcf;" horiz-adv-x="598" 
d="M29 1530l0.00292969 52.999c0 20.667 11 31 33 31h479c18 0 29.667 -2.33301 35 -7s8 -18.667 8 -42c0 -35.333 -1.83301 -57.333 -5.5 -66s-11.834 -14 -24.501 -16c-41.333 -7.33301 -62 -33.666 -62 -78.999v-1202c0 -25.333 15 -45.333 45 -60
c19.333 -9.33301 31 -17.666 35 -24.999s6 -20 6 -38v-39c0 -21.333 -2 -33.333 -6 -36s-14.333 -4 -31 -4h-488c-18.667 0 -28 7.33301 -28 22c0 48 1.66699 77.333 5 88s15 19 35 25c36 10 54 29 54 57v1187c0 28 -3.33301 49.167 -10 63.5s-21.334 26.166 -44.001 35.499
c-16.667 7.33301 -26.834 13.833 -30.501 19.5s-5.5 16.5 -5.5 32.5zM90.0029 1920c49.333 0 89.001 -9.16895 119.001 -27.502s45 -44.166 45 -77.499c0 -31.333 -15.5 -55.666 -46.5 -72.999s-70.167 -26 -117.5 -26c-48.667 0 -88.334 9.33301 -119.001 28s-46 45 -46 79
c0 64.667 55 97 165 97zM518.004 1917c116 0 174 -34.667 174 -104c0 -63.333 -52 -95 -156 -95c-117.333 0 -176 33.667 -176 101c0 65.333 52.667 98 158 98z" />
    <glyph glyph-name="Eth" unicode="&#xd0;" horiz-adv-x="1109" 
d="M106 786l-90.999 0.00195312v137h91v510c-2 13.333 -14 23.333 -36 30c-16.667 5.33301 -28.167 13.166 -34.5 23.499s-9.5 32.5 -9.5 66.5c0 24.667 4.5 41 13.5 49s31.167 12 66.5 12h479c68.667 0 135.667 -18.833 201 -56.5s118.5 -92.334 159.5 -164.001
s70.333 -159.667 88 -264s26.5 -215.166 26.5 -332.499c0 -266.667 -43.333 -466.167 -130 -598.5s-201.667 -198.5 -345 -198.5h-528c-14.667 0 -24.834 3.5 -30.501 10.5s-8.5 22.5 -8.5 46.5c0 28.667 1 46.667 3 54s12 15.666 30 24.999c36.667 19.333 55 48 55 86v564z
M479.001 786.002v-676h53c37.333 0 64.5 15.5 81.5 46.5s25.5 86.167 25.5 165.5v1022c0 44.667 -10.667 81 -32 109s-51.333 42 -90 42h-38v-572h80v-137h-80z" />
    <glyph glyph-name="Ntilde" unicode="&#xd1;" horiz-adv-x="939" 
d="M278 915l-0.000976562 -705.996c0 -29.333 16.667 -51.333 50 -66c28 -12.667 42 -30.667 42 -54c0 -48.667 -1.16699 -75.667 -3.5 -81s-12.166 -8 -29.499 -8h-266c-13.333 0 -21.666 5.16699 -24.999 15.5s-5 35.833 -5 76.5c0 18.667 9 31.667 27 39
c34.667 15.333 52 32.666 52 51.999v1182c0 28.667 -2.66699 50.167 -8 64.5s-17.333 26.166 -36 35.499c-16.667 8 -27.834 16.667 -33.501 26s-8.5 27 -8.5 53c0 46.667 12.333 70 37 70h278l336 -779v574c0 32 -16.333 54.667 -49 68
c-19.333 8.66699 -31.833 18.5 -37.5 29.5s-8.5 32.5 -8.5 64.5c0 20 2 32.167 6 36.5s11.667 6.5 23 6.5h276c15.333 -2 23 -24 23 -66c0 -24.667 -1.5 -40.334 -4.5 -47.001s-9.83301 -12.334 -20.5 -17.001c-23.333 -9.33301 -38 -18.333 -44 -27s-9 -20.667 -9 -36
v-1421h-170zM177.999 1721c0 75.333 18.666 136.667 55.999 184s79.333 71 126 71c42 0 101 -21 177 -63c56 -30.667 96 -46 120 -46c26 0 44.5 7.33301 55.5 22s21.167 42 30.5 82h60c-6 -84.667 -27.333 -148.5 -64 -191.5s-79 -64.5 -127 -64.5
c-38 0 -94.667 20.667 -170 62c-60.667 33.333 -103 50 -127 50c-18.667 0 -35.167 -6.33301 -49.5 -19s-25.166 -41.667 -32.499 -87h-55z" />
    <glyph glyph-name="Ograve" unicode="&#xd2;" horiz-adv-x="1109" 
d="M556 1641c98 0 182.834 -32.833 254.501 -98.5s130.167 -159.167 175.5 -280.5s68 -277 68 -467c0 -228 -44.167 -420.5 -132.5 -577.5s-212.833 -235.5 -373.5 -235.5c-152.667 0 -273 76.667 -361 230s-132 351.333 -132 594c0 248.667 45.167 450 135.5 604
s212.166 231 365.499 231zM635.001 1404c0 83.333 -27 125 -81 125c-22.667 0 -42 -10.333 -58 -31s-24 -46 -24 -76v-1207c0 -40.667 8 -71.5 24 -92.5s35 -31.5 57 -31.5c24.667 0 44.5 11.667 59.5 35s22.5 49.333 22.5 78v1200zM624.001 1716l-287 163.998
c-36.667 20.667 -55 38.334 -55 53.001c0 16.667 31.333 25 94 25c10 0 20.333 -0.333008 31 -1h47c41.333 0 68.833 -2.16699 82.5 -6.5s27.167 -17.166 40.5 -38.499l131 -196h-84z" />
    <glyph glyph-name="Oacute" unicode="&#xd3;" horiz-adv-x="1109" 
d="M556 1641c98 0 182.834 -32.833 254.501 -98.5s130.167 -159.167 175.5 -280.5s68 -277 68 -467c0 -228 -44.167 -420.5 -132.5 -577.5s-212.833 -235.5 -373.5 -235.5c-152.667 0 -273 76.667 -361 230s-132 351.333 -132 594c0 248.667 45.167 450 135.5 604
s212.166 231 365.499 231zM635.001 1404c0 83.333 -27 125 -81 125c-22.667 0 -42 -10.333 -58 -31s-24 -46 -24 -76v-1207c0 -40.667 8 -71.5 24 -92.5s35 -31.5 57 -31.5c24.667 0 44.5 11.667 59.5 35s22.5 49.333 22.5 78v1200zM415.001 1716l116 179
c20 30.667 37.5 48.667 52.5 54s58.833 8 131.5 8c59.333 0 95 -1.66699 107 -5s18 -10.333 18 -21c0 -14.667 -9 -27 -27 -37l-320 -178h-78z" />
    <glyph glyph-name="Ocircumflex" unicode="&#xd4;" horiz-adv-x="1109" 
d="M556 1641c98 0 182.834 -32.833 254.501 -98.5s130.167 -159.167 175.5 -280.5s68 -277 68 -467c0 -228 -44.167 -420.5 -132.5 -577.5s-212.833 -235.5 -373.5 -235.5c-152.667 0 -273 76.667 -361 230s-132 351.333 -132 594c0 248.667 45.167 450 135.5 604
s212.166 231 365.499 231zM635.001 1404c0 83.333 -27 125 -81 125c-22.667 0 -42 -10.333 -58 -31s-24 -46 -24 -76v-1207c0 -40.667 8 -71.5 24 -92.5s35 -31.5 57 -31.5c24.667 0 44.5 11.667 59.5 35s22.5 49.333 22.5 78v1200zM389.001 1962l329 0.000976562l156 -186
c18.667 -27.333 28 -43 28 -47c0 -8.66699 -8 -13 -24 -13h-50l-271 149l-278 -149h-50c-12 0 -18 5.33301 -18 16c0 9.33301 4.66699 19.666 14 30.999z" />
    <glyph glyph-name="Otilde" unicode="&#xd5;" horiz-adv-x="1109" 
d="M556 1641c98 0 182.834 -32.833 254.501 -98.5s130.167 -159.167 175.5 -280.5s68 -277 68 -467c0 -228 -44.167 -420.5 -132.5 -577.5s-212.833 -235.5 -373.5 -235.5c-152.667 0 -273 76.667 -361 230s-132 351.333 -132 594c0 248.667 45.167 450 135.5 604
s212.166 231 365.499 231zM635.001 1404c0 83.333 -27 125 -81 125c-22.667 0 -42 -10.333 -58 -31s-24 -46 -24 -76v-1207c0 -40.667 8 -71.5 24 -92.5s35 -31.5 57 -31.5c24.667 0 44.5 11.667 59.5 35s22.5 49.333 22.5 78v1200zM254.001 1721
c0 75.333 18.666 136.667 55.999 184s79.333 71 126 71c42 0 101 -21 177 -63c56 -30.667 96 -46 120 -46c26 0 44.5 7.33301 55.5 22s21.167 42 30.5 82h60c-6 -84.667 -27.333 -148.5 -64 -191.5s-79 -64.5 -127 -64.5c-38 0 -94.667 20.667 -170 62
c-60.667 33.333 -103 50 -127 50c-18.667 0 -35.167 -6.33301 -49.5 -19s-25.166 -41.667 -32.499 -87h-55z" />
    <glyph glyph-name="Odieresis" unicode="&#xd6;" horiz-adv-x="1109" 
d="M556 1641c98 0 182.834 -32.833 254.501 -98.5s130.167 -159.167 175.5 -280.5s68 -277 68 -467c0 -228 -44.167 -420.5 -132.5 -577.5s-212.833 -235.5 -373.5 -235.5c-152.667 0 -273 76.667 -361 230s-132 351.333 -132 594c0 248.667 45.167 450 135.5 604
s212.166 231 365.499 231zM635.001 1404c0 83.333 -27 125 -81 125c-22.667 0 -42 -10.333 -58 -31s-24 -46 -24 -76v-1207c0 -40.667 8 -71.5 24 -92.5s35 -31.5 57 -31.5c24.667 0 44.5 11.667 59.5 35s22.5 49.333 22.5 78v1200zM349.001 1920
c49.333 0 89.001 -9.16895 119.001 -27.502s45 -44.166 45 -77.499c0 -31.333 -15.5 -55.666 -46.5 -72.999s-70.167 -26 -117.5 -26c-48.667 0 -88.334 9.33301 -119.001 28s-46 45 -46 79c0 64.667 55 97 165 97zM777.002 1917c116 0 174 -34.667 174 -104
c0 -63.333 -52 -95 -156 -95c-117.333 0 -176 33.667 -176 101c0 65.333 52.667 98 158 98z" />
    <glyph glyph-name="multiply" unicode="&#xd7;" horiz-adv-x="1365" 
d="M158 1174l151 151l375 -375l374 375l152 -152l-373 -374l370 -371l-151 -151l-371 370l-372 -370l-152 151l372 371z" />
    <glyph glyph-name="Oslash" unicode="&#xd8;" horiz-adv-x="1109" 
d="M164 258c-72.667 144 -108.999 326.999 -108.999 548.999c0 252.667 45.667 454.834 137 606.501s212.666 227.5 363.999 227.5c130 0 239 -60.667 327 -182l107 178l90 -66l-131 -220c70 -144 105 -329.333 105 -556c0 -228 -44.167 -420.5 -132.5 -577.5
s-212.5 -235.5 -372.5 -235.5c-128 0 -234 56 -318 168l-108 -181l-87 76zM472.001 772.999l163 272v359c0 83.333 -27 125 -81 125c-23.333 0 -42.833 -10.5 -58.5 -31.5s-23.5 -46.167 -23.5 -75.5v-649zM635.001 825.999l-162.999 -272v-339
c0 -36 7.16699 -65.667 21.5 -89s34.166 -35 59.499 -35c24.667 0 44.5 11.667 59.5 35s22.5 49.333 22.5 78v622z" />
    <glyph glyph-name="Ugrave" unicode="&#xd9;" horiz-adv-x="896" 
d="M71 1614l433.002 0.000976562c14.667 0 24 -3.16699 28 -9.5s6 -25.833 6 -58.5s-9.66699 -54.334 -29 -65.001c-14.667 -8 -24.5 -16.333 -29.5 -25s-7.5 -25.334 -7.5 -50.001v-1120c0 -30.667 8.66699 -55.5 26 -74.5s39.333 -28.5 66 -28.5
c24.667 0 45.667 10.667 63 32s26 45 26 71v1120c0 19.333 -1.83301 32.833 -5.5 40.5s-12.834 17.167 -27.501 28.5c-22.667 17.333 -34 44 -34 80c0 28 3.16699 44.833 9.5 50.5s15.5 8.5 27.5 8.5h216c24 0 36 -12 36 -36v-48c0 -21.333 -1.33301 -34.833 -4 -40.5
s-10.334 -10.834 -23.001 -15.501c-31.333 -10.667 -47 -32.334 -47 -65.001v-1091c0 -103.333 -29.667 -185.166 -89 -245.499s-142 -90.5 -248 -90.5c-118.667 0 -209.167 32 -271.5 96s-93.5 156.333 -93.5 277v1054c0 28 -14.667 48.667 -44 62
c-14.667 6.66699 -23.5 12.834 -26.5 18.501s-4.5 17.834 -4.5 36.501c0 38.667 2.33301 63 7 73s18 15 40 15zM527.002 1716l-287 163.998c-36.667 20.667 -55 38.334 -55 53.001c0 16.667 31.333 25 94 25c10 0 20.333 -0.333008 31 -1h47
c41.333 0 68.833 -2.16699 82.5 -6.5s27.167 -17.166 40.5 -38.499l131 -196h-84z" />
    <glyph glyph-name="Uacute" unicode="&#xda;" horiz-adv-x="896" 
d="M71 1614l433.002 0.000976562c14.667 0 24 -3.16699 28 -9.5s6 -25.833 6 -58.5s-9.66699 -54.334 -29 -65.001c-14.667 -8 -24.5 -16.333 -29.5 -25s-7.5 -25.334 -7.5 -50.001v-1120c0 -30.667 8.66699 -55.5 26 -74.5s39.333 -28.5 66 -28.5
c24.667 0 45.667 10.667 63 32s26 45 26 71v1120c0 19.333 -1.83301 32.833 -5.5 40.5s-12.834 17.167 -27.501 28.5c-22.667 17.333 -34 44 -34 80c0 28 3.16699 44.833 9.5 50.5s15.5 8.5 27.5 8.5h216c24 0 36 -12 36 -36v-48c0 -21.333 -1.33301 -34.833 -4 -40.5
s-10.334 -10.834 -23.001 -15.501c-31.333 -10.667 -47 -32.334 -47 -65.001v-1091c0 -103.333 -29.667 -185.166 -89 -245.499s-142 -90.5 -248 -90.5c-118.667 0 -209.167 32 -271.5 96s-93.5 156.333 -93.5 277v1054c0 28 -14.667 48.667 -44 62
c-14.667 6.66699 -23.5 12.834 -26.5 18.501s-4.5 17.834 -4.5 36.501c0 38.667 2.33301 63 7 73s18 15 40 15zM306.002 1716l116 179c20 30.667 37.5 48.667 52.5 54s58.833 8 131.5 8c59.333 0 95 -1.66699 107 -5s18 -10.333 18 -21c0 -14.667 -9 -27 -27 -37l-320 -178
h-78z" />
    <glyph glyph-name="Ucircumflex" unicode="&#xdb;" horiz-adv-x="896" 
d="M71 1614l433.002 0.000976562c14.667 0 24 -3.16699 28 -9.5s6 -25.833 6 -58.5s-9.66699 -54.334 -29 -65.001c-14.667 -8 -24.5 -16.333 -29.5 -25s-7.5 -25.334 -7.5 -50.001v-1120c0 -30.667 8.66699 -55.5 26 -74.5s39.333 -28.5 66 -28.5
c24.667 0 45.667 10.667 63 32s26 45 26 71v1120c0 19.333 -1.83301 32.833 -5.5 40.5s-12.834 17.167 -27.501 28.5c-22.667 17.333 -34 44 -34 80c0 28 3.16699 44.833 9.5 50.5s15.5 8.5 27.5 8.5h216c24 0 36 -12 36 -36v-48c0 -21.333 -1.33301 -34.833 -4 -40.5
s-10.334 -10.834 -23.001 -15.501c-31.333 -10.667 -47 -32.334 -47 -65.001v-1091c0 -103.333 -29.667 -185.166 -89 -245.499s-142 -90.5 -248 -90.5c-118.667 0 -209.167 32 -271.5 96s-93.5 156.333 -93.5 277v1054c0 28 -14.667 48.667 -44 62
c-14.667 6.66699 -23.5 12.834 -26.5 18.501s-4.5 17.834 -4.5 36.501c0 38.667 2.33301 63 7 73s18 15 40 15zM292.002 1962l329 0.000976562l156 -186c18.667 -27.333 28 -43 28 -47c0 -8.66699 -8 -13 -24 -13h-50l-271 149l-278 -149h-50c-12 0 -18 5.33301 -18 16
c0 9.33301 4.66699 19.666 14 30.999z" />
    <glyph glyph-name="Udieresis" unicode="&#xdc;" horiz-adv-x="896" 
d="M71 1614l433.002 0.000976562c14.667 0 24 -3.16699 28 -9.5s6 -25.833 6 -58.5s-9.66699 -54.334 -29 -65.001c-14.667 -8 -24.5 -16.333 -29.5 -25s-7.5 -25.334 -7.5 -50.001v-1120c0 -30.667 8.66699 -55.5 26 -74.5s39.333 -28.5 66 -28.5
c24.667 0 45.667 10.667 63 32s26 45 26 71v1120c0 19.333 -1.83301 32.833 -5.5 40.5s-12.834 17.167 -27.501 28.5c-22.667 17.333 -34 44 -34 80c0 28 3.16699 44.833 9.5 50.5s15.5 8.5 27.5 8.5h216c24 0 36 -12 36 -36v-48c0 -21.333 -1.33301 -34.833 -4 -40.5
s-10.334 -10.834 -23.001 -15.501c-31.333 -10.667 -47 -32.334 -47 -65.001v-1091c0 -103.333 -29.667 -185.166 -89 -245.499s-142 -90.5 -248 -90.5c-118.667 0 -209.167 32 -271.5 96s-93.5 156.333 -93.5 277v1054c0 28 -14.667 48.667 -44 62
c-14.667 6.66699 -23.5 12.834 -26.5 18.501s-4.5 17.834 -4.5 36.501c0 38.667 2.33301 63 7 73s18 15 40 15zM240.002 1920c49.333 0 89.001 -9.16895 119.001 -27.502s45 -44.166 45 -77.499c0 -31.333 -15.5 -55.666 -46.5 -72.999s-70.167 -26 -117.5 -26
c-48.667 0 -88.334 9.33301 -119.001 28s-46 45 -46 79c0 64.667 55 97 165 97zM668.003 1917c116 0 174 -34.667 174 -104c0 -63.333 -52 -95 -156 -95c-117.333 0 -176 33.667 -176 101c0 65.333 52.667 98 158 98z" />
    <glyph glyph-name="Yacute" unicode="&#xdd;" 
d="M683 723l-0.000976562 -523.999c0 -26.667 17 -46 51 -58c14.667 -5.33301 24.834 -10.833 30.501 -16.5s8.5 -29.167 8.5 -70.5c0 -25.333 -2.66699 -40.666 -8 -45.999s-16 -8 -32 -8h-474c-23.333 0 -35 10.333 -35 31v59c0 24.667 15.333 42 46 52
c16 5.33301 26.667 11.833 32 19.5s8 22.167 8 43.5v492l-201 711c-10 35.333 -28.667 58.666 -56 69.999c-14.667 6.66699 -22 17.667 -22 33v76c0 18 9.66699 27 29 27h424c12 0 20 -3.33301 24 -10s6 -24.334 6 -53.001s-1.16699 -46.834 -3.5 -54.501
s-8.83301 -14.5 -19.5 -20.5c-15.333 -10 -23 -22.667 -23 -38c0 -8.66699 1.66699 -18.667 5 -30l131 -446l135 446c0.666992 4 1 10.333 1 19c0 21.333 -13 43.333 -39 66c-12 10.667 -18 20.334 -18 29.001v59c0 22 9.66699 33 29 33h219c20 0 30 -11 30 -33v-63
c0 -11.333 -7.33301 -22.333 -22 -33c-25.333 -18 -43 -43.667 -53 -77zM348.999 1716l116 179c20 30.667 37.5 48.667 52.5 54s58.833 8 131.5 8c59.333 0 95 -1.66699 107 -5s18 -10.333 18 -21c0 -14.667 -9 -27 -27 -37l-320 -178h-78z" />
    <glyph glyph-name="Thorn" unicode="&#xde;" horiz-adv-x="1115" 
d="M492 1389l97.0039 -0.998047c148 0 265.667 -47.167 353 -141.5s131 -224.833 131 -391.5c0 -82 -14 -166.833 -42 -254.5s-82.333 -155.667 -163 -204s-164.334 -72.5 -251.001 -72.5h-125v-107c0 -38.667 16.667 -64 50 -76c16 -6 27.167 -14.167 33.5 -24.5
s9.5 -29.5 9.5 -57.5c0 -26.667 -3.66699 -43.167 -11 -49.5s-22 -9.5 -44 -9.5h-453c-24 0 -36 21 -36 63c0 33.333 1.66699 53.833 5 61.5s14.666 14.5 33.999 20.5c17.333 5.33301 28.166 11.166 32.499 17.499s6.5 17.166 6.5 32.499v1208
c0 28.667 -17.667 51.667 -53 69c-18.667 10 -28.334 25.333 -29.001 46l-1 47c0 20 2.5 33.167 7.5 39.5s16.167 9.5 33.5 9.5h434c42.667 0 64 -24.333 64 -73c0 -30 -14.667 -57.667 -44 -83c-26 -22.667 -39 -45.667 -39 -69zM492.004 1277l0.000976562 -837.999h70
c27.333 0 49.666 15.167 66.999 45.5s26 72.166 26 125.499v499c0 112 -37.333 168 -112 168h-51z" />
    <glyph glyph-name="germandbls" unicode="&#xdf;" horiz-adv-x="1003" 
d="M432 679l-0.00195312 -593.999c0 -56.667 -18.667 -85 -56 -85h-291c-15.333 0 -25.5 2.16699 -30.5 6.5s-7.5 14.833 -7.5 31.5v47c0 16 8 31 24 45c20 17.333 30 37.333 30 60v1237c0 59.333 19.167 111.333 57.5 156s99.5 67 183.5 67c118.667 0 178 -38 178 -114
c0 -31.333 -11.167 -56 -33.5 -74s-44.5 -27 -66.5 -27c-19.333 0 -43.666 8.33301 -72.999 25c-31.333 19.333 -56.333 29 -75 29c-32 0 -48 -18.333 -48 -55c0 -24 7.5 -40.833 22.5 -50.5s42.5 -14.834 82.5 -15.501c46.667 -1.33301 75.5 -7.33301 86.5 -18
s16.5 -31.667 16.5 -63v-95c82.667 115.333 168.334 173 257.001 173c67.333 0 124.833 -24.167 172.5 -72.5s71.5 -109.166 71.5 -182.499c0 -121.333 -81.667 -224 -245 -308c170 -28 255 -159.333 255 -394c0 -136 -25.833 -254.167 -77.5 -354.5
s-116.667 -175.666 -195 -225.999s-134.5 -75.5 -168.5 -75.5c-16 0 -24 12 -24 36c0 39.333 1.33301 63.666 4 72.999s8.66699 17 18 23c22.667 15.333 39.667 39.166 51 71.499s17 102.5 17 210.5l6 359c0 80 -5.5 129.833 -16.5 149.5s-27.833 29.5 -50.5 29.5
c-17.333 0 -42.333 -8.33301 -75 -25zM431.998 1070l-0.000976562 -272.001c64 24.667 104.333 47.834 121 69.501s25 68.167 25 139.5c0 54 -5.5 86.833 -16.5 98.5s-23.833 17.5 -38.5 17.5c-21.333 0 -51.666 -17.667 -90.999 -53z" />
    <glyph glyph-name="agrave" unicode="&#xe0;" 
d="M563 969l-0.00292969 193.001c0 53.333 -21.667 80 -65 80c-59.333 0 -89 -40.333 -89 -121c0 -45.333 -5.16699 -77.666 -15.5 -96.999s-33.666 -35.833 -69.999 -49.5s-75.166 -20.5 -116.499 -20.5c-84.667 0 -127 45.333 -127 136c0 85.333 36.833 155 110.5 209
s169.834 81 288.501 81c78 0 148.167 -10.667 210.5 -32s112.166 -57.333 149.499 -108s56 -106.334 56 -167.001v-913c1.33301 -4.66699 11.333 -14.667 30 -30c13.333 -10 20 -24.667 20 -44c0 -26.667 -3.66699 -45.5 -11 -56.5s-25.166 -21.167 -53.499 -30.5
s-63.833 -14 -106.5 -14c-52 0 -95.333 9.5 -130 28.5s-61.667 56.167 -81 111.5c-58 -60 -105 -98.333 -141 -115s-73 -25 -111 -25c-84.667 0 -150.167 33.167 -196.5 99.5s-69.5 174.833 -69.5 325.5s21.667 255.167 65 313.5s128 112.166 254 161.499
c80 30.667 146.333 58.667 199 84zM562.997 839.001c-75.333 -33.333 -120.333 -70.834 -135 -112.501s-22 -135.5 -22 -281.5c0 -107.333 6 -175.166 18 -203.499s32.667 -42.5 62 -42.5c51.333 0 77 42.667 77 128v512zM565.997 1492l-287 163.998
c-36.667 20.667 -55 38.334 -55 53.001c0 16.667 31.333 25 94 25c10 0 20.333 -0.333008 31 -1h47c41.333 0 68.833 -2.16699 82.5 -6.5s27.167 -17.166 40.5 -38.499l131 -196h-84z" />
    <glyph glyph-name="aacute" unicode="&#xe1;" 
d="M563 969l-0.00292969 193.001c0 53.333 -21.667 80 -65 80c-59.333 0 -89 -40.333 -89 -121c0 -45.333 -5.16699 -77.666 -15.5 -96.999s-33.666 -35.833 -69.999 -49.5s-75.166 -20.5 -116.499 -20.5c-84.667 0 -127 45.333 -127 136c0 85.333 36.833 155 110.5 209
s169.834 81 288.501 81c78 0 148.167 -10.667 210.5 -32s112.166 -57.333 149.499 -108s56 -106.334 56 -167.001v-913c1.33301 -4.66699 11.333 -14.667 30 -30c13.333 -10 20 -24.667 20 -44c0 -26.667 -3.66699 -45.5 -11 -56.5s-25.166 -21.167 -53.499 -30.5
s-63.833 -14 -106.5 -14c-52 0 -95.333 9.5 -130 28.5s-61.667 56.167 -81 111.5c-58 -60 -105 -98.333 -141 -115s-73 -25 -111 -25c-84.667 0 -150.167 33.167 -196.5 99.5s-69.5 174.833 -69.5 325.5s21.667 255.167 65 313.5s128 112.166 254 161.499
c80 30.667 146.333 58.667 199 84zM562.997 839.001c-75.333 -33.333 -120.333 -70.834 -135 -112.501s-22 -135.5 -22 -281.5c0 -107.333 6 -175.166 18 -203.499s32.667 -42.5 62 -42.5c51.333 0 77 42.667 77 128v512zM357.997 1492l116 179
c20 30.667 37.5 48.667 52.5 54s58.833 8 131.5 8c59.333 0 95 -1.66699 107 -5s18 -10.333 18 -21c0 -14.667 -9 -27 -27 -37l-320 -178h-78z" />
    <glyph glyph-name="acircumflex" unicode="&#xe2;" 
d="M563 969l-0.00292969 193.001c0 53.333 -21.667 80 -65 80c-59.333 0 -89 -40.333 -89 -121c0 -45.333 -5.16699 -77.666 -15.5 -96.999s-33.666 -35.833 -69.999 -49.5s-75.166 -20.5 -116.499 -20.5c-84.667 0 -127 45.333 -127 136c0 85.333 36.833 155 110.5 209
s169.834 81 288.501 81c78 0 148.167 -10.667 210.5 -32s112.166 -57.333 149.499 -108s56 -106.334 56 -167.001v-913c1.33301 -4.66699 11.333 -14.667 30 -30c13.333 -10 20 -24.667 20 -44c0 -26.667 -3.66699 -45.5 -11 -56.5s-25.166 -21.167 -53.499 -30.5
s-63.833 -14 -106.5 -14c-52 0 -95.333 9.5 -130 28.5s-61.667 56.167 -81 111.5c-58 -60 -105 -98.333 -141 -115s-73 -25 -111 -25c-84.667 0 -150.167 33.167 -196.5 99.5s-69.5 174.833 -69.5 325.5s21.667 255.167 65 313.5s128 112.166 254 161.499
c80 30.667 146.333 58.667 199 84zM562.997 839.001c-75.333 -33.333 -120.333 -70.834 -135 -112.501s-22 -135.5 -22 -281.5c0 -107.333 6 -175.166 18 -203.499s32.667 -42.5 62 -42.5c51.333 0 77 42.667 77 128v512zM343.997 1738l329 0.000976562l156 -186
c18.667 -27.333 28 -43 28 -47c0 -8.66699 -8 -13 -24 -13h-50l-271 149l-278 -149h-50c-12 0 -18 5.33301 -18 16c0 9.33301 4.66699 19.666 14 30.999z" />
    <glyph glyph-name="atilde" unicode="&#xe3;" 
d="M563 969l-0.00292969 193.001c0 53.333 -21.667 80 -65 80c-59.333 0 -89 -40.333 -89 -121c0 -45.333 -5.16699 -77.666 -15.5 -96.999s-33.666 -35.833 -69.999 -49.5s-75.166 -20.5 -116.499 -20.5c-84.667 0 -127 45.333 -127 136c0 85.333 36.833 155 110.5 209
s169.834 81 288.501 81c78 0 148.167 -10.667 210.5 -32s112.166 -57.333 149.499 -108s56 -106.334 56 -167.001v-913c1.33301 -4.66699 11.333 -14.667 30 -30c13.333 -10 20 -24.667 20 -44c0 -26.667 -3.66699 -45.5 -11 -56.5s-25.166 -21.167 -53.499 -30.5
s-63.833 -14 -106.5 -14c-52 0 -95.333 9.5 -130 28.5s-61.667 56.167 -81 111.5c-58 -60 -105 -98.333 -141 -115s-73 -25 -111 -25c-84.667 0 -150.167 33.167 -196.5 99.5s-69.5 174.833 -69.5 325.5s21.667 255.167 65 313.5s128 112.166 254 161.499
c80 30.667 146.333 58.667 199 84zM562.997 839.001c-75.333 -33.333 -120.333 -70.834 -135 -112.501s-22 -135.5 -22 -281.5c0 -107.333 6 -175.166 18 -203.499s32.667 -42.5 62 -42.5c51.333 0 77 42.667 77 128v512zM208.997 1498c0 75.333 18.666 136.667 55.999 184
s79.333 71 126 71c42 0 101 -21 177 -63c56 -30.667 96 -46 120 -46c26 0 44.5 7.33301 55.5 22s21.167 42 30.5 82h60c-6 -84.667 -27.333 -148.5 -64 -191.5s-79 -64.5 -127 -64.5c-38 0 -94.667 20.667 -170 62c-60.667 33.333 -103 50 -127 50
c-18.667 0 -35.167 -6.33301 -49.5 -19s-25.166 -41.667 -32.499 -87h-55z" />
    <glyph glyph-name="adieresis" unicode="&#xe4;" 
d="M563 969l-0.00292969 193.001c0 53.333 -21.667 80 -65 80c-59.333 0 -89 -40.333 -89 -121c0 -45.333 -5.16699 -77.666 -15.5 -96.999s-33.666 -35.833 -69.999 -49.5s-75.166 -20.5 -116.499 -20.5c-84.667 0 -127 45.333 -127 136c0 85.333 36.833 155 110.5 209
s169.834 81 288.501 81c78 0 148.167 -10.667 210.5 -32s112.166 -57.333 149.499 -108s56 -106.334 56 -167.001v-913c1.33301 -4.66699 11.333 -14.667 30 -30c13.333 -10 20 -24.667 20 -44c0 -26.667 -3.66699 -45.5 -11 -56.5s-25.166 -21.167 -53.499 -30.5
s-63.833 -14 -106.5 -14c-52 0 -95.333 9.5 -130 28.5s-61.667 56.167 -81 111.5c-58 -60 -105 -98.333 -141 -115s-73 -25 -111 -25c-84.667 0 -150.167 33.167 -196.5 99.5s-69.5 174.833 -69.5 325.5s21.667 255.167 65 313.5s128 112.166 254 161.499
c80 30.667 146.333 58.667 199 84zM562.997 839.001c-75.333 -33.333 -120.333 -70.834 -135 -112.501s-22 -135.5 -22 -281.5c0 -107.333 6 -175.166 18 -203.499s32.667 -42.5 62 -42.5c51.333 0 77 42.667 77 128v512zM290.997 1696
c49.333 0 89.001 -9.16895 119.001 -27.502s45 -44.166 45 -77.499c0 -31.333 -15.5 -55.666 -46.5 -72.999s-70.167 -26 -117.5 -26c-48.667 0 -88.334 9.33301 -119.001 28s-46 45 -46 79c0 64.667 55 97 165 97zM718.998 1693c116 0 174 -34.667 174 -104
c0 -63.333 -52 -95 -156 -95c-117.333 0 -176 33.667 -176 101c0 65.333 52.667 98 158 98z" />
    <glyph glyph-name="aring" unicode="&#xe5;" 
d="M563 969l-0.00292969 193.001c0 53.333 -21.667 80 -65 80c-59.333 0 -89 -40.333 -89 -121c0 -45.333 -5.16699 -77.666 -15.5 -96.999s-33.666 -35.833 -69.999 -49.5s-75.166 -20.5 -116.499 -20.5c-84.667 0 -127 45.333 -127 136c0 85.333 36.833 155 110.5 209
s169.834 81 288.501 81c78 0 148.167 -10.667 210.5 -32s112.166 -57.333 149.499 -108s56 -106.334 56 -167.001v-913c1.33301 -4.66699 11.333 -14.667 30 -30c13.333 -10 20 -24.667 20 -44c0 -26.667 -3.66699 -45.5 -11 -56.5s-25.166 -21.167 -53.499 -30.5
s-63.833 -14 -106.5 -14c-52 0 -95.333 9.5 -130 28.5s-61.667 56.167 -81 111.5c-58 -60 -105 -98.333 -141 -115s-73 -25 -111 -25c-84.667 0 -150.167 33.167 -196.5 99.5s-69.5 174.833 -69.5 325.5s21.667 255.167 65 313.5s128 112.166 254 161.499
c80 30.667 146.333 58.667 199 84zM562.997 839.001c-75.333 -33.333 -120.333 -70.834 -135 -112.501s-22 -135.5 -22 -281.5c0 -107.333 6 -175.166 18 -203.499s32.667 -42.5 62 -42.5c51.333 0 77 42.667 77 128v512zM514.997 1878c51.333 0 96.333 -18.167 135 -54.5
s58 -82.5 58 -138.5c0 -54 -19 -99.667 -57 -137s-83.333 -56 -136 -56s-98 18.833 -136 56.5s-57 83.167 -57 136.5c0 55.333 19.333 101.333 58 138s83.667 55 135 55zM514.997 1784c-26.667 0 -49.833 -9.66602 -69.5 -28.999s-29.5 -42.333 -29.5 -69
c0 -28 9.83301 -51.5 29.5 -70.5s42.834 -28.5 69.501 -28.5c27.333 0 50.666 9.66699 69.999 29s29 42.666 29 69.999c0 28 -10 51.333 -30 70s-43 28 -69 28z" />
    <glyph glyph-name="ae" unicode="&#xe6;" horiz-adv-x="1387" 
d="M719 1284c84.667 64 170 95.999 256 95.999c117.333 0 208.5 -48 273.5 -144s97.5 -224.667 97.5 -386v-140h-453v-404c0 -122.667 40.667 -184 122 -184c52.667 0 93 23.167 121 69.5s42.333 101.833 43 166.5c0 38 6 62.167 18 72.5s32.333 15.5 61 15.5
c34.667 0 58.834 -5.66699 72.501 -17s20.5 -33.333 20.5 -66c0 -90 -33.167 -175.5 -99.5 -256.5s-157.5 -121.5 -273.5 -121.5c-134 0 -241.333 58 -322 174c-58 -56 -113.167 -99 -165.5 -129s-109.833 -45 -172.5 -45c-89.333 0 -156.833 35 -202.5 105
s-68.5 182.667 -68.5 338c0 127.333 20.333 219.666 61 276.999s130.667 117.333 270 180c93.333 42 154.666 77.333 183.999 106c-2.66699 121.333 -11.667 192.333 -27 213s-37 31 -65 31c-48 0 -72 -35.333 -72 -106c0 -6.66699 0.333008 -13 1 -19v-25
c0 -33.333 -5.33301 -56.666 -16 -69.999s-39 -28.166 -85 -44.499s-82.667 -24.5 -110 -24.5c-78 0 -117 44.333 -117 133c0 86 36.833 157.667 110.5 215s165.5 86 275.5 86c106.667 0 194 -32 262 -96zM1034 835.999v315c0 64 -20.667 96 -62 96
c-30.667 0 -51.5 -12.167 -62.5 -36.5s-16.5 -71.5 -16.5 -141.5v-233h141zM562 835.999l-50 -35.001c-49.333 -34 -78.333 -61.167 -87 -81.5s-13 -77.166 -13 -170.499c0 -164.667 5.33301 -265 16 -301s29.667 -54 57 -54c25.333 0 51 14.333 77 43v599z" />
    <glyph glyph-name="ccedilla" unicode="&#xe7;" horiz-adv-x="789" 
d="M469 -14c49.333 -15.333 74.002 -48.6699 74.002 -100.003c0 -38.667 -17.333 -70.834 -52 -96.501s-79.667 -38.5 -135 -38.5c-38 0 -57 8.33301 -57 25c0 14 12 23 36 27c41.333 7.33301 62 24.333 62 51c0 10.667 -8.33301 21 -25 31
c-20 12.667 -30 27.334 -30 44.001c0 30.667 20 50.667 60 60c-103.333 16.667 -187.5 82.334 -252.5 197.001s-97.5 272.667 -97.5 474c0 161.333 19 295.5 57 402.5s84.167 186.667 138.5 239s122.166 78.5 203.499 78.5c96.667 0 173.167 -32.333 229.5 -97
s84.5 -139 84.5 -223c0 -44 -9.33301 -81.333 -28 -112s-47 -46 -85 -46c-39.333 0 -69.5 14.667 -90.5 44s-31.5 66 -31.5 110c0 18.667 2 40.334 6 65.001c5.33301 28.667 8 51.334 8 68.001c0 17.333 -6.33301 32 -19 44s-27.334 18 -44.001 18c-16 0 -29.667 -7 -41 -21
s-17 -29.333 -17 -46v-969c0 -23.333 6.83301 -44.166 20.5 -62.499s32.834 -27.5 57.501 -27.5c33.333 0 59.166 20.833 77.499 62.5s27.5 94.5 27.5 158.5l-1 28c0 35.333 6.5 56.333 19.5 63s35.167 10 66.5 10s51 -5.83301 59 -17.5s12 -31.834 12 -60.501
c0 -108 -27.167 -197.667 -81.5 -269s-124.833 -109.333 -211.5 -114z" />
    <glyph glyph-name="egrave" unicode="&#xe8;" horiz-adv-x="917" 
d="M421 703v-409.001c0 -54 10.5 -96.333 31.5 -127s47.833 -46 80.5 -46c50.667 0 91.167 21.5 121.5 64.5s46.5 101.833 48.5 176.5c0.666992 40 4.5 64 11.5 72s31.167 12 72.5 12c36 0 58.833 -3.66699 68.5 -11s14.5 -25.666 14.5 -54.999
c0 -102.667 -33.333 -194 -100 -274s-155 -120 -265 -120c-126 0 -233 57.167 -321 171.5s-132 286.5 -132 516.5s40.667 405.167 122 525.5s188 180.5 320 180.5c113.333 0 204.333 -50.667 273 -152s103 -245.333 103 -432v-93h-449zM556 827.999v331
c0 62.667 -22.333 94 -67 94c-45.333 0 -68 -31.333 -68 -94v-331h135zM548 1492l-287 163.998c-36.667 20.667 -55 38.334 -55 53.001c0 16.667 31.333 25 94 25c10 0 20.333 -0.333008 31 -1h47c41.333 0 68.833 -2.16699 82.5 -6.5s27.167 -17.166 40.5 -38.499l131 -196
h-84z" />
    <glyph glyph-name="eacute" unicode="&#xe9;" horiz-adv-x="917" 
d="M421 703v-409.001c0 -54 10.5 -96.333 31.5 -127s47.833 -46 80.5 -46c50.667 0 91.167 21.5 121.5 64.5s46.5 101.833 48.5 176.5c0.666992 40 4.5 64 11.5 72s31.167 12 72.5 12c36 0 58.833 -3.66699 68.5 -11s14.5 -25.666 14.5 -54.999
c0 -102.667 -33.333 -194 -100 -274s-155 -120 -265 -120c-126 0 -233 57.167 -321 171.5s-132 286.5 -132 516.5s40.667 405.167 122 525.5s188 180.5 320 180.5c113.333 0 204.333 -50.667 273 -152s103 -245.333 103 -432v-93h-449zM556 827.999v331
c0 62.667 -22.333 94 -67 94c-45.333 0 -68 -31.333 -68 -94v-331h135zM315 1492l116 179c20 30.667 37.5 48.667 52.5 54s58.833 8 131.5 8c59.333 0 95 -1.66699 107 -5s18 -10.333 18 -21c0 -14.667 -9 -27 -27 -37l-320 -178h-78z" />
    <glyph glyph-name="ecircumflex" unicode="&#xea;" horiz-adv-x="917" 
d="M421 703v-409.001c0 -54 10.5 -96.333 31.5 -127s47.833 -46 80.5 -46c50.667 0 91.167 21.5 121.5 64.5s46.5 101.833 48.5 176.5c0.666992 40 4.5 64 11.5 72s31.167 12 72.5 12c36 0 58.833 -3.66699 68.5 -11s14.5 -25.666 14.5 -54.999
c0 -102.667 -33.333 -194 -100 -274s-155 -120 -265 -120c-126 0 -233 57.167 -321 171.5s-132 286.5 -132 516.5s40.667 405.167 122 525.5s188 180.5 320 180.5c113.333 0 204.333 -50.667 273 -152s103 -245.333 103 -432v-93h-449zM556 827.999v331
c0 62.667 -22.333 94 -67 94c-45.333 0 -68 -31.333 -68 -94v-331h135zM325 1738l329 0.000976562l156 -186c18.667 -27.333 28 -43 28 -47c0 -8.66699 -8 -13 -24 -13h-50l-271 149l-278 -149h-50c-12 0 -18 5.33301 -18 16c0 9.33301 4.66699 19.666 14 30.999z" />
    <glyph glyph-name="edieresis" unicode="&#xeb;" horiz-adv-x="917" 
d="M421 703v-409.001c0 -54 10.5 -96.333 31.5 -127s47.833 -46 80.5 -46c50.667 0 91.167 21.5 121.5 64.5s46.5 101.833 48.5 176.5c0.666992 40 4.5 64 11.5 72s31.167 12 72.5 12c36 0 58.833 -3.66699 68.5 -11s14.5 -25.666 14.5 -54.999
c0 -102.667 -33.333 -194 -100 -274s-155 -120 -265 -120c-126 0 -233 57.167 -321 171.5s-132 286.5 -132 516.5s40.667 405.167 122 525.5s188 180.5 320 180.5c113.333 0 204.333 -50.667 273 -152s103 -245.333 103 -432v-93h-449zM556 827.999v331
c0 62.667 -22.333 94 -67 94c-45.333 0 -68 -31.333 -68 -94v-331h135zM267 1696c49.333 0 89.001 -9.16895 119.001 -27.502s45 -44.166 45 -77.499c0 -31.333 -15.5 -55.666 -46.5 -72.999s-70.167 -26 -117.5 -26c-48.667 0 -88.334 9.33301 -119.001 28s-46 45 -46 79
c0 64.667 55 97 165 97zM695.001 1693c116 0 174 -34.667 174 -104c0 -63.333 -52 -95 -156 -95c-117.333 0 -176 33.667 -176 101c0 65.333 52.667 98 158 98z" />
    <glyph glyph-name="igrave" unicode="&#xec;" horiz-adv-x="533" 
d="M47 1267v66.001c0 22 13.333 33 40 33h319c22.667 0 34 -11 34 -33v-1150c0 -16 1 -26.333 3 -31s8 -9 18 -13c24 -9.33301 36 -30 36 -62c0 -36.667 -1.66699 -58.667 -5 -66s-14 -11 -32 -11h-388c-9.33301 1.33301 -15.333 5.5 -18 12.5s-4 25.5 -4 55.5
c0 36 8.66699 57 26 63c21.333 7.33301 32 20.666 32 39.999v997c0 38.667 -14.333 62 -43 70c-12 3.33301 -18 13 -18 29zM333 1492l-287 163.998c-36.667 20.667 -55 38.334 -55 53.001c0 16.667 31.333 25 94 25c10 0 20.333 -0.333008 31 -1h47
c41.333 0 68.833 -2.16699 82.5 -6.5s27.167 -17.166 40.5 -38.499l131 -196h-84z" />
    <glyph glyph-name="iacute" unicode="&#xed;" horiz-adv-x="533" 
d="M47 1267v66.001c0 22 13.333 33 40 33h319c22.667 0 34 -11 34 -33v-1150c0 -16 1 -26.333 3 -31s8 -9 18 -13c24 -9.33301 36 -30 36 -62c0 -36.667 -1.66699 -58.667 -5 -66s-14 -11 -32 -11h-388c-9.33301 1.33301 -15.333 5.5 -18 12.5s-4 25.5 -4 55.5
c0 36 8.66699 57 26 63c21.333 7.33301 32 20.666 32 39.999v997c0 38.667 -14.333 62 -43 70c-12 3.33301 -18 13 -18 29zM124 1492l116 179c20 30.667 37.5 48.667 52.5 54s58.833 8 131.5 8c59.333 0 95 -1.66699 107 -5s18 -10.333 18 -21c0 -14.667 -9 -27 -27 -37
l-320 -178h-78z" />
    <glyph glyph-name="icircumflex" unicode="&#xee;" horiz-adv-x="533" 
d="M47 1267v66.001c0 22 13.333 33 40 33h319c22.667 0 34 -11 34 -33v-1150c0 -16 1 -26.333 3 -31s8 -9 18 -13c24 -9.33301 36 -30 36 -62c0 -36.667 -1.66699 -58.667 -5 -66s-14 -11 -32 -11h-388c-9.33301 1.33301 -15.333 5.5 -18 12.5s-4 25.5 -4 55.5
c0 36 8.66699 57 26 63c21.333 7.33301 32 20.666 32 39.999v997c0 38.667 -14.333 62 -43 70c-12 3.33301 -18 13 -18 29zM98 1738l329 0.000976562l156 -186c18.667 -27.333 28 -43 28 -47c0 -8.66699 -8 -13 -24 -13h-50l-271 149l-278 -149h-50
c-12 0 -18 5.33301 -18 16c0 9.33301 4.66699 19.666 14 30.999z" />
    <glyph glyph-name="idieresis" unicode="&#xef;" horiz-adv-x="533" 
d="M47 1267v66.001c0 22 13.333 33 40 33h319c22.667 0 34 -11 34 -33v-1150c0 -16 1 -26.333 3 -31s8 -9 18 -13c24 -9.33301 36 -30 36 -62c0 -36.667 -1.66699 -58.667 -5 -66s-14 -11 -32 -11h-388c-9.33301 1.33301 -15.333 5.5 -18 12.5s-4 25.5 -4 55.5
c0 36 8.66699 57 26 63c21.333 7.33301 32 20.666 32 39.999v997c0 38.667 -14.333 62 -43 70c-12 3.33301 -18 13 -18 29zM58 1696c49.333 0 89.001 -9.16895 119.001 -27.502s45 -44.166 45 -77.499c0 -31.333 -15.5 -55.666 -46.5 -72.999s-70.167 -26 -117.5 -26
c-48.667 0 -88.334 9.33301 -119.001 28s-46 45 -46 79c0 64.667 55 97 165 97zM486.001 1693c116 0 174 -34.667 174 -104c0 -63.333 -52 -95 -156 -95c-117.333 0 -176 33.667 -176 101c0 65.333 52.667 98 158 98z" />
    <glyph glyph-name="eth" unicode="&#xf0;" horiz-adv-x="962" 
d="M569 1579l131 31.999l22 -88l-74 -19c73.333 -81.333 135.333 -192.333 186 -333s76 -298 76 -472c0 -160 -18.667 -292.5 -56 -397.5s-88.833 -183.833 -154.5 -236.5s-140.5 -79 -224.5 -79c-81.333 0 -155.833 28 -223.5 84s-117.834 136.667 -150.501 242
s-49 218.333 -49 339c0 216 34.333 382 103 498s159 174 271 174c36.667 0 72 -7.66699 106 -23c-11.333 54.667 -34.666 107.334 -69.999 158.001l-181 -45l-22 88l140 35c-39.333 42 -79.333 73 -120 93h218c30 -16 54 -32.667 72 -50zM552 1068c0 86.667 -25 130 -75 130
c-46 0 -69 -43.333 -69 -130v-822c0 -86 24 -129 72 -129s72 49.667 72 149v802z" />
    <glyph glyph-name="ntilde" unicode="&#xf1;" horiz-adv-x="1003" 
d="M431 1230c79.333 100 170 149.999 272 149.999c70 0 123.333 -22.5 160 -67.5s55 -101.5 55 -169.5v-958c0 -21.333 8.33301 -37.666 25 -48.999c15.333 -9.33301 23 -33.333 23 -72c0 -30.667 -2.5 -49 -7.5 -55s-15.5 -9 -31.5 -9h-281c-40 34 -60 78.333 -60 133v951
c0 52 -21.333 78 -64 78c-28 0 -58.333 -14.667 -91 -44v-933c0 -24 11.667 -42.667 35 -56c14 -8 21 -22.667 21 -44v-51c0 -22.667 -16.333 -34 -49 -34h-355c-17.333 0 -28.333 2.5 -33 7.5s-7 17.5 -7 37.5v37c0 19.333 6 33 18 41c16 11.333 26.333 22 31 32s7 32 7 66
v978c0 23.333 -11.333 40.333 -34 51c-12.667 6 -19 16.667 -19 32v53c0 20.667 9.33301 31 28 31h326c14 0 22.667 -2 26 -6s5 -12.333 5 -25v-105zM207 1498c0 75.333 18.666 136.667 55.999 184s79.333 71 126 71c42 0 101 -21 177 -63c56 -30.667 96 -46 120 -46
c26 0 44.5 7.33301 55.5 22s21.167 42 30.5 82h60c-6 -84.667 -27.333 -148.5 -64 -191.5s-79 -64.5 -127 -64.5c-38 0 -94.667 20.667 -170 62c-60.667 33.333 -103 50 -127 50c-18.667 0 -35.167 -6.33301 -49.5 -19s-25.166 -41.667 -32.499 -87h-55z" />
    <glyph glyph-name="ograve" unicode="&#xf2;" 
d="M490 1380c125.333 0 230 -56.168 314 -168.501s126 -279.166 126 -500.499c0 -238.667 -42.667 -419.167 -128 -541.5s-191.666 -183.5 -318.999 -183.5c-88 0 -164.333 28 -229 84s-114.5 130.667 -149.5 224s-52.5 221 -52.5 383c0 231.333 40.167 406.333 120.5 525
s186.166 178 317.499 178zM562 1129c0 82.667 -24 124 -72 124c-52 0 -78 -50.667 -78 -152v-831c0 -100.667 23.667 -151 71 -151c52.667 0 79 50.333 79 151v859zM569 1492l-287 163.998c-36.667 20.667 -55 38.334 -55 53.001c0 16.667 31.333 25 94 25
c10 0 20.333 -0.333008 31 -1h47c41.333 0 68.833 -2.16699 82.5 -6.5s27.167 -17.166 40.5 -38.499l131 -196h-84z" />
    <glyph glyph-name="oacute" unicode="&#xf3;" 
d="M490 1380c125.333 0 230 -56.168 314 -168.501s126 -279.166 126 -500.499c0 -238.667 -42.667 -419.167 -128 -541.5s-191.666 -183.5 -318.999 -183.5c-88 0 -164.333 28 -229 84s-114.5 130.667 -149.5 224s-52.5 221 -52.5 383c0 231.333 40.167 406.333 120.5 525
s186.166 178 317.499 178zM562 1129c0 82.667 -24 124 -72 124c-52 0 -78 -50.667 -78 -152v-831c0 -100.667 23.667 -151 71 -151c52.667 0 79 50.333 79 151v859zM360 1492l116 179c20 30.667 37.5 48.667 52.5 54s58.833 8 131.5 8c59.333 0 95 -1.66699 107 -5
s18 -10.333 18 -21c0 -14.667 -9 -27 -27 -37l-320 -178h-78z" />
    <glyph glyph-name="ocircumflex" unicode="&#xf4;" 
d="M490 1380c125.333 0 230 -56.168 314 -168.501s126 -279.166 126 -500.499c0 -238.667 -42.667 -419.167 -128 -541.5s-191.666 -183.5 -318.999 -183.5c-88 0 -164.333 28 -229 84s-114.5 130.667 -149.5 224s-52.5 221 -52.5 383c0 231.333 40.167 406.333 120.5 525
s186.166 178 317.499 178zM562 1129c0 82.667 -24 124 -72 124c-52 0 -78 -50.667 -78 -152v-831c0 -100.667 23.667 -151 71 -151c52.667 0 79 50.333 79 151v859zM334 1738l329 0.000976562l156 -186c18.667 -27.333 28 -43 28 -47c0 -8.66699 -8 -13 -24 -13h-50
l-271 149l-278 -149h-50c-12 0 -18 5.33301 -18 16c0 9.33301 4.66699 19.666 14 30.999z" />
    <glyph glyph-name="otilde" unicode="&#xf5;" 
d="M490 1380c125.333 0 230 -56.168 314 -168.501s126 -279.166 126 -500.499c0 -238.667 -42.667 -419.167 -128 -541.5s-191.666 -183.5 -318.999 -183.5c-88 0 -164.333 28 -229 84s-114.5 130.667 -149.5 224s-52.5 221 -52.5 383c0 231.333 40.167 406.333 120.5 525
s186.166 178 317.499 178zM562 1129c0 82.667 -24 124 -72 124c-52 0 -78 -50.667 -78 -152v-831c0 -100.667 23.667 -151 71 -151c52.667 0 79 50.333 79 151v859zM187 1498c0 75.333 18.666 136.667 55.999 184s79.333 71 126 71c42 0 101 -21 177 -63
c56 -30.667 96 -46 120 -46c26 0 44.5 7.33301 55.5 22s21.167 42 30.5 82h60c-6 -84.667 -27.333 -148.5 -64 -191.5s-79 -64.5 -127 -64.5c-38 0 -94.667 20.667 -170 62c-60.667 33.333 -103 50 -127 50c-18.667 0 -35.167 -6.33301 -49.5 -19
s-25.166 -41.667 -32.499 -87h-55z" />
    <glyph glyph-name="odieresis" unicode="&#xf6;" 
d="M490 1380c125.333 0 230 -56.168 314 -168.501s126 -279.166 126 -500.499c0 -238.667 -42.667 -419.167 -128 -541.5s-191.666 -183.5 -318.999 -183.5c-88 0 -164.333 28 -229 84s-114.5 130.667 -149.5 224s-52.5 221 -52.5 383c0 231.333 40.167 406.333 120.5 525
s186.166 178 317.499 178zM562 1129c0 82.667 -24 124 -72 124c-52 0 -78 -50.667 -78 -152v-831c0 -100.667 23.667 -151 71 -151c52.667 0 79 50.333 79 151v859zM282 1696c49.333 0 89.001 -9.16895 119.001 -27.502s45 -44.166 45 -77.499
c0 -31.333 -15.5 -55.666 -46.5 -72.999s-70.167 -26 -117.5 -26c-48.667 0 -88.334 9.33301 -119.001 28s-46 45 -46 79c0 64.667 55 97 165 97zM710.001 1693c116 0 174 -34.667 174 -104c0 -63.333 -52 -95 -156 -95c-117.333 0 -176 33.667 -176 101
c0 65.333 52.667 98 158 98z" />
    <glyph glyph-name="divide" unicode="&#xf7;" horiz-adv-x="1365" 
d="M679 1349c34.667 0 64.833 -12.167 90.5 -36.5s38.5 -54.833 38.5 -91.5c0 -35.333 -12.5 -65.5 -37.5 -90.5s-55.5 -37.5 -91.5 -37.5c-35.333 0 -65.5 12.667 -90.5 38s-37.5 55.333 -37.5 90c0 36 12.667 66.333 38 91s55.333 37 90 37zM125.999 903h1114v-204h-1114
v204zM680.999 518c35.333 0 65.833 -12.3311 91.5 -36.998s38.5 -55.334 38.5 -92.001c0 -35.333 -12.667 -65.666 -38 -90.999s-56 -38 -92 -38c-35.333 0 -65.666 12.667 -90.999 38s-38 55.666 -38 90.999s12.667 65.666 38 90.999s55.666 38 90.999 38z" />
    <glyph glyph-name="oslash" unicode="&#xf8;" 
d="M841 1149c59.333 -114 89 -260.332 89 -438.999c0 -238 -42.667 -418.167 -128 -540.5s-191.666 -183.5 -318.999 -183.5c-105.333 0 -194 40.333 -266 121l-84 -140l-112 66l114 190c-55.333 105.333 -83 256.666 -83 453.999c0 155.333 19 286.833 57 394.5
s91.667 186 161 235s141.666 73.5 216.999 73.5c106 0 197.333 -38.667 274 -116l84 139l110 -64zM412 683.001l150 249v197c0 82.667 -24 124 -72 124c-52 0 -78 -50.667 -78 -152v-418zM562 683.001l-150 -250v-163c0 -100.667 23.667 -151 71 -151
c52.667 0 79 50.333 79 151v413z" />
    <glyph glyph-name="ugrave" unicode="&#xf9;" horiz-adv-x="1003" 
d="M96 1213l-20.001 8.99902c-16.667 7.33301 -27.167 14.5 -31.5 21.5s-6.5 21.5 -6.5 43.5c0 12 -0.333008 22 -1 30c0 20 2.83301 33.167 8.5 39.5s18.167 9.5 37.5 9.5h311c15.333 0 24.666 -2.33301 27.999 -7s5 -16 5 -34v-985c0 -86 23.667 -129 71 -129
c36 0 63.333 15.333 82 46v925c0 24 -11.667 42.667 -35 56c-11.333 6.66699 -18.166 13.834 -20.499 21.501s-3.5 33.5 -3.5 77.5c0 19.333 11.333 29 34 29h327c14 0 22.5 -2 25.5 -6s4.5 -14.667 4.5 -32v-1146c0 -22 9 -37.333 27 -46c22 -12 33 -32 33 -60
c0 -40 -1.5 -62.667 -4.5 -68s-13.5 -8 -31.5 -8h-304c-19.333 0 -32.666 3.5 -39.999 10.5s-11 22.167 -11 45.5v25c0 26.667 -0.333008 41.667 -1 45c-106 -93.333 -195.667 -140 -269 -140c-63.333 0 -115 21 -155 63s-60 123 -60 243v921zM572.999 1492l-287 163.998
c-36.667 20.667 -55 38.334 -55 53.001c0 16.667 31.333 25 94 25c10 0 20.333 -0.333008 31 -1h47c41.333 0 68.833 -2.16699 82.5 -6.5s27.167 -17.166 40.5 -38.499l131 -196h-84z" />
    <glyph glyph-name="uacute" unicode="&#xfa;" horiz-adv-x="1003" 
d="M96 1213l-20.001 8.99902c-16.667 7.33301 -27.167 14.5 -31.5 21.5s-6.5 21.5 -6.5 43.5c0 12 -0.333008 22 -1 30c0 20 2.83301 33.167 8.5 39.5s18.167 9.5 37.5 9.5h311c15.333 0 24.666 -2.33301 27.999 -7s5 -16 5 -34v-985c0 -86 23.667 -129 71 -129
c36 0 63.333 15.333 82 46v925c0 24 -11.667 42.667 -35 56c-11.333 6.66699 -18.166 13.834 -20.499 21.501s-3.5 33.5 -3.5 77.5c0 19.333 11.333 29 34 29h327c14 0 22.5 -2 25.5 -6s4.5 -14.667 4.5 -32v-1146c0 -22 9 -37.333 27 -46c22 -12 33 -32 33 -60
c0 -40 -1.5 -62.667 -4.5 -68s-13.5 -8 -31.5 -8h-304c-19.333 0 -32.666 3.5 -39.999 10.5s-11 22.167 -11 45.5v25c0 26.667 -0.333008 41.667 -1 45c-106 -93.333 -195.667 -140 -269 -140c-63.333 0 -115 21 -155 63s-60 123 -60 243v921zM364.999 1492l116 179
c20 30.667 37.5 48.667 52.5 54s58.833 8 131.5 8c59.333 0 95 -1.66699 107 -5s18 -10.333 18 -21c0 -14.667 -9 -27 -27 -37l-320 -178h-78z" />
    <glyph glyph-name="ucircumflex" unicode="&#xfb;" horiz-adv-x="1003" 
d="M96 1213l-20.001 8.99902c-16.667 7.33301 -27.167 14.5 -31.5 21.5s-6.5 21.5 -6.5 43.5c0 12 -0.333008 22 -1 30c0 20 2.83301 33.167 8.5 39.5s18.167 9.5 37.5 9.5h311c15.333 0 24.666 -2.33301 27.999 -7s5 -16 5 -34v-985c0 -86 23.667 -129 71 -129
c36 0 63.333 15.333 82 46v925c0 24 -11.667 42.667 -35 56c-11.333 6.66699 -18.166 13.834 -20.499 21.501s-3.5 33.5 -3.5 77.5c0 19.333 11.333 29 34 29h327c14 0 22.5 -2 25.5 -6s4.5 -14.667 4.5 -32v-1146c0 -22 9 -37.333 27 -46c22 -12 33 -32 33 -60
c0 -40 -1.5 -62.667 -4.5 -68s-13.5 -8 -31.5 -8h-304c-19.333 0 -32.666 3.5 -39.999 10.5s-11 22.167 -11 45.5v25c0 26.667 -0.333008 41.667 -1 45c-106 -93.333 -195.667 -140 -269 -140c-63.333 0 -115 21 -155 63s-60 123 -60 243v921zM338.999 1738l329 0.000976562
l156 -186c18.667 -27.333 28 -43 28 -47c0 -8.66699 -8 -13 -24 -13h-50l-271 149l-278 -149h-50c-12 0 -18 5.33301 -18 16c0 9.33301 4.66699 19.666 14 30.999z" />
    <glyph glyph-name="udieresis" unicode="&#xfc;" horiz-adv-x="1003" 
d="M96 1213l-20.001 8.99902c-16.667 7.33301 -27.167 14.5 -31.5 21.5s-6.5 21.5 -6.5 43.5c0 12 -0.333008 22 -1 30c0 20 2.83301 33.167 8.5 39.5s18.167 9.5 37.5 9.5h311c15.333 0 24.666 -2.33301 27.999 -7s5 -16 5 -34v-985c0 -86 23.667 -129 71 -129
c36 0 63.333 15.333 82 46v925c0 24 -11.667 42.667 -35 56c-11.333 6.66699 -18.166 13.834 -20.499 21.501s-3.5 33.5 -3.5 77.5c0 19.333 11.333 29 34 29h327c14 0 22.5 -2 25.5 -6s4.5 -14.667 4.5 -32v-1146c0 -22 9 -37.333 27 -46c22 -12 33 -32 33 -60
c0 -40 -1.5 -62.667 -4.5 -68s-13.5 -8 -31.5 -8h-304c-19.333 0 -32.666 3.5 -39.999 10.5s-11 22.167 -11 45.5v25c0 26.667 -0.333008 41.667 -1 45c-106 -93.333 -195.667 -140 -269 -140c-63.333 0 -115 21 -155 63s-60 123 -60 243v921zM285.999 1696
c49.333 0 89.001 -9.16895 119.001 -27.502s45 -44.166 45 -77.499c0 -31.333 -15.5 -55.666 -46.5 -72.999s-70.167 -26 -117.5 -26c-48.667 0 -88.334 9.33301 -119.001 28s-46 45 -46 79c0 64.667 55 97 165 97zM714 1693c116 0 174 -34.667 174 -104
c0 -63.333 -52 -95 -156 -95c-117.333 0 -176 33.667 -176 101c0 65.333 52.667 98 158 98z" />
    <glyph glyph-name="yacute" unicode="&#xfd;" horiz-adv-x="853" 
d="M524 598l101.003 526.996c2 8 3.33301 14 4 18c4.66699 20 7 33 7 39c0 17.333 -12 35.333 -36 54c-11.333 8.66699 -18.333 18.667 -21 30s-4 34 -4 68c0 21.333 9.33301 32 28 32h172c19.333 0 32.5 -4 39.5 -12s10.5 -29 10.5 -63c0 -20 -1.16699 -31.667 -3.5 -35
s-9.83301 -9.66602 -22.5 -18.999c-18.667 -12.667 -32.334 -42 -41.001 -88l-167 -880c-29.333 -153.333 -51.166 -251.833 -65.499 -295.5s-36.666 -82.667 -66.999 -117s-66 -60.166 -107 -77.499s-88.5 -26 -142.5 -26c-58.667 0 -103.834 13.833 -135.501 41.5
s-47.5 63.834 -47.5 108.501c0 32.667 10.667 58.667 32 78s47.666 29 78.999 29c46.667 0 79.667 -27.333 99 -82c9.33301 -26.667 23 -40 41 -40c34 0 51 17.667 51 53c0 11.333 -6.66699 48.666 -20 111.999l-214 1037c-10 50 -18.5 84.5 -25.5 103.5
s-16.833 31.5 -29.5 37.5c-12 6 -18 18.333 -18 37v56c0 18.667 2.66699 30.334 8 35.001s15.666 7 30.999 7h352c18.667 0 31 -2.16699 37 -6.5s9 -14.166 9 -29.499c0 -32.667 -1.33301 -54 -4 -64s-10.334 -17.667 -23.001 -23c-20 -8 -30 -24.667 -30 -50
c0 -14.667 2.33301 -33.667 7 -57zM278.003 1492l116 179c20 30.667 37.5 48.667 52.5 54s58.833 8 131.5 8c59.333 0 95 -1.66699 107 -5s18 -10.333 18 -21c0 -14.667 -9 -27 -27 -37l-320 -178h-78z" />
    <glyph glyph-name="thorn" unicode="&#xfe;" horiz-adv-x="1003" 
d="M432 1277c72 68.667 145.666 103.001 220.999 103.001c100.667 0 175.834 -51.167 225.501 -153.5s74.5 -274.5 74.5 -516.5c0 -144 -7.5 -268.833 -22.5 -374.5s-50.833 -188 -107.5 -247s-116.667 -88.5 -180 -88.5c-83.333 0 -153.666 46 -210.999 138v-223
c0 -22.667 12.667 -38.334 38 -47.001c24.667 -8.66699 37 -25 37 -49v-36c0 -14 -1.66699 -22.5 -5 -25.5s-12.333 -4.5 -27 -4.5h-385c-26.667 0 -40 6.66699 -40 20v37c0 24.667 11.333 43.667 34 57c11.333 6.66699 17 17.334 17 32.001v1543
c0 24 -8.66699 42.333 -26 55c-12 9.33301 -19.167 16.166 -21.5 20.499s-3.5 13.833 -3.5 28.5v32c0 17.333 1.83301 27.666 5.5 30.999s13.5 5 29.5 5h305c19.333 0 31.166 -2.16699 35.499 -6.5s6.5 -16.166 6.5 -35.499v-295zM585.999 1079
c0 41.333 -8.33398 72.167 -25.001 92.5s-35 30.5 -55 30.5c-14.667 0 -30.667 -8.66699 -48 -26s-26 -37 -26 -59v-840c0 -18 9.33301 -37 28 -57s40.334 -30 65.001 -30c40.667 0 61 31.667 61 95v794z" />
    <glyph glyph-name="ydieresis" unicode="&#xff;" horiz-adv-x="853" 
d="M524 598l101.003 526.996c2 8 3.33301 14 4 18c4.66699 20 7 33 7 39c0 17.333 -12 35.333 -36 54c-11.333 8.66699 -18.333 18.667 -21 30s-4 34 -4 68c0 21.333 9.33301 32 28 32h172c19.333 0 32.5 -4 39.5 -12s10.5 -29 10.5 -63c0 -20 -1.16699 -31.667 -3.5 -35
s-9.83301 -9.66602 -22.5 -18.999c-18.667 -12.667 -32.334 -42 -41.001 -88l-167 -880c-29.333 -153.333 -51.166 -251.833 -65.499 -295.5s-36.666 -82.667 -66.999 -117s-66 -60.166 -107 -77.499s-88.5 -26 -142.5 -26c-58.667 0 -103.834 13.833 -135.501 41.5
s-47.5 63.834 -47.5 108.501c0 32.667 10.667 58.667 32 78s47.666 29 78.999 29c46.667 0 79.667 -27.333 99 -82c9.33301 -26.667 23 -40 41 -40c34 0 51 17.667 51 53c0 11.333 -6.66699 48.666 -20 111.999l-214 1037c-10 50 -18.5 84.5 -25.5 103.5
s-16.833 31.5 -29.5 37.5c-12 6 -18 18.333 -18 37v56c0 18.667 2.66699 30.334 8 35.001s15.666 7 30.999 7h352c18.667 0 31 -2.16699 37 -6.5s9 -14.166 9 -29.499c0 -32.667 -1.33301 -54 -4 -64s-10.334 -17.667 -23.001 -23c-20 -8 -30 -24.667 -30 -50
c0 -14.667 2.33301 -33.667 7 -57zM193.003 1696c49.333 0 89.001 -9.16895 119.001 -27.502s45 -44.166 45 -77.499c0 -31.333 -15.5 -55.666 -46.5 -72.999s-70.167 -26 -117.5 -26c-48.667 0 -88.334 9.33301 -119.001 28s-46 45 -46 79c0 64.667 55 97 165 97z
M621.004 1692.99c116 0 174 -34.667 174 -104c0 -63.333 -52 -95 -156 -95c-117.333 0 -176 33.667 -176 101c0 65.333 52.667 98 158 98z" />
    <glyph glyph-name="dotlessi" unicode="&#x131;" horiz-adv-x="533" 
d="M47 1267v66.001c0 22 13.333 33 40 33h319c22.667 0 34 -11 34 -33v-1150c0 -16 1 -26.333 3 -31s8 -9 18 -13c24 -9.33301 36 -30 36 -62c0 -36.667 -1.66699 -58.667 -5 -66s-14 -11 -32 -11h-388c-9.33301 1.33301 -15.333 5.5 -18 12.5s-4 25.5 -4 55.5
c0 36 8.66699 57 26 63c21.333 7.33301 32 20.666 32 39.999v997c0 38.667 -14.333 62 -43 70c-12 3.33301 -18 13 -18 29z" />
    <glyph glyph-name="OE" unicode="&#x152;" horiz-adv-x="1344" 
d="M971 1496l0.00390625 -569.997h75c20 0 35 6 45 18s18 39.667 24 83c2.66699 22.667 9.33398 37.334 20.001 44.001s29.667 10 57 10c24 0 38.333 -2.83301 43 -8.5s7 -18.167 7 -37.5v-328c0 -28.667 -2.33301 -45.834 -7 -51.501s-17.334 -8.5 -38.001 -8.5
c-38.667 0 -62.834 4.66699 -72.501 14s-19.834 40.333 -30.501 93c-4.66699 24.667 -11.5 41 -20.5 49s-25.833 12 -50.5 12h-52v-702h65c25.333 0 44.5 10.667 57.5 32s29.167 64 48.5 128c18 60.667 32.833 94.667 44.5 102s31.5 11 59.5 11
c29.333 0 47.166 -1.83301 53.499 -5.5s9.5 -10.834 9.5 -21.501c0 -7.33301 -1.33301 -19.333 -4 -36l-46 -276c-4 -23.333 -8.5 -37 -13.5 -41s-18.167 -6 -39.5 -6h-574c-13.333 0 -31.333 -0.666992 -54 -2c-26.667 -2 -43 -3 -49 -3
c-112.667 0 -202.667 28.5 -270 85.5s-119.5 139 -156.5 246s-55.5 277.833 -55.5 512.5c0 241.333 41.667 431.166 125 569.499s196.666 207.5 339.999 207.5l174 -2h513c14 0 23.167 -2.83301 27.5 -8.5s9.5 -21.5 15.5 -47.5l58 -263c2 -8.66699 3 -16.667 3 -24
c0 -12.667 -26 -19 -78 -19c-20.667 0 -35.667 6.16699 -45 18.5s-26.333 50.5 -51 114.5c-19.333 49.333 -34.833 80.166 -46.5 92.499s-27.167 18.5 -46.5 18.5h-65zM620.004 1385c0 74 -25 111 -75 111c-24 0 -43.5 -8.16699 -58.5 -24.5s-22.5 -35.5 -22.5 -57.5v-1200
c0 -24.667 6.5 -47.167 19.5 -67.5s31.167 -30.5 54.5 -30.5c24.667 0 44.5 10 59.5 30s22.5 45.667 22.5 77v1162z" />
    <glyph glyph-name="oe" unicode="&#x153;" horiz-adv-x="1387" 
d="M729 88c-74.667 -68 -155.999 -102 -243.999 -102c-66.667 0 -132 19.667 -196 59s-119 112.5 -165 219.5s-69 246.167 -69 417.5c0 159.333 16.333 287.5 49 384.5s83.334 173.5 152.001 229.5s148 84 238 84c82.667 0 161 -27.667 235 -83
c53.333 55.333 127.666 83 222.999 83c88.667 0 163.167 -26.5 223.5 -79.5s104.666 -124 132.999 -213s42.5 -215.167 42.5 -378.5h-451v-415c0 -110.667 39.667 -166 119 -166c45.333 0 83.166 16 113.499 48s45.5 96.667 45.5 194c0 46 6 71.167 18 75.5
s39.667 6.5 83 6.5c30 0 49 -3 57 -9s12 -22.667 12 -50c0 -110 -33.5 -205.5 -100.5 -286.5s-152.5 -121.5 -256.5 -121.5c-99.333 0 -186.666 34.333 -261.999 103zM1036 836v312c0 70 -24.333 105 -73 105c-42 0 -63 -35 -63 -105v-312h136zM568.001 1133
c0 80 -24.333 120 -73 120c-51.333 0 -77 -35 -77 -105v-886c0 -92 24.667 -138 74 -138c50.667 0 76 46 76 138v871z" />
    <glyph glyph-name="Scaron" unicode="&#x160;" horiz-adv-x="768" 
d="M498 1571c4 3.33301 15.333 18.332 34 44.999c12 17.333 28 26 48 26c4.66699 0 23.334 -2.33301 56.001 -7c6.66699 -6.66699 11.667 -20.667 15 -42l54 -339c2.66699 -18 4 -28.667 4 -32c0 -12.667 -3.5 -21 -10.5 -25s-25.5 -6 -55.5 -6c-34 0 -56 4.33301 -66 13
s-29 44.667 -57 108c-59.333 134 -112.333 201 -159 201c-33.333 0 -50 -23.333 -50 -70c0 -58 50.333 -172 151 -342c115.333 -196 190.5 -337.833 225.5 -425.5s52.5 -185.834 52.5 -294.501c0 -128.667 -30.333 -227.334 -91 -296.001s-129 -103 -205 -103
c-48 0 -94.333 13.667 -139 41c-17.333 10.667 -31 16 -41 16c-8.66699 0 -15.667 -6.33301 -21 -19c-10.667 -25.333 -36.667 -38 -78 -38c-16 0 -26.833 2.5 -32.5 7.5s-9.83398 18.167 -12.501 39.5l-50 333c-6.66699 42.667 -10 65.334 -10 68.001
c0 19.333 17.667 29 53 29c48 0 76.333 -6.33301 85 -19s21 -41.667 37 -87c58.667 -162 117.667 -243 177 -243c22 0 39.833 8 53.5 24s20.5 36 20.5 60c0 42 -15.167 91.833 -45.5 149.5s-67.5 121.834 -111.5 192.501c-105.333 169.333 -179.833 304.5 -223.5 405.5
s-65.5 204.167 -65.5 309.5c0 118.667 26 213.334 78 284.001s115.667 106 191 106c52 0 115 -23.333 189 -70zM220 1716l-163 197c-9.33301 10.667 -14 19.667 -14 27c0 12.667 7.66699 19 23 19h49l270 -148l269 144h54c14 0 21 -5 21 -15
c0 -7.33301 -4.66699 -17 -14 -29l-160 -195h-335z" />
    <glyph glyph-name="scaron" unicode="&#x161;" horiz-adv-x="683" 
d="M572 1343l55 -276.998c1.33301 -8.66699 2 -16.334 2 -23.001c0 -18.667 -18 -28 -54 -28c-24 0 -41.5 3 -52.5 9s-23.5 22 -37.5 48c-16 30.667 -40.333 67 -73 109s-62 63 -88 63c-10 0 -18.833 -4.66699 -26.5 -14s-11.5 -20.333 -11.5 -33
c0 -34 48.667 -130.333 146 -289c84 -138 141 -246.333 171 -325s45 -167.334 45 -266.001c0 -104.667 -22.667 -186.167 -68 -244.5s-98.666 -87.5 -159.999 -87.5c-38.667 0 -79.334 14 -122.001 42c-23.333 15.333 -39 23 -47 23
c-9.33301 0 -14.666 -7.66699 -15.999 -23c-2.66699 -18 -6.66699 -29.5 -12 -34.5s-22.666 -7.5 -51.999 -7.5c-22.667 0 -37.334 3.33301 -44.001 10s-11.334 18.334 -14.001 35.001l-50 279c-2 13.333 -3 21.666 -3 24.999c0 18.667 22.333 28 67 28
c23.333 0 39.5 -3 48.5 -9s20.5 -23.333 34.5 -52c52 -108.667 101.333 -163 148 -163c30 0 45 18 45 54c0 32 -11.167 71.667 -33.5 119s-65.833 125 -130.5 233c-68 114.667 -117.167 210.667 -147.5 288s-45.5 155 -45.5 233c0 106 22.667 185 68 237s100.333 78 165 78
c34 0 72.667 -11.667 116 -35c22 -12 37 -18 45 -18c10.667 0 17 7 19 21c2.66699 14.667 8 23.667 16 27s25 5 51 5c16.667 0 27.5 -1.83301 32.5 -5.5s9.5 -14.167 13.5 -31.5zM177 1492l-163 197c-9.33301 10.667 -14 19.667 -14 27c0 12.667 7.66699 19 23 19h49
l270 -148l269 144h54c14 0 21 -5 21 -15c0 -7.33301 -4.66699 -17 -14 -29l-160 -195h-335z" />
    <glyph glyph-name="Ydieresis" unicode="&#x178;" 
d="M683 723l-0.000976562 -523.999c0 -26.667 17 -46 51 -58c14.667 -5.33301 24.834 -10.833 30.501 -16.5s8.5 -29.167 8.5 -70.5c0 -25.333 -2.66699 -40.666 -8 -45.999s-16 -8 -32 -8h-474c-23.333 0 -35 10.333 -35 31v59c0 24.667 15.333 42 46 52
c16 5.33301 26.667 11.833 32 19.5s8 22.167 8 43.5v492l-201 711c-10 35.333 -28.667 58.666 -56 69.999c-14.667 6.66699 -22 17.667 -22 33v76c0 18 9.66699 27 29 27h424c12 0 20 -3.33301 24 -10s6 -24.334 6 -53.001s-1.16699 -46.834 -3.5 -54.501
s-8.83301 -14.5 -19.5 -20.5c-15.333 -10 -23 -22.667 -23 -38c0 -8.66699 1.66699 -18.667 5 -30l131 -446l135 446c0.666992 4 1 10.333 1 19c0 21.333 -13 43.333 -39 66c-12 10.667 -18 20.334 -18 29.001v59c0 22 9.66699 33 29 33h219c20 0 30 -11 30 -33v-63
c0 -11.333 -7.33301 -22.333 -22 -33c-25.333 -18 -43 -43.667 -53 -77zM282.999 1920c49.333 0 89.001 -9.16895 119.001 -27.502s45 -44.166 45 -77.499c0 -31.333 -15.5 -55.666 -46.5 -72.999s-70.167 -26 -117.5 -26c-48.667 0 -88.334 9.33301 -119.001 28
s-46 45 -46 79c0 64.667 55 97 165 97zM711 1917c116 0 174 -34.667 174 -104c0 -63.333 -52 -95 -156 -95c-117.333 0 -176 33.667 -176 101c0 65.333 52.667 98 158 98z" />
    <glyph glyph-name="florin" unicode="&#x192;" horiz-adv-x="853" 
d="M128 1l149.999 776.998c0.666992 5.33301 1 10.333 1 15c0 12 -9 27 -27 45c-11.333 11.333 -17 19.333 -17 24c0 2.66699 0.666992 8.33398 2 17.001l10 60c4 24 16.333 36 37 36h32l87 455c12 60.667 43.667 112.5 95 155.5s117.333 64.5 198 64.5
c97.333 0 146 -29.333 146 -88c0 -39.333 -11.333 -70.666 -34 -93.999s-50 -35 -82 -35c-21.333 0 -45.333 10 -72 30c-25.333 18.667 -44.333 28 -57 28c-18.667 0 -34.667 -7.33301 -48 -22s-20 -30 -20 -46c0 -38 21.333 -57 64 -57h92c19.333 0 29 -8.33301 29 -25
c0 -4.66699 -0.666992 -10.667 -2 -18l-67 -348h31c20.667 0 31 -8.66699 31 -26c0 -1.33301 -1.33301 -6.66602 -4 -15.999l-12 -59c-2.66699 -12 -12.667 -22.667 -30 -32c-31.333 -16.667 -50.666 -43.667 -57.999 -81l-121 -624c-22 -112 -68.5 -204.167 -139.5 -276.5
s-166.833 -108.5 -287.5 -108.5c-66 0 -99 10.333 -99 31c0 1.33301 0.666992 5 2 11l12 60c2 10.667 4.83301 17.667 8.5 21s13.167 5.66602 28.5 6.99902c41.333 2.66699 70.833 18 88.5 46s28.5 52.333 32.5 73z" />
    <glyph glyph-name="circumflex" unicode="&#x2c6;" horiz-adv-x="683" 
d="M174 1738l329 0.000976562l156 -186c18.667 -27.333 28 -43 28 -47c0 -8.66699 -8 -13 -24 -13h-50l-271 149l-278 -149h-50c-12 0 -18 5.33301 -18 16c0 9.33301 4.66699 19.666 14 30.999z" />
    <glyph glyph-name="caron" unicode="&#x2c7;" horiz-adv-x="683" 
d="M176 1492l-163 197c-9.33301 10.667 -14 19.667 -14 27c0 12.667 7.66699 19 23 19h49l270 -148l269 144h54c14 0 21 -5 21 -15c0 -7.33301 -4.66699 -17 -14 -29l-160 -195h-335z" />
    <glyph glyph-name="uni02C9" unicode="&#x2c9;" horiz-adv-x="683" 
d="M20 1685h642v-193h-642v193z" />
    <glyph glyph-name="breve" unicode="&#x2d8;" horiz-adv-x="683" 
d="M30 1745h107.001c54.667 -84.667 124.334 -127 209.001 -127c79.333 0 145.666 41.333 198.999 124h108c-20.667 -73.333 -60.167 -133.333 -118.5 -180s-122.833 -70 -193.5 -70c-140.667 0 -244.334 84.333 -311.001 253z" />
    <glyph glyph-name="dotaccent" unicode="&#x2d9;" horiz-adv-x="683" 
d="M337 1702c54.667 0 98.167 -9.33203 130.5 -27.999s48.5 -45.334 48.5 -80.001c0 -68 -56 -102 -168 -102c-120.667 0 -181 34.667 -181 104c0 70.667 56.667 106 170 106z" />
    <glyph glyph-name="ring" unicode="&#x2da;" horiz-adv-x="683" 
d="M341 1878c51.333 0 96.333 -18.167 135 -54.5s58 -82.5 58 -138.5c0 -54 -19 -99.667 -57 -137s-83.333 -56 -136 -56s-98 18.833 -136 56.5s-57 83.167 -57 136.5c0 55.333 19.333 101.333 58 138s83.667 55 135 55zM341 1784c-26.667 0 -49.833 -9.66602 -69.5 -28.999
s-29.5 -42.333 -29.5 -69c0 -28 9.83301 -51.5 29.5 -70.5s42.834 -28.5 69.501 -28.5c27.333 0 50.666 9.66699 69.999 29s29 42.666 29 69.999c0 28 -10 51.333 -30 70s-43 28 -69 28z" />
    <glyph glyph-name="ogonek" unicode="&#x2db;" horiz-adv-x="683" 
d="M286 17h87.002c-63.333 -49.333 -95 -99 -95 -149c0 -42.667 15 -83.667 45 -123s63 -66.166 99 -80.499s79.333 -21.833 130 -22.5l29 -33c-54.667 -47.333 -121.334 -71 -200.001 -71c-72.667 0 -137.334 24.167 -194.001 72.5s-85 106.166 -85 173.499
c0 96 61.333 173.667 184 233z" />
    <glyph glyph-name="tilde" unicode="&#x2dc;" horiz-adv-x="683" 
d="M29 1498c0 75.333 18.666 136.667 55.999 184s79.333 71 126 71c42 0 101 -21 177 -63c56 -30.667 96 -46 120 -46c26 0 44.5 7.33301 55.5 22s21.167 42 30.5 82h60c-6 -84.667 -27.333 -148.5 -64 -191.5s-79 -64.5 -127 -64.5c-38 0 -94.667 20.667 -170 62
c-60.667 33.333 -103 50 -127 50c-18.667 0 -35.167 -6.33301 -49.5 -19s-25.166 -41.667 -32.499 -87h-55z" />
    <glyph glyph-name="hungarumlaut" unicode="&#x2dd;" horiz-adv-x="683" 
d="M15 1492l116 179c20 30.667 37.5 48.667 52.5 54s58.833 8 131.5 8c59.333 0 95 -1.66699 107 -5s18 -10.333 18 -21c0 -14.667 -9 -27 -27 -37l-320 -178h-78zM388 1492l116 179c20 30.667 37.333 48.667 52 54s58.667 8 132 8c59.333 0 95 -1.66699 107 -5
s18 -10.333 18 -21c0 -14.667 -9 -27 -27 -37l-320 -178h-78z" />
    <glyph glyph-name="pi" unicode="&#x3c0;" horiz-adv-x="1124" 
d="M0 1063h1124v-158h-162v-905h-189v905h-426v-905h-188v905h-159v158z" />
    <glyph glyph-name="endash" unicode="&#x2013;" horiz-adv-x="1024" 
d="M-10 808h1044v-250h-1044v250z" />
    <glyph glyph-name="emdash" unicode="&#x2014;" horiz-adv-x="2048" 
d="M-18 808h2084v-250h-2084v250z" />
    <glyph glyph-name="quoteleft" unicode="&#x2018;" horiz-adv-x="533" 
d="M439 1138c0 -40.667 -14.5 -75.668 -43.5 -105.001s-65.833 -44 -110.5 -44c-56.667 0 -102.667 24.833 -138 74.5s-53 105.167 -53 166.5c0 62 17.333 127.833 52 197.5s70.167 122.5 106.5 158.5s59.5 54 69.5 54c6.66699 0 20.667 -8 42 -24l10 -6
c16.667 -11.333 25 -20.333 25 -27c0 -4.66699 -9 -19.667 -27 -45c-49.333 -71.333 -74 -127.666 -74 -168.999c0 -31.333 23.5 -63.833 70.5 -97.5s70.5 -78.167 70.5 -133.5z" />
    <glyph glyph-name="quoteright" unicode="&#x2019;" horiz-adv-x="533" 
d="M94 1490c0 40 14.168 75 42.501 105s65.5 45 111.5 45c56 0 101.833 -24.833 137.5 -74.5s53.5 -105.167 53.5 -166.5c0 -90 -32.167 -180.833 -96.5 -272.5s-108.5 -137.5 -132.5 -137.5c-6.66699 0 -20.334 7.66699 -41.001 23l-10 7c-17.333 11.333 -26 20.333 -26 27
c0 4.66699 9 19.667 27 45c50 71.333 75 127.333 75 168c0 31.333 -16 58 -48 80s-55.5 45.667 -70.5 71s-22.5 52 -22.5 80z" />
    <glyph glyph-name="quotesinglbase" unicode="&#x201a;" horiz-adv-x="533" 
d="M95 238c0 40 12.667 76.1641 38 108.497s61.666 48.5 108.999 48.5c55.333 0 101.833 -21.833 139.5 -65.5s56.5 -101.834 56.5 -174.501c0 -104.667 -35 -197.834 -105 -279.501s-119 -122.5 -147 -122.5c-13.333 0 -28.333 8.33301 -45 25s-25 28.334 -25 35.001
c0 8.66699 6.66699 19.667 20 33c61.333 57.333 92 114.333 92 171c0 14.667 -3.16699 28.334 -9.5 41.001s-22.166 29.334 -47.499 50.001s-44.333 40.834 -57 60.501s-19 42.834 -19 69.501z" />
    <glyph glyph-name="quotedblleft" unicode="&#x201c;" 
d="M440 1138c0 -40.667 -14.5 -75.668 -43.5 -105.001s-65.833 -44 -110.5 -44c-56.667 0 -102.667 24.833 -138 74.5s-53 105.167 -53 166.5c0 62 17.333 127.833 52 197.5s70.167 122.5 106.5 158.5s59.5 54 69.5 54c6.66699 0 20.667 -8 42 -24l10 -6
c16.667 -11.333 25 -20.333 25 -27c0 -4.66699 -9 -19.667 -27 -45c-49.333 -71.333 -74 -127.666 -74 -168.999c0 -31.333 23.5 -63.833 70.5 -97.5s70.5 -78.167 70.5 -133.5zM886 1138c0 -40.667 -14.666 -75.668 -43.999 -105.001s-66 -44 -110 -44
c-56.667 0 -102.667 24.833 -138 74.5s-53 105.167 -53 166.5c0 89.333 32.167 180 96.5 272s108.166 138 131.499 138c6.66699 0 20.667 -8 42 -24l10 -6c16.667 -11.333 25 -20.333 25 -27c0 -4.66699 -9 -19.667 -27 -45c-50 -71.333 -75 -127.666 -75 -168.999
c0 -31.333 23.667 -63.833 71 -97.5s71 -78.167 71 -133.5z" />
    <glyph glyph-name="quotedblright" unicode="&#x201d;" 
d="M541 1490c0 40.667 14.501 75.834 43.501 105.501s65.833 44.5 110.5 44.5c56 0 101.833 -24.833 137.5 -74.5s53.5 -105.167 53.5 -166.5c0 -44 -10.5 -94.167 -31.5 -150.5s-54.667 -113.666 -101 -171.999s-78.5 -87.5 -96.5 -87.5
c-6.66699 0 -20.334 7.66699 -41.001 23l-10 7c-17.333 11.333 -26 20.333 -26 27c0 4.66699 9 19.667 27 45c50 71.333 75 127.333 75 168c0 20 -4.5 35.833 -13.5 47.5s-25.833 26.667 -50.5 45s-43.667 39.166 -57 62.499s-20 48.666 -20 75.999zM95.001 1490
c0 40 14.168 75 42.501 105s65.5 45 111.5 45c56 0 101.833 -24.833 137.5 -74.5s53.5 -105.167 53.5 -166.5c0 -90 -32.167 -180.833 -96.5 -272.5s-108.5 -137.5 -132.5 -137.5c-6.66699 0 -20.334 7.66699 -41.001 23l-10 7c-17.333 11.333 -26 20.333 -26 27
c0 4.66699 9 19.667 27 45c50 71.333 75 127.333 75 168c0 31.333 -16 58 -48 80s-55.5 45.667 -70.5 71s-22.5 52 -22.5 80z" />
    <glyph glyph-name="quotedblbase" unicode="&#x201e;" 
d="M541 256c0 40.667 14.501 75.668 43.501 105.001s65.833 44 110.5 44c54.667 0 100.167 -24.333 136.5 -73s54.5 -104.334 54.5 -167.001c0 -90 -32.167 -180.833 -96.5 -272.5s-108.5 -137.5 -132.5 -137.5c-6.66699 0 -20.334 7.66699 -41.001 23l-10 7
c-17.333 10.667 -26 19.667 -26 27c0 4 9 19 27 45c50 70.667 75 126.667 75 168c0 31.333 -15.833 58 -47.5 80s-55.167 45.5 -70.5 70.5s-23 51.833 -23 80.5zM95.001 256.001c0 40.667 14.502 75.668 43.502 105.001s65.833 44 110.5 44
c54.667 0 100.167 -24.333 136.5 -73s54.5 -104.334 54.5 -167.001c0 -62 -17.333 -128 -52 -198s-70.334 -122.833 -107.001 -158.5s-60 -53.5 -70 -53.5c-6.66699 0 -20.334 7.66699 -41.001 23l-10 7c-17.333 10.667 -26 19.667 -26 27c0 4 9 19 27 45
c50 70.667 75 126.667 75 168c0 31.333 -15.833 58 -47.5 80s-55.167 45.5 -70.5 70.5s-23 51.833 -23 80.5z" />
    <glyph glyph-name="dagger" unicode="&#x2020;" horiz-adv-x="1003" 
d="M430 1118c-8 50.667 -29.666 132.995 -64.999 246.995c-32 104.667 -48 169.334 -48 194.001c0 52.667 47.667 79 143 79c97.333 0 159.833 -4.66699 187.5 -14s41.5 -30.333 41.5 -63s-16.667 -103.667 -50 -213c-30 -99.333 -49.333 -176 -58 -230
c21.333 6.66699 53.333 19.334 96 38.001c99.333 42 165.666 63 198.999 63c29.333 0 49 -11 59 -33s15 -64.667 15 -128c0 -80 -3.83301 -129.833 -11.5 -149.5s-25.834 -29.5 -54.501 -29.5c-32.667 0 -137.334 36.667 -314.001 110
c6.66699 -169.333 35.667 -412.666 87 -729.999c32 -198.667 48 -326 48 -382c0 -54 -9.5 -88.833 -28.5 -104.5s-59.5 -23.5 -121.5 -23.5c-14 0 -28 0.666992 -42 2l-169 9c-31.333 12 -47 51 -47 117c0 70.667 16.667 205.667 50 405
c50.667 302.667 78.334 538.334 83.001 707.001c-9.33301 -2.66699 -55.333 -19.334 -138 -50.001c-98 -36 -155.667 -54 -173 -54c-25.333 0 -42.5 11.333 -51.5 34s-13.5 62.334 -13.5 119.001c0 72.667 4.83301 121.334 14.5 146.001s28.834 37 57.501 37
c20 0 46.167 -6.33301 78.5 -19s107.5 -40.667 225.5 -84z" />
    <glyph glyph-name="daggerdbl" unicode="&#x2021;" horiz-adv-x="1024" 
d="M440 1114c-10.667 71.333 -33.6699 163.007 -69.0029 275.007c-27.333 86.667 -41 141.667 -41 165c0 26 10 46.167 30 60.5s62.667 21.5 128 21.5c6.66699 0 52.334 -1 137.001 -3c49.333 -8.66699 74 -33.334 74 -74.001c0 -30 -17.667 -101.333 -53 -214
c-31.333 -99.333 -52 -176.333 -62 -231l196 78c46.667 18 82.667 27 108 27c26.667 0 45.334 -11.5 56.001 -34.5s16 -63.833 16 -122.5c0 -82.667 -3.83301 -133.667 -11.5 -153s-23.167 -29 -46.5 -29c-41.333 0 -147.333 37.667 -318 113c0 -58 4 -124.333 12 -199
c4.66699 -46 7 -81 7 -105c0 -21.333 -2 -48.333 -6 -81c-8.66699 -66 -13 -136.333 -13 -211c182.667 69.333 286 104 310 104c21.333 0 37 -9.16699 47 -27.5s15 -54.833 15 -109.5c0 -84 -4.33301 -138 -13 -162s-28 -36 -58 -36c-31.333 0 -131.666 35.667 -300.999 107
c12.667 -87.333 36.334 -184 71.001 -290c24.667 -74.667 37 -124.334 37 -149.001c0 -33.333 -12.333 -55.333 -37 -66s-66.334 -16 -125.001 -16c-100.667 0 -160.167 6.16699 -178.5 18.5s-27.5 31.166 -27.5 56.499c0 35.333 20 115.333 60 240
c29.333 93.333 48 162 56 206c-167.333 -71.333 -268.333 -107 -303 -107c-22 0 -39.5 9.16699 -52.5 27.5s-19.5 60.166 -19.5 125.499c0 83.333 3.66699 135.666 11 156.999s24 32 50 32c28 0 132.667 -37 314 -111c-1.33301 76 -7 151 -17 225
c-4.66699 34.667 -7 57.667 -7 69c0 13.333 2 37.666 6 72.999c11.333 89.333 17.333 165.666 18 228.999c-184 -72 -288.667 -108 -314 -108c-39.333 0 -59 44.667 -59 134c0 97.333 6.16699 155.333 18.5 174s29.5 28 51.5 28c31.333 0 132.333 -35.667 303 -107z" />
    <glyph glyph-name="bullet" unicode="&#x2022;" horiz-adv-x="576" 
d="M288 904c62.667 0 116.5 -22.333 161.5 -67s67.5 -98.667 67.5 -162s-22.333 -117.333 -67 -162s-98.667 -67 -162 -67c-62.667 0 -116.5 22.333 -161.5 67s-67.5 98.667 -67.5 162s22.5 117.333 67.5 162s98.833 67 161.5 67z" />
    <glyph glyph-name="ellipsis" unicode="&#x2026;" horiz-adv-x="2048" 
d="M337 395c49.333 0 90.166 -19.333 122.499 -58s48.5 -86.334 48.5 -143.001c0 -54 -16.667 -102.167 -50 -144.5s-73.666 -63.5 -120.999 -63.5c-46 0 -84.167 18.833 -114.5 56.5s-45.5 84.834 -45.5 141.501c0 56 14.333 105.167 43 147.5s67.667 63.5 117 63.5z
M1699 395c49.333 0 90.166 -19.333 122.499 -58s48.5 -86.334 48.5 -143.001c0 -54 -16.667 -102.167 -50 -144.5s-73.666 -63.5 -120.999 -63.5c-46 0 -84.167 18.833 -114.5 56.5s-45.5 84.834 -45.5 141.501c0 56 14.333 105.167 43 147.5s67.667 63.5 117 63.5z
M1019 395c50 0 90.999 -19.501 122.999 -58.501s48 -86.5 48 -142.5c0 -54 -16.667 -102.167 -50 -144.5s-73.666 -63.5 -120.999 -63.5c-46.667 0 -85 18.833 -115 56.5s-45 84.834 -45 141.501c0 56 14.333 105.167 43 147.5s67.667 63.5 117 63.5z" />
    <glyph glyph-name="perthousand" unicode="&#x2030;" horiz-adv-x="2283" 
d="M995 1650h181l-636 -1705h-179zM368 1650c86 0 161.169 -36.334 225.502 -109.001s96.5 -173.667 96.5 -303s-31.333 -233 -94 -311s-137.334 -117 -224.001 -117c-90.667 0 -167.334 39 -230.001 117s-94 177 -94 297c0 128.667 33.167 231.834 99.5 309.501
s139.833 116.5 220.5 116.5zM434.002 1477c0 23.333 -6 42.5 -18 57.5s-27 22.5 -45 22.5c-46 0 -69 -33.333 -69 -100v-479c0 -22 6.33301 -40.833 19 -56.5s28 -23.5 46 -23.5c19.333 0 35.333 9.16699 48 27.5s19 40.5 19 66.5v485zM1164 784.999
c86 0 161.333 -36.5 226 -109.5s97 -174.167 97 -303.5s-31.5 -232.833 -94.5 -310.5s-137.833 -116.5 -224.5 -116.5c-92 0 -168.833 39.833 -230.5 119.5s-92.5 177.5 -92.5 293.5c0 131.333 33.333 235.333 100 312s139.667 115 219 115zM1231 610.999
c0 23.333 -6 42.5 -18 57.5s-27 22.5 -45 22.5c-46 0 -69 -33.333 -69 -100v-479c0 -22 6.33301 -40.833 19 -56.5s27.667 -23.5 45 -23.5c20 0 36.333 9.16699 49 27.5s19 40.5 19 66.5v485zM1912 784.999c86 0 161.169 -36.5 225.502 -109.5s96.5 -174.167 96.5 -303.5
s-31.333 -232.833 -94 -310.5s-137.334 -116.5 -224.001 -116.5c-90.667 0 -167.334 38.833 -230.001 116.5s-94 176.5 -94 296.5c0 128.667 33.167 232 99.5 310s139.833 117 220.5 117zM1979 610.999c0 23.333 -6 42.5 -18 57.5s-27.333 22.5 -46 22.5
c-45.333 0 -68 -33.333 -68 -100v-479c0 -22 6.33301 -40.833 19 -56.5s27.667 -23.5 45 -23.5c19.333 0 35.5 9.16699 48.5 27.5s19.5 40.5 19.5 66.5v485z" />
    <glyph glyph-name="guilsinglleft" unicode="&#x2039;" horiz-adv-x="512" 
d="M273 1322h215l-172 -627l172 -629h-215l-289 629z" />
    <glyph glyph-name="guilsinglright" unicode="&#x203a;" horiz-adv-x="512" 
d="M239 66h-215l172 626l-172 630h215l289 -630z" />
    <glyph glyph-name="Euro" unicode="&#x20ac;" horiz-adv-x="1004" 
d="M156 1016c18 185.333 68.1699 332.666 150.503 441.999s182.166 164 299.499 164c52 0 99.333 -14.333 142 -43c10 -6.66699 16.667 -10 20 -10c8 0 19.667 8.66699 35 26c8.66699 12 17 19.5 25 22.5s25 4.5 51 4.5c17.333 0 29 -5 35 -15s10.667 -33.667 14 -71
l22 -324c1.33301 -4 2 -10 2 -18c0 -25.333 -4.16699 -42.333 -12.5 -51s-23.833 -13 -46.5 -13c-28 0 -48.333 8.16699 -61 24.5s-26.334 59.833 -41.001 130.5c-18.667 90 -36.834 146.833 -54.501 170.5s-50.167 35.5 -97.5 35.5c-76.667 0 -115 -45 -115 -135v-340h242
l-21 -150h-221v-121h242l-21 -149h-221v-375c0 -35.333 9.5 -62.833 28.5 -82.5s45.167 -29.5 78.5 -29.5c51.333 0 87.5 14.167 108.5 42.5s33.167 70.5 36.5 126.5c2.66699 48 11 78.833 25 92.5s35 20.5 63 20.5c32.667 0 54.5 -5 65.5 -15s16.5 -31 16.5 -63
c0 -65.333 -17.5 -127.833 -52.5 -187.5s-76 -98.167 -123 -115.5s-105.833 -26 -176.5 -26c-114 0 -209 54 -285 162s-126.333 258 -151 450h-113l21 149h79c-1.33301 10.667 -2 27.334 -2 50.001c0 32 0.666992 55.667 2 71h-100l21 150h90z" />
    <glyph glyph-name="trademark" unicode="&#x2122;" horiz-adv-x="2048" 
d="M21 1614l777 -0.000976562v-226h-35c-2 50 -16 91.667 -42 125s-76.667 50 -152 50h-38v-588c0 -56.667 6.66699 -93 20 -109s41 -24 83 -24v-35h-454v35c44 1.33301 72.167 7.33301 84.5 18s18.5 50.334 18.5 119.001v584h-35c-61.333 0 -108 -13.333 -140 -40
s-50 -71.667 -54 -135h-33v226zM860 1614h367.999l231 -495l229 495h347v-38c-42.667 0 -70.167 -8.16699 -82.5 -24.5s-18.5 -52.5 -18.5 -108.5v-473c0 -50.667 6.5 -84.167 19.5 -100.5s40.167 -25.5 81.5 -27.5v-35h-462v35c50 0.666992 81.667 8.66699 95 24
s20 50.333 20 105v505l-320 -669h-24l-318 669v-502c0 -34 0.833008 -58.167 2.5 -72.5s9.83398 -27.833 24.501 -40.5s43.667 -19 87 -19v-35h-280v35c47.333 1.33301 77.333 9.5 90 24.5s19 51.5 19 109.5v469c0 58 -6.83301 94.333 -20.5 109s-43.167 22 -88.5 22v38z
" />
    <glyph glyph-name="Omega" unicode="&#x2126;" horiz-adv-x="1573" 
d="M481 160c-230.667 134 -346.001 350.999 -346.001 650.999c0 118.667 24.833 232 74.5 340s124.5 193.667 224.5 257s219.667 95 359 95c198.667 0 356.167 -66.667 472.5 -200s174.5 -300 174.5 -500c0 -277.333 -114.667 -491.666 -344 -642.999l364 6v-166h-575v177
c110 50 195.333 130.333 256 241s91 230.334 91 359.001c0 154.667 -37 287.167 -111 397.5s-184 165.5 -330 165.5c-149.333 0 -260.666 -54.833 -333.999 -164.5s-110 -239.5 -110 -389.5c0 -148.667 31 -275.834 93 -381.501s145 -180.5 249 -224.5v-180h-577v168z" />
    <glyph glyph-name="partialdiff" unicode="&#x2202;" horiz-adv-x="1012" 
d="M426 1138l-134.999 59.999c42.667 100 97.167 173.833 163.5 221.5s131.833 71.5 196.5 71.5c98.667 0 177 -46.333 235 -139s87 -234.667 87 -426c0 -167.333 -24.333 -325.166 -73 -473.499s-123.167 -265 -223.5 -350s-205.166 -127.5 -314.499 -127.5
c-90 0 -163.5 30.5 -220.5 91.5s-85.5 145.833 -85.5 254.5c0 112.667 30.667 216.334 92 311.001s152.166 166.667 272.499 216s266.166 74.666 437.499 75.999c-1.33301 166.667 -20.333 281.5 -57 344.5s-86 94.5 -148 94.5c-95.333 0 -171 -75 -227 -225z
M854.001 795.999c-160.667 -8 -279.833 -30.332 -357.5 -66.999s-140.5 -96.334 -188.5 -179.001s-72 -165 -72 -247c0 -58.667 17.833 -105.167 53.5 -139.5s74.5 -51.5 116.5 -51.5c96 0 189 56.5 279 169.5s146.333 284.5 169 514.5z" />
    <glyph glyph-name="Delta" unicode="&#x2206;" horiz-adv-x="1253" 
d="M1228 0h-1200l628 1387zM992 82l-399 967l-440 -967h839z" />
    <glyph glyph-name="product" unicode="&#x220f;" horiz-adv-x="1686" 
d="M161 1650h1362v-1921h-191v1748h-978v-1748h-193v1921z" />
    <glyph glyph-name="summation" unicode="&#x2211;" horiz-adv-x="1460" 
d="M139 1650h1237v-163h-988l607 -776l-649 -822h1040v-160h-1264v186l620 788l-603 772v175z" />
    <glyph glyph-name="fraction" unicode="&#x2215;" horiz-adv-x="85" 
d="M267 1646h182l-635 -1701h-178z" />
    <glyph glyph-name="periodcentered" unicode="&#x2219;" horiz-adv-x="533" 
d="M261 1008c49.333 0 90.166 -19.5 122.499 -58.5s48.5 -86.833 48.5 -143.5c0 -54 -16.667 -102.167 -50 -144.5s-73.666 -63.5 -120.999 -63.5c-46 0 -84.167 19 -114.5 57s-45.5 85 -45.5 141c0 56.667 14.5 106.167 43.5 148.5s67.833 63.5 116.5 63.5z" />
    <glyph glyph-name="radical" unicode="&#x221a;" horiz-adv-x="1124" 
d="M1052 1869h74l-312 -1947l-496 1021l-198 -91l-34 64l301 151l405 -823z" />
    <glyph glyph-name="infinity" unicode="&#x221e;" horiz-adv-x="1460" 
d="M689 812c78 100 140.333 163.668 187 191.001s95.334 41 146.001 41c72 0 138 -26 198 -78s90 -133 90 -243c0 -124 -31 -210.833 -93 -260.5s-127 -74.5 -195 -74.5c-52 0 -101.333 14.333 -148 43s-108.334 91.667 -185.001 189c-90.667 -114 -186.667 -171 -288 -171
c-74.667 0 -134.5 27.667 -179.5 83s-67.5 116.666 -67.5 183.999c0 62 21.167 122 63.5 180s103.5 87 183.5 87c101.333 0 197.333 -57 288 -171zM758 717.001c31.333 -50 69.332 -98.833 113.999 -146.5s93.667 -71.5 147 -71.5c46 0 87.5 17 124.5 51
s55.5 88.333 55.5 163c0 69.333 -17.167 123 -51.5 161s-78.166 57 -131.499 57c-37.333 0 -73.333 -13.167 -108 -39.5s-84.667 -84.5 -150 -174.5zM619.999 716.001c-81.333 104.667 -154.667 157.001 -220 157.001c-40.667 0 -73.334 -14.167 -98.001 -42.5
s-37 -65.5 -37 -111.5c0 -44.667 12.833 -81.834 38.5 -111.501s58.5 -44.5 98.5 -44.5c66.667 0 139.334 51 218.001 153z" />
    <glyph glyph-name="integral" unicode="&#x222b;" horiz-adv-x="561" 
d="M201 948l12.9971 422.997c4 130.667 12.833 221.667 26.5 273s27.167 90.833 40.5 118.5s35 51.334 65 71.001s59.667 29.5 89 29.5c36 0 65.833 -11.5 89.5 -34.5s35.5 -47.167 35.5 -72.5c0 -29.333 -8.5 -54 -25.5 -74s-39.167 -30 -66.5 -30
c-23.333 0 -48.666 12 -75.999 36c-15.333 13.333 -28.666 20 -39.999 20c-26.667 0 -40 -21 -40 -63c0 -28.667 3 -77.334 9 -146.001c24.667 -273.333 37 -501 37 -683c0 -33.333 -4 -184.166 -12 -452.499s-33.833 -432.666 -77.5 -492.999s-93.5 -90.5 -149.5 -90.5
c-32.667 0 -60.667 10.667 -84 32s-35 51 -35 89c0 28.667 8.33301 52.334 25 71.001s38.334 28 65.001 28s50 -11 70 -33c18.667 -20.667 34.667 -31 48 -31c26 0 39 20.333 39 61c0 28 -3 68 -9 120c-24.667 210 -37 487 -37 831z" />
    <glyph glyph-name="approxequal" unicode="&#x2248;" horiz-adv-x="1365" 
d="M1238 995c-111.333 -92.667 -211.668 -139 -301.001 -139c-44 0 -85.333 6 -124 18s-100 38.667 -184 80c-86 42 -152 63 -198 63c-96 0 -197 -49 -303 -147v224c106 91.333 211.667 137 317 137c64 0 154 -28 270 -84c104.667 -50.667 181.334 -76 230.001 -76
c87.333 0 185 49 293 147v-223zM1238 513c-111.333 -92.667 -211.668 -139 -301.001 -139c-43.333 0 -84 5.83301 -122 17.5s-100 38.5 -186 80.5s-152 63 -198 63c-96 0 -197 -49.333 -303 -148v224c106 91.333 211.667 137 317 137c64 0 154 -28 270 -84
c104.667 -50.667 181.334 -76 230.001 -76c87.333 0 185 49.333 293 148v-223z" />
    <glyph glyph-name="notequal" unicode="&#x2260;" horiz-adv-x="1365" 
d="M125 1149h598l206 524h182l-202 -524h328v-215h-412l-103 -263h515v-215h-599l-206 -523h-185l206 523h-328v215h412l103 263h-515v215z" />
    <glyph glyph-name="lessequal" unicode="&#x2264;" horiz-adv-x="1365" 
d="M1239 359l-1113 463v194l1113 465v-232l-819 -329l819 -328v-233zM126 214h1114v-214h-1114v214z" />
    <glyph glyph-name="greaterequal" unicode="&#x2265;" horiz-adv-x="1365" 
d="M126 1481l1113 -463v-195l-1113 -464v232l820 329l-820 328v233zM126 214h1114v-214h-1114v214z" />
    <glyph glyph-name="lozenge" unicode="&#x25ca;" horiz-adv-x="1012" 
d="M548 1422l418 -713l-418 -709h-111l-391 709l391 713h111zM494 1325l-340 -616l340 -615l359 615z" />
    <glyph glyph-name="fi" unicode="&#xf001;" horiz-adv-x="1003" 
d="M95 1366c25.333 103.333 73.1641 176.502 143.497 219.502s175.833 64.5 316.5 64.5c206.667 0 310 -39.333 310 -118c0 -24.667 -12.667 -44.834 -38 -60.501s-61.666 -23.5 -108.999 -23.5c-72.667 0 -121.334 19 -146.001 57c-15.333 24 -34.666 36 -57.999 36
c-58 0 -87 -29.667 -87 -89v-86c22.667 0 37.334 -4 44.001 -12s10 -31 10 -69c0 -16.667 -6.33301 -29.334 -19 -38.001c-23.333 -16.667 -35 -43 -35 -79v-975c0 -26 7 -47.333 21 -64c10.667 -12.667 16 -26 16 -40c0 -44.667 -1.66699 -70.667 -5 -78s-14 -11 -32 -11
h-337c-13.333 0 -23.166 4 -29.499 12s-9.5 28.333 -9.5 61c0 25.333 5.66699 41.333 17 48c18 11.333 27 39 27 83v964c0 36 -9 61.333 -27 76c-16.667 12.667 -25 37 -25 73c0 25.333 1.16699 39.833 3.5 43.5s10.5 5.5 24.5 5.5h24zM573.998 1366l297 0.00292969
c18 0 29 -3.83301 33 -11.5s6 -20.834 6 -39.501v-1145c0 -18.667 7 -34.334 21 -47.001c12.667 -10.667 19 -23 19 -37v-50c0 -24 -12.333 -36 -37 -36h-349c-13.333 0 -22.333 2 -27 6s-7 14 -7 30v57c0 19.333 5 31.333 15 36c22 11.333 33 39.666 33 84.999v971
c0 21.333 -8 36.333 -24 45c-15.333 8 -23 27.667 -23 59c0 37.333 2.5 59.5 7.5 66.5s16.833 10.5 35.5 10.5z" />
    <glyph glyph-name="fl" unicode="&#xf002;" horiz-adv-x="1003" 
d="M99 1366c24 104 70.998 177.333 140.998 220s165.333 64 286 64c48.667 0 120.334 -3.33301 215.001 -10h139c15.333 0 24.5 -1.83301 27.5 -5.5s4.5 -14.5 4.5 -32.5v-1440c0 -12 7 -24 21 -36c12.667 -11.333 19 -22 19 -32v-60c0 -16 -1.5 -25.667 -4.5 -29
s-12.167 -5 -27.5 -5h-356c-15.333 -0 -24.333 1.33301 -27 4s-4 10.667 -4 24v54c0 24.667 6.33301 41 19 49c18.667 12 28 37.333 28 76v1280c0 37.333 -21.667 56 -65 56c-23.333 0 -43.166 -7.16699 -59.499 -21.5s-24.5 -35.5 -24.5 -63.5v-92h21
c13.333 0 21.5 -2 24.5 -6s4.5 -14.667 4.5 -32l-1 -52c0 -10 -4.66699 -18 -14 -24c-23.333 -14.667 -35 -45 -35 -91v-987c0 -20 4.33301 -34.667 13 -44c13.333 -12.667 20 -27.334 20 -44.001c0 -42.667 -2.16699 -67.667 -6.5 -75s-17.166 -11 -38.499 -11h-327
c-24 0 -36 10.333 -36 31c-0.666992 8.66699 -1.33398 19.667 -2.00098 33c0 27.333 5.33301 45.333 16 54c19.333 16.667 29 53 29 109v934c0 32 -9.66699 58 -29 78c-12 12 -19.333 24.833 -22 38.5s-4 36.834 -4 69.501c0 12.667 10.333 19 31 19h24z" />
    <glyph glyph-name="glyph1" horiz-adv-x="0" 
 />
    <glyph glyph-name="glyph2" horiz-adv-x="501" 
 />
    </font>
</defs>
</svg>
